<svg xmlns="http://www.w3.org/2000/svg" viewBox="0 0 164.63 150.61"><defs><style>.cls-1{fill:#fff;}.cls-2{fill:#020404;}.cls-3{fill:#878787;}.cls-4{fill:#7a280f;}.cls-5{fill:#e73827;}</style></defs><title>Recurso 36</title><g id="Capa_2" data-name="Capa 2"><g id="Capa_1-2" data-name="Capa 1"><path class="cls-1" d="M154.3,67.43c1.45-8.4,1.44-17.23-1.71-25.32-2.72-8.52-8.62-15.82-15-22.3-3.69-4-8.95-6.19-13.55-9.13C106.08,1,84.19-2.19,63.86,1.5,56.25,3.13,48.42,4.82,41.7,8.69a64.61,64.61,0,0,0-14.4,8.58A11.79,11.79,0,0,0,18,8.67c-4.17-.25-8.56,2.09-9.8,5.93-2.41,8.33,2.24,16.55,2.61,24.87C7.69,45.54,1.37,50.3,0,57.12V59a8.37,8.37,0,0,0,3.94,5.86c-1.4,5.24.42,10.81.36,16.18a101.07,101.07,0,0,0,8.9,28.13c2.24,4.31,8.42,3.12,11.62.48a11.07,11.07,0,0,1,1.74,3.87,7.38,7.38,0,0,0-6.89,8.67c.14,3.81,3.16,6.68,6,9.1,2,1.67,4.06,4.69,7.25,3.67,2-.53,1.57-2.83,2.37-4.05,2,3.17,5.06,6.24,9.28,6.41a3.41,3.41,0,0,0,4-2.29c.12-3.67-1.5-7.29-1.51-10.87,2.89,6.27,5.3,12.77,9,18.71a16.47,16.47,0,0,0,11.08,7.76h1a7.91,7.91,0,0,0,6.54-4.25c.69-.75,1.07-2.93,2.51-2.11,3.23,2.24,7.35,2.45,11.15,3.16,8.38.19,11.92-7.94,17-12.66a8.22,8.22,0,0,0,9.79.68c2.83-2.11,4.75-5.05,7.09-7.56a49.91,49.91,0,0,1-5,10c-2,3.29.64,8.55,5,7.92a9.36,9.36,0,0,0,7.12-9.72,119.38,119.38,0,0,0,4.84-18.46c.06-2.33,2.12-3.85,2.83-6,1.83,1.68,4.22,3.55,7,2.69,3.49-1.35,4.83-4.85,5.3-8.07,1.82,3.69,7.84,3.32,9.61-.2,1.52-3.89,2.15-9.07-1.31-12.24-1.43-1.59-3.7-1-5.61-.93a59.57,59.57,0,0,0,1.32-7.7c4.45-.32,10.62-1.08,11.39-6.19V77.35A10.87,10.87,0,0,0,154.3,67.43Zm-2.68-2c.71,2.43-4.83,2.25-4.75.69,2.76-11-.1-22.64-6.51-32.07a56.1,56.1,0,0,0-.92-7.71A43.88,43.88,0,0,1,151.62,65.47ZM139.51,61c-.1.87.87,3.22-.38,3.46C138.29,63.44,138.9,62,139.51,61ZM78.35,2.85a86.73,86.73,0,0,1,48.41,12.58,39.2,39.2,0,0,1-4.13,2.47C101.9,5.75,75,3.37,52.14,11.65A27.5,27.5,0,0,0,45.5,9.84,85.55,85.55,0,0,1,78.35,2.85Zm22.89,61c.23-.29.15-.51-.2-.66-.54-6.66-.28-14.28-.73-21.31-.12-1,1.4-1.12,2.16-1.26,5.61-.36,11.25-.3,16.87-.27,0,1.4,0,2.81,0,4.21s0,2.6,0,3.9c.07,3.64.45,7.26.39,10.9-.1,2.16,0,4.33-.08,6.49-.11,1,.36,2.11-.16,3-6-2.42-12.59.65-18.66-1.09C101.25,66.84,100.16,63.56,101.24,63.86Zm17.53-34c-5.76.64-11.56,1.78-17.34,2.4-1.35.07-.29-1,.44-1.13,5.3-1.89,10.89-2.95,16.29-4.56C119.76,26.34,118.6,29.11,118.77,29.87Zm-43,33.66c1.83-2.62,2-6.06,4-8.49.4-.14.34.31.43.54,1,7-1,14.15.72,21,.94,2.5-.18,5.31,1.15,7.73a9.94,9.94,0,0,0,10.82,6.4c-2,3-4.36,6.37-6.63,9.11-1.57-2.1-2-5.22-4.48-6.87-3.64.66-3.82,5.69-6.54,7.5-2.19-3.29-3.57-7.13-6-10.23C72,88.61,75,86.2,75.62,82.92,76.41,76.48,75.88,70,75.77,63.53ZM57.24,65.61c-1.31-1.22-3.4-2.18-4.14-3.9-2.51-1.48-4.3-3.86-6.38-5.82-3-2.75-6-5.46-8.88-8.32a11.94,11.94,0,0,1-3.3-2.5c.14-1.73,2.37-3.29,3.31-5,4.38-.44,8.95.18,13.4.39,1.79.37,4.21,1.25,4,3.35C55.64,51.11,56.81,58.4,57.24,65.61Zm-9.13-36.5a7.76,7.76,0,0,1,4.63,1.24c1,.52.69,2.67-.75,2.07-2.1-.4-4.35-.45-6.33-1.21C45.19,30.2,47.25,29.56,48.11,29.11Zm-19.82-9A50,50,0,0,1,37.21,14c.45-.27.21.41,0,.46-2.74,2.57-5.78,4.87-8.43,7.52C27.72,22.69,27.61,20.61,28.29,20.15ZM3.44,60.26c-1.23-2.11-.3-4.66.93-6.58,2.83-4.33,6.13-8.38,9-12.69,1.2-1.53.15-3.44-.08-5.1-.68-5.81-3.06-11.38-2.8-17.3a6.44,6.44,0,0,1,5.39-7c4.58-.8,7.95,3.28,8.69,7.07,1.22,2.55,1.11,5.52,2.08,8C31,23.19,34.77,19,39.3,15.56a9.38,9.38,0,0,1,9.53-3.31,5.2,5.2,0,0,1,3.67,5.44,12.74,12.74,0,0,1-4,5.42C42.22,30.3,36,37.58,29.92,44.88c9.66,9.19,19.66,18.9,30.56,26.41-.71-12.44-.36-25.22-4.55-37.16C55.2,29,54.65,21.57,60.67,19c3.76-2.06,7.72.9,9.6,3.86,3,10.78.42,22.19,2,33.16.08,8.31,2.31,16.46,1.9,24.77-.46,3.68-3.52,8.24-8.1,7-3.79-1.53-1.63-6.15-4.55-8.29-.41-.35-.46-2.75-1.13-1.51C57.87,81.7,52,81.13,49,78.05c-7.49-5-12.16-13-20.18-17.28-.3,8.5,1.54,17.44,2,26.12.32,3.93-3.53,8.66-8.09,7-3.66-1.45-3.55-5.74-3.9-8.86-1.43-8.43-2-17-2.92-25.45-1.41.24-2,2.08-3.28,2.77C9.74,64.32,4.92,63.37,3.44,60.26ZM34.06,82c6,2.14,11.7,5.78,18.19,7.13,1.91.18,1.68,2.34,2.24,3.64.48,2.44,2.41,5.28,1,7.64a74.8,74.8,0,0,1-21.79-10C33.64,87.64,34.26,84.85,34.06,82Zm-2.54,50.38c-3.08-1.75-5.14-4.56-7.61-6.92-2.19-2.76-2-8,1.95-9.21,3-.78,5.39,1.73,5.92,4.24.65,3.35-.09,6.79.61,10.15C32.09,131.23,32.07,132,31.52,132.41ZM148.43,94.94a58,58,0,0,1-3,14.22c-.43,1.75-2.71,3.47-4.53,2.18-2-1.44-3.33-3.76-4.52-5.55-1.41,2.78-2.41,6-4.37,8.58-1.87,6.86-2.69,14-5.64,20.6.55,3.35-1.33,7.32-5,8.21-2-.38-2.45-2.71-1.61-4.18a48,48,0,0,0,7.92-22.57,2,2,0,0,0-1.17-.2c-3.83,5.58-7.34,11.45-12.33,16.22-1.9,2.25-6.38,2.05-7.65-.73-.8-.51-.29-2.21-1.4-2.18-2.29,3.73-5.38,6.93-8.18,10.31a12.91,12.91,0,0,1-6.52,4.59c-5.47.66-10.47-1.7-15.1-4.06-2.62,2.09-3,7.12-7.32,7.34-2.94.19-5.39-1.86-7.45-3.56-7.4-9-8.83-21-16.31-30-.21-.21-.38-.56-.75-.5-1.1,7,1.51,13.84,2.13,20.73-1.84.66-4.19-.74-5.54-2-4-4.51-4.77-10.55-7.46-15.64-3.35-2.78-4-7.09-6.31-10.48a.88.88,0,0,0-1.28-.31c-2.23,1.61-4.59,3.9-7.72,3.33-1.43-.58-1.84-2.12-2.44-3.33C9.36,93.55,5.75,80.22,6.53,66.77c1.27-.32,3,0,4.4-.19a3,3,0,0,1,2.27-.9c-.19,3.19,1.1,6.23,1.13,9.4.78.71.13,2.79.34,3.9,1.1,4.79.64,11,3.67,15.61,2.81,3.51,8.28,2.44,11.51.06,1.06-.9,1.94-2.2,3.08-2.87a75.74,75.74,0,0,0,23,11.55c1.14.07,2.59.12,3.1,1.28,3.92,7.4,5.37,15.67,6.8,23.72a17.25,17.25,0,0,0,4.41-.55c.23-2.45-.28-4.87-.16-7.31,1.16-4.77-1.17-9.48-1.22-14.24.59-2,4.35-1.6,4.31.56,1.15,6.6,2.4,13.19,3.06,19.86.1.5.37,1.29,1.08,1.15,2.51-.27,5.1-.12,7.56-.69,1.79-5.92,3-12,4.58-17.94.23-2.13,4.7-1.77,4.18.52-.89,6.4-3,12.63-4.34,19,2.34.55,4.81-.21,7-.84,3.52-7.91,6.23-16.13,9.61-24.09.62-1.67,2.49-1.8,4.08-1.42A66.62,66.62,0,0,0,133.85,88c2.27.09,4.45-.8,6.72-.91a30.89,30.89,0,0,1,9.58-2.2C150.25,88.31,149.09,91.61,148.43,94.94Zm-43,3.15c.95-2.61.32-5.74,2-8A49.85,49.85,0,0,0,116,86c1.79-1.42,4.29.07,5.61-2.22,2,1.61,4,3.9,6.94,4.57-4,6.25-11.71,9.69-19,12.08C107.86,101.15,104.4,100.46,105.43,98.09Zm47.92-2.71c3.9-.39,4,4.57,3.53,7,.76,2.61-3.86,5.73-5,2.26C151.06,101.78,150,97.08,153.35,95.38ZM161.72,79c-.64,2-3.08,2.93-5.16,3-5.45,1-11.19-.26-16.54,1.3a14.76,14.76,0,0,1-7.86,2.85c-4.6.36-9.16-3.48-8.79-7.77-1.81,4.64-7.84,3.16-12,3.78-4.22,0-8.11,1.65-11.86,3.28-3.18.87-6,3.55-9.49,2.6-2.17-1.14-4.55-2.88-4.6-5.43-1.14-13,.94-26.08,0-39.13.39-7.58-1.53-15.18,0-22.72A4.92,4.92,0,0,1,89.05,17c4.37-.64,8.48,3.09,7.85,7.19-.74,16.11.23,32.23,0,48.36,4.62-1.12,9.23-2.83,14.12-2.52,2.91-.3,5.76,1.13,8.63.36,1.76.36,2.53,1.91,3.38,3.2-.23-15.38.42-31.11-1.16-46.56-.75-3.91,2.1-8.69,6.76-8.6,4-.56,7.12,2.93,7.47,6.35A34.85,34.85,0,0,1,136.19,36c.51,11.67-1.35,23.23-1.05,34.88,3.74,0,7.41-1,11.19-.84,4.35.14,9.57-.68,13.09,2.33C160.75,74.34,162.05,76.59,161.72,79Z"/><path class="cls-2" d="M122.63,17.9a39.2,39.2,0,0,0,4.13-2.47A86.73,86.73,0,0,0,78.35,2.85a85.55,85.55,0,0,0-32.85,7,27.5,27.5,0,0,1,6.64,1.81C75,3.37,101.9,5.75,122.63,17.9Z"/><path class="cls-2" d="M13.19,59.84c1.58-2.15,2.46-5,4.2-6.84,2,11.9,1.21,24.4,3.44,36.4.33,3.26,5.27,4.08,7.37,1.8,1.32-2.17-.07-4.64-.24-6.91-2-9-1.67-18.66-1.74-27.56,9.62,6.41,17.73,14.68,26.53,22,4.37,3.57,9.56-5.48,4.46-7C46.25,63.73,36.75,54.21,26,46c-.27-.21-.9-.56-.49-.94,2.83-3.52,6.32-6.5,9.42-9.8,4.92-4.75,9-10.19,13.5-15.24,1-1.15,2.63-2.07,3-3.61-.25-2.28-3.18-3.06-5.28-2.65a87.31,87.31,0,0,0-9.06,6.83C33,25.13,28,28.84,24.21,33.64c-1.05-5.35-.8-11.07-2.68-16.22C20.47,13,11.09,12.3,12,17.9c1.73,8.38,4,16.8,4.29,25.35C12.88,47.78,8.7,51.88,6.17,56.89,4.92,60.42,11,62.43,13.19,59.84Z"/><path class="cls-2" d="M28.75,21.93c2.65-2.65,5.69-4.95,8.43-7.52.24-.05.48-.73,0-.46a50,50,0,0,0-8.92,6.2C27.61,20.61,27.72,22.69,28.75,21.93Z"/><path class="cls-2" d="M118.34,72.29c-8-.1-17.09-1-23.82,3.78-.21-6.08,1.57-12.17.38-18.22,0-10.22-.13-20.45.56-30.65-.27-2.4.2-5.11-1.29-7.24-1.33-.91-3-.76-4.57-.64-1.81.7-2.29,2.75-2.63,4.37-1.23,8.1.23,16.26.33,24.38.73,8.31-.78,16.63,0,24.94.54,4.07-1.2,8.57,1.06,12.34,1.25,2.18,4.39,2.32,6.34.87,4.78-3.15,10.67-4.14,16.32-5,3.63-.25,8-.2,10.81-2.74C124,75.79,121.58,72.43,118.34,72.29Z"/><path class="cls-2" d="M150.92,71.55c-6,1-12.18.69-17.86,3,.16-7.83-.3-15.68.92-23.46.32-8.54.46-17.14,0-25.67a4.72,4.72,0,0,0-6-4.73c-3,.48-3.83,3.86-3.45,6.23.36,16.86-.46,33.76.9,50.59.09,2.47.84,5.57,3.78,6.31,4,.51,7.58-1.71,11.49-2.18,4.65-1.58,9.62-.43,14.42-.69,2.35-.07,5.19-1.83,4.62-4.32C159.49,72.77,154.49,71.13,150.92,71.55Z"/><path class="cls-2" d="M63.39,78.56c1.64,2,.36,4.8,2.06,6.74S70,85.87,71,84.17c2.68-3.35,1.44-7.68.92-11.47-.37-5.45-1.7-10.81-1.32-16.3-1.45-10.5.78-21.33-2-31.72-.66-2.18-2.79-4.48-5.49-3.81-3.07.08-5.11,3-5.52,5.57a44.38,44.38,0,0,0,1.21,11.41c1,4.71.92,9.56,2.31,14.2C63.58,60.71,62.45,69.78,63.39,78.56Z"/><path class="cls-2" d="M146.87,66.16c-.08,1.56,5.46,1.74,4.75-.69a43.88,43.88,0,0,0-12.18-39.09,56.1,56.1,0,0,1,.92,7.71C146.77,43.52,149.63,55.17,146.87,66.16Z"/><path class="cls-2" d="M51.25,40.51c-4.45-.21-9-.83-13.4-.39-.94,1.66-3.17,3.22-3.31,5a6.46,6.46,0,0,1,3.32-1c4.41.3,8.89.06,13.27.75a101.89,101.89,0,0,1,2,16.89c.74,1.72,2.83,2.68,4.14,3.9-.43-7.21-1.6-14.5-2-21.75C55.46,41.76,53,40.88,51.25,40.51Z"/><path class="cls-2" d="M105.05,44.53a78.4,78.4,0,0,1,14.29,0c0-1.4,0-2.81,0-4.21-5.62,0-11.26-.09-16.87.27-.76.14-2.28.21-2.16,1.26.45,7,.19,14.65.73,21.31.7-5.89,1.55-11.76,2.32-17.64C102.94,44.43,104.42,44.54,105.05,44.53Z"/><path class="cls-2" d="M119.53,68.85c.52-.88,0-2,.16-3-.06-.42-.13-.83-.22-1.24-6.07-.21-12.22-.32-18.23-.76-1.08-.3,0,3-.37,3.9C106.94,69.5,113.52,66.43,119.53,68.85Z"/><path class="cls-2" d="M14.18,75.94c.19-.25.12-.57.15-.86,0-3.17-1.32-6.21-1.13-9.4a3,3,0,0,0-2.27.9l-.08.4A46.26,46.26,0,0,0,14.18,75.94Z"/><path class="cls-2" d="M56,108.65c2.93,6.22,4.1,13,5.31,19.65.44,1.46.2,3.6,2,4.23a25.84,25.84,0,0,0,10.45-1.35c3.42,1,7.11-.26,10.62.33.61,1,1.45,2.37,3,1.82,3.81-.76,7.83-.53,11.54-1.79a9.36,9.36,0,0,0,1.19-1.41c3.5-7.58,6.08-15.52,9.33-23.17,11.92-3.95,23.28-10.47,31.16-19.87-2.27.11-4.45,1-6.72.91A66.62,66.62,0,0,1,110,102.31c-1.59-.38-3.46-.25-4.08,1.42-3.38,8-6.09,16.18-9.61,24.09-2.22.63-4.69,1.39-7,.84,1.32-6.34,3.45-12.57,4.34-19,.52-2.29-4-2.65-4.18-.52-1.57,6-2.79,12-4.58,17.94-2.46.57-5,.42-7.56.69-.71.14-1-.65-1.08-1.15-.66-6.67-1.91-13.26-3.06-19.86,0-2.16-3.72-2.59-4.31-.56,0,4.76,2.38,9.47,1.22,14.24-.12,2.44.39,4.86.16,7.31a17.25,17.25,0,0,1-4.41.55C64.41,120.28,63,112,59,104.61c-.51-1.16-2-1.21-3.1-1.28a75.74,75.74,0,0,1-23-11.55c-1.14.67-2,2-3.08,2.87a71,71,0,0,0,25,12.81C55.48,107.56,55.7,108.17,56,108.65Z"/><path class="cls-3" d="M118.16,26.58c-5.4,1.61-11,2.67-16.29,4.56-.73.18-1.79,1.2-.44,1.13,5.78-.62,11.58-1.76,17.34-2.4C118.6,29.11,119.76,26.34,118.16,26.58Z"/><path class="cls-3" d="M52.74,30.35a7.76,7.76,0,0,0-4.63-1.24c-.86.45-2.92,1.09-2.45,2.1,2,.76,4.23.81,6.33,1.21C53.43,33,53.72,30.87,52.74,30.35Z"/><path class="cls-3" d="M69.19,90.27c2.45,3.1,3.83,6.94,6,10.23,2.72-1.81,2.9-6.84,6.54-7.5,2.46,1.65,2.91,4.77,4.48,6.87,2.27-2.74,4.59-6.13,6.63-9.11A9.94,9.94,0,0,1,82,84.36c-1.33-2.42-.21-5.23-1.15-7.73-1.69-6.9.32-14.07-.72-21-.09-.23,0-.68-.43-.54-2,2.43-2.14,5.87-4,8.49.11,6.44.64,13-.15,19.39C75,86.2,72,88.61,69.19,90.27Z"/><path class="cls-3" d="M139.51,61c-.61,1-1.22,2.41-.38,3.46C140.38,64.25,139.41,61.9,139.51,61Z"/><path class="cls-3" d="M55.49,100.44c1.41-2.36-.52-5.2-1-7.64-.56-1.3-.33-3.46-2.24-3.64-6.49-1.35-12.18-5-18.19-7.13.2,2.82-.42,5.61-.36,8.42A74.8,74.8,0,0,0,55.49,100.44Z"/><path class="cls-3" d="M109.55,100.38c7.28-2.39,15-5.83,19-12.08-2.95-.67-4.9-3-6.94-4.57-1.32,2.29-3.82.8-5.61,2.22a49.85,49.85,0,0,1-8.59,4.12c-1.65,2.28-1,5.41-2,8C104.4,100.46,107.86,101.15,109.55,100.38Z"/><path class="cls-4" d="M37.86,44.07a6.46,6.46,0,0,0-3.32,1,11.94,11.94,0,0,0,3.3,2.5c.56-3.69,5.26-1.75,7.91-1.87,2.74,1.42,2.44,5,3,7.49.42,1.38-.91,2.12-2,2.7,2.08,2,3.87,4.34,6.38,5.82a101.89,101.89,0,0,0-2-16.89C46.75,44.13,42.27,44.37,37.86,44.07Z"/><path class="cls-4" d="M119.69,65.86c0-2.16,0-4.33.08-6.49l-.93.42c-3,1.53-7.06,1-10.22.35-1.78-.9-2-3-2.28-4.64-.5-2.47-1-5.71,1.51-7.41a22.1,22.1,0,0,1,11.53.38c0-1.3,0-2.6,0-3.9a78.4,78.4,0,0,0-14.29,0c-.63,0-2.11-.1-1.69,1-.77,5.88-1.62,11.75-2.32,17.64.35.15.43.37.2.66,6,.44,12.16.55,18.23.76C119.56,65,119.63,65.44,119.69,65.86Z"/><path class="cls-5" d="M12.62,62.37c1.28-.69,1.87-2.53,3.28-2.77.92,8.49,1.49,17,2.92,25.45.35,3.12.24,7.41,3.9,8.86,4.56,1.64,8.41-3.09,8.09-7-.48-8.68-2.32-17.62-2-26.12C36.81,65,41.48,73,49,78.05c3,3.08,8.9,3.65,11.47-.13.67-1.24.72,1.16,1.13,1.51,2.92,2.14.76,6.76,4.55,8.29,4.58,1.26,7.64-3.3,8.1-7,.41-8.31-1.82-16.46-1.9-24.77-1.63-11,.93-22.38-2-33.16-1.88-3-5.84-5.92-9.6-3.86-6,2.62-5.47,10.07-4.74,15.18,4.19,11.94,3.84,24.72,4.55,37.16-10.9-7.51-20.9-17.22-30.56-26.41C36,37.58,42.22,30.3,48.5,23.11a12.74,12.74,0,0,0,4-5.42,5.2,5.2,0,0,0-3.67-5.44,9.38,9.38,0,0,0-9.53,3.31C34.77,19,31,23.19,26.65,26.7c-1-2.52-.86-5.49-2.08-8-.74-3.79-4.11-7.87-8.69-7.07a6.44,6.44,0,0,0-5.39,7c-.26,5.92,2.12,11.49,2.8,17.3.23,1.66,1.28,3.57.08,5.1-2.87,4.31-6.17,8.36-9,12.69-1.23,1.92-2.16,4.47-.93,6.58C4.92,63.37,9.74,64.32,12.62,62.37ZM58.83,37.85a44.38,44.38,0,0,1-1.21-11.41c.41-2.57,2.45-5.49,5.52-5.57,2.7-.67,4.83,1.63,5.49,3.81,2.75,10.39.52,21.22,2,31.72-.38,5.49,1,10.85,1.32,16.3.52,3.79,1.76,8.12-.92,11.47-1,1.7-4,2.93-5.55,1.13s-.42-4.76-2.06-6.74c-.94-8.78.19-17.85-2.25-26.51C59.75,47.41,59.8,42.56,58.83,37.85Zm-52.66,19c2.53-5,6.71-9.11,10.08-13.64-.31-8.55-2.56-17-4.29-25.35-.87-5.6,8.51-4.87,9.57-.48,1.88,5.15,1.63,10.87,2.68,16.22C28,28.84,33,25.13,37.08,20.58a87.31,87.31,0,0,1,9.06-6.83c2.1-.41,5,.37,5.28,2.65-.37,1.54-2,2.46-3,3.61-4.53,5-8.58,10.49-13.5,15.24-3.1,3.3-6.59,6.28-9.42,9.8-.41.38.22.73.49.94,10.76,8.22,20.26,17.74,31.22,25.74,5.1,1.52-.09,10.57-4.46,7-8.8-7.32-16.91-15.59-26.53-22,.07,8.9-.28,18.53,1.74,27.56.17,2.27,1.56,4.74.24,6.91-2.1,2.28-7,1.46-7.37-1.8-2.23-12-1.45-24.5-3.44-36.4-1.74,1.89-2.62,4.69-4.2,6.84C11,62.43,4.92,60.42,6.17,56.89Z"/><path class="cls-5" d="M146.33,70c-3.78-.19-7.45.82-11.19.84-.3-11.65,1.56-23.21,1.05-34.88a34.85,34.85,0,0,0-.09-11.21c-.35-3.42-3.48-6.91-7.47-6.35-4.66-.09-7.51,4.69-6.76,8.6,1.58,15.45.93,31.18,1.16,46.56-.85-1.29-1.62-2.84-3.38-3.2-2.87.77-5.72-.66-8.63-.36-4.89-.31-9.5,1.4-14.12,2.52.23-16.13-.74-32.25,0-48.36.63-4.1-3.48-7.83-7.85-7.19a4.92,4.92,0,0,0-3.57,3.83c-1.53,7.54.39,15.14,0,22.72.93,13-1.15,26.1,0,39.13,0,2.55,2.43,4.29,4.6,5.43,3.54,1,6.31-1.73,9.49-2.6,3.75-1.63,7.64-3.28,11.86-3.28,4.11-.62,10.14.86,12-3.78-.37,4.29,4.19,8.13,8.79,7.77A14.76,14.76,0,0,0,140,83.35c5.35-1.56,11.09-.27,16.54-1.3,2.08-.09,4.52-1,5.16-3,.33-2.44-1-4.69-2.3-6.69C155.9,69.33,150.68,70.15,146.33,70Zm-24.46,8.42c-2.76,2.54-7.18,2.49-10.81,2.74-5.65.91-11.54,1.9-16.32,5-1.95,1.45-5.09,1.31-6.34-.87-2.26-3.77-.52-8.27-1.06-12.34-.82-8.31.69-16.63,0-24.94C87.2,40,85.74,31.79,87,23.69c.34-1.62.82-3.67,2.63-4.37,1.54-.12,3.24-.27,4.57.64,1.49,2.13,1,4.84,1.29,7.24-.69,10.2-.55,20.43-.56,30.65,1.19,6-.59,12.14-.38,18.22,6.73-4.78,15.86-3.88,23.82-3.78C121.58,72.43,124,75.79,121.87,78.43ZM155.12,81c-4.8.26-9.77-.89-14.42.69-3.91.47-7.45,2.69-11.49,2.18-2.94-.74-3.69-3.84-3.78-6.31-1.36-16.83-.54-33.73-.9-50.59-.38-2.37.48-5.75,3.45-6.23a4.72,4.72,0,0,1,6,4.73c.51,8.53.37,17.13,0,25.67-1.22,7.78-.76,15.63-.92,23.46,5.68-2.31,11.9-2,17.86-3,3.57-.42,8.57,1.22,8.82,5.08C160.31,79.12,157.47,80.88,155.12,81Z"/><path class="cls-5" d="M48.7,53.19c-.51-2.52-.21-6.07-3-7.49-2.65.12-7.35-1.82-7.91,1.87,2.84,2.86,5.9,5.57,8.88,8.32C47.79,55.31,49.12,54.57,48.7,53.19Z"/><path class="cls-5" d="M107.85,48.09c-2.49,1.7-2,4.94-1.51,7.41.33,1.65.5,3.74,2.28,4.64,3.16.61,7.22,1.18,10.22-.35l.93-.42c.06-3.64-.32-7.26-.39-10.9A22.1,22.1,0,0,0,107.85,48.09Z"/><path class="cls-5" d="M109.41,107c-3.25,7.65-5.83,15.59-9.33,23.17a9.36,9.36,0,0,1-1.19,1.41c-3.71,1.26-7.73,1-11.54,1.79-1.51.55-2.35-.81-3-1.82-3.51-.59-7.2.7-10.62-.33a25.84,25.84,0,0,1-10.45,1.35c-1.85-.63-1.61-2.77-2-4.23-1.21-6.66-2.38-13.43-5.31-19.65-.26-.48-.48-1.09-1.11-1.19a71,71,0,0,1-25-12.81c-3.23,2.38-8.7,3.45-11.51-.06C15.31,90,15.77,83.77,14.67,79c-.21-1.11.44-3.19-.34-3.9,0,.29,0,.61-.15.86a46.26,46.26,0,0,1-3.33-9l.08-.4c-1.45.18-3.13-.13-4.4.19-.78,13.45,2.83,26.78,8.33,39.16.6,1.21,1,2.75,2.44,3.33,3.13.57,5.49-1.72,7.72-3.33a.88.88,0,0,1,1.28.31c2.35,3.39,3,7.7,6.31,10.48,2.69,5.09,3.44,11.13,7.46,15.64,1.35,1.31,3.7,2.71,5.54,2-.62-6.89-3.23-13.74-2.13-20.73.37-.06.54.29.75.5,7.48,9,8.91,21,16.31,30,2.06,1.7,4.51,3.75,7.45,3.56,4.28-.22,4.7-5.25,7.32-7.34,4.63,2.36,9.63,4.72,15.1,4.06a12.91,12.91,0,0,0,6.52-4.59c2.8-3.38,5.89-6.58,8.18-10.31,1.11,0,.6,1.67,1.4,2.18,1.27,2.78,5.75,3,7.65.73,5-4.77,8.5-10.64,12.33-16.22a2,2,0,0,1,1.17.2A48,48,0,0,1,119.74,139c-.84,1.47-.35,3.8,1.61,4.18,3.71-.89,5.59-4.86,5-8.21,3-6.58,3.77-13.74,5.64-20.6,2-2.6,3-5.8,4.37-8.58,1.19,1.79,2.55,4.11,4.52,5.55,1.82,1.29,4.1-.43,4.53-2.18a58,58,0,0,0,3-14.22c.66-3.33,1.82-6.63,1.72-10a30.89,30.89,0,0,0-9.58,2.2C132.69,96.49,121.33,103,109.41,107Z"/><path class="cls-5" d="M151.84,104.68c1.18,3.47,5.8.35,5-2.26.45-2.47.37-7.43-3.53-7C150,97.08,151.06,101.78,151.84,104.68Z"/><path class="cls-5" d="M31.78,120.52c-.53-2.51-2.92-5-5.92-4.24-4,1.24-4.14,6.45-1.95,9.21,2.47,2.36,4.53,5.17,7.61,6.92.55-.38.57-1.18.87-1.74C31.69,127.31,32.43,123.87,31.78,120.52Z"/></g></g></svg>