<svg xmlns="http://www.w3.org/2000/svg" viewBox="0 0 656.1 312.02"><defs><style>.cls-1{fill:none;}.cls-2{fill:#fff;}.cls-3{fill:#fffefc;}.cls-4{fill:#fcf0e9;}.cls-5{fill:#c61f23;}.cls-6{fill:#f1a28e;}.cls-7{fill:#f9c8c1;}.cls-8{fill:#d4161a;}.cls-9{fill:#d4161b;}.cls-10{fill:#d4171a;}.cls-11{fill:#f6c3b8;}.cls-12{fill:#c92523;}.cls-13{fill:#b82628;}.cls-14{fill:#b02c24;}.cls-15{fill:#d52323;}.cls-16{fill:#f3ad9c;}.cls-17{fill:#f4baaf;}.cls-18{fill:#fef8ef;}.cls-19{fill:#f7eae5;}.cls-20{fill:#faeee4;}.cls-21{fill:#f2b0a1;}.cls-22{fill:#f2baa7;}.cls-23{fill:#fde6e0;}.cls-24{fill:#f3b3a5;}.cls-25{fill:#fbefe6;}.cls-26{fill:#eb8873;}.cls-27{fill:#d42f29;}.cls-28{fill:#fdf1e2;}.cls-29{fill:#f8eae3;}.cls-30{fill:#fce0d9;}.cls-31{fill:#ec8170;}.cls-32{fill:#cf2b27;}.cls-33{fill:#f3ece8;}.cls-34{fill:#d9342f;}.cls-35{fill:#efa490;}.cls-36{fill:#ea8d7a;}.cls-37{fill:#f1ad96;}.cls-38{fill:#e87062;}.cls-39{fill:#e99888;}</style></defs><title>Recurso 114</title><g id="Capa_2" data-name="Capa 2"><g id="Capa_1-2" data-name="Capa 1"><path class="cls-1" d="M427.33,63.67l.14-.08h0c-.09-.1-.19-.19-.29-.29C427.26,63.42,427.29,63.55,427.33,63.67Z"/><polygon class="cls-1" points="568.68 111.64 568.68 111.64 568.68 111.64 568.68 111.64"/><path class="cls-1" d="M411.49,223.5a4.09,4.09,0,0,1,.47-.23h-.2A1.49,1.49,0,0,0,411.49,223.5Z"/><path class="cls-1" d="M390,91.54c.65.79,1.24,1.6,1.82,2.43C391.25,93.14,390.66,92.33,390,91.54Z"/><path class="cls-1" d="M332.8,99.72a.69.69,0,0,1,.07-.15h-.3Z"/><path class="cls-1" d="M31.13,115.88l.06-.11h-.12Z"/><path class="cls-1" d="M389.88,195.67a.7.7,0,0,0-.08-.1.36.36,0,0,1,0-.09l-.15.24Z"/><path class="cls-1" d="M155.8,86.3a.08.08,0,0,1,0,0h-.07C155.7,86.33,155.87,86.51,155.8,86.3Z"/><path class="cls-1" d="M391.83,94l1.29,1.87h0Z"/><path class="cls-1" d="M549.71,250.67a26,26,0,0,0,21.41-5.93c4-3.31,6.68-7.58,10.84-10.85-5,1-9.57,2.82-13.23,6C563.27,244.64,557.83,249.39,549.71,250.67Z"/><path class="cls-2" d="M622,157.14c-24.79-.4-49.6-.2-74.4-.14-11.49,0-23-.8-34.47-.42-17.92.6-35.84.11-53.75.56-8.1.2-16.21.13-24.31.31-7.68.18-15.19-1-22.71-2.13-1.34-.2-2.53-.38-3.75.52-2.77,2-6.13,2.28-9.58,2-1.23-.11-3.05-1-3.4.3s1.15,2.72,2.76,3.35a8.11,8.11,0,0,0,3.38.53c7.38-.62,14.74,0,22.11,0,44.43.15,88.86.43,133.28,0,32.87-.35,65.74-.05,98.6-.33v-3.94C644.47,157.05,633.2,157.32,622,157.14Z"/><path class="cls-2" d="M506.86,134.79a8.53,8.53,0,0,0-1.6,0c-1,.2-2.75-.69-2.77.88s1.78.9,2.74.9q75.24,0,150.49,0c0-.86,0-1.73,0-2.59h0c0,.25,0,.51,0,.76Z"/><path class="cls-2" d="M655.72,137.37v0Z"/><path class="cls-3" d="M28.25,142.73c20.15.7,40.3.56,60.44.26,53.69-.8,107.39-.11,161.08-.35a6.13,6.13,0,0,0,4-1c2.79-2.15,2.21-5.19-1.25-6.41a10,10,0,0,0-3.4-.46c-14,0-28-.3-42,.16-12.22.39-24.44-.14-36.62.44-7.94.38-15.88-.08-23.77.45-7.49.5-15,.21-22.44.39-40.95,1-81.92.25-122.87.44v-.32l-.06,6.75c0-.15,0-.31,0-.46C10.31,142.54,19.29,142.41,28.25,142.73Z"/><path class="cls-4" d="M22,152.3c11.54-.3,23.07-.83,34.6-1.38a113.82,113.82,0,0,0,11.72-1.3c-1.94-.84-4.09-.63-6.08-.84-5.63-.57-11.32-.65-17-1.07-11.16-.81-22.32-1.33-33.53-1.48-3.49,0-7-.14-10.45,0V146l-.06,6.87v-.5C8.18,152.44,15.11,152.48,22,152.3Z"/><path class="cls-4" d="M107.19,173.19h95c1.4,0,3.15.51,3.08-1.74,0-1.5-.54-2-2.3-2-4,.09-8,0-12,0H1.07v-.11c0,1.46,0,2.91,0,4.37v-.59Q54.12,173.22,107.19,173.19Z"/><path class="cls-5" d="M136.61,282.77c-10-2.79-13.41-1.69-18.58,7.17a11.64,11.64,0,0,1-5.34,4.93c-1.49.7-3.08,1.39-3.88,2.74-1.43,2.44-3.93,3.7-6.64,4.7-3.5,1.3-7.1,2.39-10.6,3.68s-6.63,3-8.44,6h5.36c.76-.74,1.87-.7,2.85-.91,4.47-1,9-1.79,13.43-2.86,3.32-.79,6.88-1.43,9.44-3.5A29.44,29.44,0,0,1,122,300.1c2.17-.84,3.19-2.14,3-4.35a8.46,8.46,0,0,1,3.48-7.42c2.47-2,5.42-3.45,8.14-5.18l-.06-.38Z"/><path class="cls-6" d="M10.88,119c2.48-1.19,5.21-1.24,7.93-1.35,3.6-.14,7.27.52,10.76-.84.61-.24,1.26-.37,1.56-.93l-.06-.11c-6.46,0-12.92.11-19.37,0A82.5,82.5,0,0,1,1.51,115c0,1.22,0,2.44,0,3.68v-.34A86.3,86.3,0,0,0,10.88,119Z"/><path class="cls-7" d="M450.3,234.59c6.72-5.73,14.81-9.29,23.76-11.49,18.57-4.56,36.93-9.78,55.88-13.1a203.49,203.49,0,0,1,31.81-3.3c-5.46,1.38-11,2.63-16.35,4.17-17.36,4.92-33.84,11.73-50.78,17.58-6.84,2.36-13.81,4.48-20.72,6.7.07,1,1,1.46,1.73,2h0c25.56-.33,49.73-6,73.29-14.11,14.16-4.85,27.67-10.91,41.52-16.32,9.36-3.65,19.18-6.08,29-8.51,3.87-1,6,.27,5.25,3.52-1,4.21,1.4,6.59,4.61,8.81a16.78,16.78,0,0,0,13.15,3.11,56.85,56.85,0,0,0,13.42-4.36q-.17-23.85-.16-47.69h0c-32.86.28-65.73,0-98.6.33-44.42.47-88.85.19-133.28,0-7.37,0-14.73-.61-22.11,0a8.11,8.11,0,0,1-3.38-.53c-1.61-.63-3.12-1.95-2.76-3.35s2.17-.41,3.4-.3c3.45.32,6.81.07,9.58-2,1.22-.9,2.41-.72,3.75-.52,7.52,1.09,15,2.31,22.71,2.13,8.1-.18,16.21-.11,24.31-.31,17.91-.45,35.83,0,53.75-.56,11.49-.38,23,.44,34.47.42,24.8-.06,49.61-.26,74.4.14,11.25.18,22.52-.09,33.76.52v-.73c0-2.51,0-5,0-7.54,0-4,0-8,0-12v-.75q-75.24,0-150.49,0c-1,0-2.75.7-2.74-.9s1.79-.68,2.77-.88a8.53,8.53,0,0,1,1.6,0H655.72c0-.25,0-.51,0-.76q0-8.42,0-16.82a51.29,51.29,0,0,1-6.08-3.24c-20.83-12.77-40.82-26.41-59-42-.56-.47-1.06-1.6-2.08-.93s-.71,1.83,0,2.69c12.86,15.66,23.25,33,40.6,45.65.12.09.15.26.42.77-7.65-1.59-15.41-2.36-21.16-7.16-10.56-8.83-23.4-12.93-37.66-14.35-1.94-.19-3.9-.28-5.85-.42h0a19.77,19.77,0,0,0,4.29,3.67c3.06,1.94,6.66,2.79,10.22,3.72,4.74,1.23,9.51,2.39,13.48,5.22-1.85.92-3.57,1-6.54.54-3.55-.57-6.93-2-10.67-1.63-2.62-.12-5.08.22-7.06,1.89.38,1.43,1.56,2.38,2.67,3.38a15.39,15.39,0,0,1,3.37,3.57c.73,1.3,1.2,2.84.2,4-.8.9-2.32,0-3.46-.25-9.53-2.17-18.1-6.38-27.2-9.46-12.66-4.29-25-9.41-38.19-12.4a52.94,52.94,0,0,0-13.82-.82c-7.57.26-12.78-2.64-15.81-8.59-.5-1-1.09-1.94-1.54-2.94-1.69-3.84-4.91-6.31-9.19-7.92-5.23-2-10.71-3.35-16.1-4.92-8.15-2.37-15.81-5.44-22.09-11.67h0l-.14.08c1.49,6,2.88,11.43,6.87,16a14.46,14.46,0,0,0,8.85,4.78c12,1.94,22.82,5.88,31.71,13.33,4.1,3.44,7.41,7.46,11,11.3.5.54,1.18,1.16,1,1.83-.75,2.74,1.41,2.8,3.55,3.22,3.89.76,7.16,2.68,10.31,4.72,3.83,2.49,7.51,5.18,11.91,7.13-3.78-.45-7.55-1-11.33-1.35-13.35-1.35-26.71-2.64-39.79-5.5-8.28-1.81-16-4.44-22.89-9-7.16-4.8-15.83-6.49-24.45-8.17-7.22-1.4-14.39-2.91-20.93-6.06h0l-2.25,2.47h0c.22,1.31,2,2.77.6,3.83s-3-.34-4.44-.8a71.6,71.6,0,0,0-21.45-3.22c-10.76-.12-21.42,1.08-32.71,1.45a.69.69,0,0,0-.07.15c3.82,2.34,7.77,2.87,11.64,3.6,4.28.81,8.51,1.71,12,4.21.73.53,1.41,1.12,2.68,2.13-12-1.36-23.4-1.39-34.28-4.63-5.35-1.6-11-1.65-16.58-2.19-5.07-.5-10.05-1.26-14.49-3.63a19.49,19.49,0,0,1-5.82-4.7c-3.06-3.63-6.94-4.17-11.36-1.6a7.23,7.23,0,0,1-1,.39,4.12,4.12,0,0,0,2.52.8,10.68,10.68,0,0,1,9.73,5.84c1.43,2.56,2.37,5.32,4.23,7.69.81,1,0,1.39-.88,1.68a6.21,6.21,0,0,1-3.42-.12c-1.22-.31-2.48-.39-3.14.55s.57,1.66,1.19,2.33c2.39,2.59,5.64,4.19,9,5.71,3.06,1.4,6.08,2.87,9.08,4.38a5.61,5.61,0,0,1,2.64,2.07,14.86,14.86,0,0,1-9.1-.18c-3.2-.93-6.35-2-9.57-2.85a17.15,17.15,0,0,1-8.57-5.28c-2.54-2.91-3.71-3.08-7.39-1.27a8.5,8.5,0,0,1-2.9,1.12h0c-3.62,2.45-5.2,6-6.78,10.1a14.5,14.5,0,0,0-8.25-6.24c-20.49-6-41.15-11.42-62.79-13.35a138.52,138.52,0,0,0-29.57.15c-7.61.95-13.81-.87-18.81-6-5.53-5.64-13.25-7.46-21.24-8.69-5.77-.9-11.61-1.45-17.31-2.7a21.75,21.75,0,0,0-5-.15,6.16,6.16,0,0,1-5-1.82h0A28.8,28.8,0,0,0,88,84.21l-2.18-.77h0c-1.16,0-2.5-.25-3.16.75s.17,2.09.92,2.94c3.45,4,7.07,7.73,13.11,8.94,1.69.34,3.94,1.06,3.92,2.65,0,1.32-2.21,2-3.71,2.67a12.36,12.36,0,0,1-7.56.88C76.82,99.4,63.81,97.72,52.28,92.21A50,50,0,0,0,33.5,87.48a114.82,114.82,0,0,1-14.6-1.35h0l-2.09,2.3a11.16,11.16,0,0,0,6.8,2.35c10.4.06,19.35,3.5,27.68,8.55,5.39,3.26,10.65,6.7,16.37,9.54,2,1,3,4.9,1.85,6.68-.37.58-.73.51-1.26.26-10-4.69-20.26-3.59-30.64-1.41l-6.42,1.37-.06.11c-.3.56-.95.69-1.56.93-3.49,1.36-7.16.7-10.76.84-2.72.11-5.45.16-7.93,1.35,9,.47,18.1.9,27.15,1.45a71,71,0,0,1,15.33,2.64A62.91,62.91,0,0,1,41.46,125c-13.38,1.2-26.69,0-40-1.07v-.57c0,4.25-.05,8.58-.08,13v.32c41-.19,81.92.55,122.87-.44,7.48-.18,15,.11,22.44-.39,7.89-.53,15.83-.07,23.77-.45,12.18-.58,24.4-.05,36.62-.44,14-.46,28-.13,42-.16a10,10,0,0,1,3.4.46c3.46,1.22,4,4.26,1.25,6.41a6.13,6.13,0,0,1-4,1c-53.69.24-107.39-.45-161.08.35-20.14.3-40.29.44-60.44-.26-9-.32-17.94-.19-26.91-.12,0,.15,0,.31,0,.46,0,1,0,2,0,2.93v.18c3.49-.09,7,0,10.45,0,11.21.15,22.37.67,33.53,1.48,5.66.42,11.35.5,17,1.07,2,.21,4.14,0,6.08.84a113.82,113.82,0,0,1-11.72,1.3C45.1,151.47,33.57,152,22,152.3c-6.92.18-13.85.14-20.78.07v.5c-.06,5.49-.11,11-.18,16.5v.11H190.91c4,0,8,.06,12,0,1.76,0,2.26.49,2.3,2,.07,2.25-1.68,1.74-3.08,1.74h-95q-53.08,0-106.16,0v.59q-.09,7-.17,13.87v-.48l2.52-.52h0C6.75,186.17,9.83,185,13,184a23.74,23.74,0,0,1,10.22-1c1,.15,2.76-.07,2.54,1.67h0c.49,1.92,2.38,1.85,4,1.91,3.19.12,6.39.07,9.59.09,11.31-.18,22.61-.88,33.93-.06,2.82.2,5.65.37,8.7.57-.44,1-1.37,1.32-2.12,1.76q-12.51,7.29-25.06,14.56c-.44.26-.9.5-1.32.79s-1,.57-.8,1.09.8.62,1.34.62c2.22,0,3.81,1.22,5.5,2.17,1.49.83,2,1.79.13,3-2.71,1.74-5.27,3.68-7.86,5.55-.69.5-1.76.84-.89,2a1.93,1.93,0,0,0,2.58.72c19.43-6.34,39.78-9.4,60.12-12.44,15.09-2.25,30.16-4.58,45.27-6.68,14.24-2,28.55-3.59,42.94-4.58a5.63,5.63,0,0,1,2.81.48c6.79,3,13.61,6,21,8.73-5.48,3.61-8.4,8.45-10.44,13.8a3.36,3.36,0,0,1-3.36,2.22,19.14,19.14,0,0,0-11.69,4.49l-7.28,5.78A7.31,7.31,0,0,1,187.5,233c-2,1.61-4,3.19-5.91,4.84-4.12,3.53-4.17,5.09-.41,8.59h0c3.32-.72,5.2-2.94,7.24-5.06a57.82,57.82,0,0,1,12-10.12,31,31,0,0,1,12.75-4.36,11.43,11.43,0,0,0,7.5-3.62c5.94-6.62,13.6-11.44,21.51-16,.37-.21.7-.47,1.05-.71,1.22-2.07.18-3.86-1-5.62-.38-.58-1.73-1.31-.07-1.63,1.25-.24,2.82-2.29,4,0,.79,1.54,1.19,3.21,1.89,4.79,1.67,3.73,4.16,6.77,9.1,7.6a184.85,184.85,0,0,1,38-4c5.78,0,11.58,0,17.34.38a49.48,49.48,0,0,0,23.71-4.24,11.09,11.09,0,0,1,8.36-.63,27.53,27.53,0,0,0,3.91.7h0c1.54.83,3.1-.16,4.65,0,2-.35,4-.66,6-1.07a15.37,15.37,0,0,1,7.85.61c7.65,2.41,13.55.13,16.4-6.47,1.34-3.1,2.93-6.09,4.54-9.08a2.09,2.09,0,0,1,2.21-1.23c2.85.08,5.7,0,8.76,0-1.18,4.33-6.73,5.17-9.15,8.87a.36.36,0,0,0,0,.09.7.7,0,0,1,.08.1c3.91-.76,7.44-1.52,11-2.1,10.23-1.68,20.63-2.32,30.91-3.69a173.91,173.91,0,0,0,17.67-3.43,17,17,0,0,1,6.07-.46c2.45.3,3.77,1.5,4,3.65.57,4.75-3.55,11.42-9.95,12.33-4.5.63-8.52,2.41-9.7,6.86a14.39,14.39,0,0,0-.19,4.14c.82.81.27,1.6-.06,2.4,2.62.77,4.78-.46,7-1.27,2.79-1,5.46-2.29,8.63-2,.69.06,1.55-.16,2,.46s-.36,1.11-.73,1.58c-12.19,15.46-28.42,26-49.63,30.57-2.77.6-5.27-.52-7.91-.16h0c.46.93,2.65-.34,2.38,1.28-.16.91.05,2-.78,2.76,14.26-.5,28.23-2,40.87-8.41A44.36,44.36,0,0,0,450.3,234.59Zm181.51-57.15c-31,6.23-61.94,2.74-93,0ZM438.29,145c2.29-1.61,4.95-1,7.46-.77,1.23.09,2.46.25,3.7.25,18.2,0,36.39-.16,54.58.08a262.43,262.43,0,0,1,38.6,3.23c.13,0,.24.17.53.41H540.6q-50.57,0-101.13,0c-.91,0-2.32.49-2.65-.42S437.27,145.72,438.29,145ZM194.75,127.81c-10.15,1.51-20.41,1.15-30.61.84-9.09-.27-18.13-1.56-27.22-2.09-4.5-.26-9-.9-13.51-1h82.91C202.25,127.09,198.44,127.26,194.75,127.81Zm-110,72c-3.23,2.59-7.35,3.25-11.48,3.83-1.58.22-3.17.35-4.75.52-.64.07-1.33.07-1.54-.58s.29-.92.78-1.08C73,200.68,78,198.26,84,197.74a1.47,1.47,0,0,1,1.61.6C86,199.1,85.21,199.44,84.73,199.83Zm108-41.8c9.17-3.18,18.39-1.94,27.62-.14C211.18,160.07,202,160.56,192.76,158Zm61.57-10c-.31.92-1.32.62-2.06.62-6.59,0-13.19,0-19.78,0-6.33,0-12.66,0-19,0-.95,0-2.33.43-2.39-1.09s1.27-1.15,2.27-1.2c10-.47,20-.85,30-1.47,2.56-.16,5.12-.34,7.69-.41a3.55,3.55,0,0,1,2.76,1.16A2.13,2.13,0,0,1,254.33,148Zm42.87-9.12c0-4.12-.24-4.12,4.56-4.12,5.53,0,11.06.08,16.58,0,2.2-.05,3.05.31,3.13,2.47a11.49,11.49,0,0,0,3.67,8.4c1.26,1.13.56,1.49-.61,1.9a24.14,24.14,0,0,1-9.91,1.09c-3.13.67-6.46-1-9.83,0a1.71,1.71,0,0,1-1.21-.34C300.39,145.69,297.17,143.26,297.2,138.9Zm44.27,48.16q-19,0-37.91,0c-1,0-2.05.07-2-1.24s1.25-1.06,2.17-1.06c6.31,0,12.63,0,18.95,0h0c6.23,0,12.46,0,18.69,0,.84,0,2.24-.51,2.3.81C343.74,186.73,342.72,187.07,341.47,187.06Zm3-26a10.25,10.25,0,0,1-4.89,1c-2.41-.09-5.59-.18-6.38-1.89-.51-1.11,2.75-2.57,4.58-3.56a6,6,0,0,1,7.5,1.44C346.28,159.39,346.1,160.4,344.46,161.1Zm50.76-12.71c.19-3,1.7-4.34,5.06-4.34,2,0,3.92-.05,5.87,0,1.7.05,2.58.65,2.23,2.36a45.72,45.72,0,0,0-.44,5.39c-3.44-1.95-7-1.25-10.39-1.26C395.6,150.56,395.12,149.93,395.22,148.39Z"/><path class="cls-8" d="M55.69,66.14C71.82,65.71,84,72.55,95,81.6c1.66,1.36,3.2,2.84,4.89,4.35-1.83.65-4,.12-5.7,1.14h0a6.16,6.16,0,0,0,5,1.82,21.75,21.75,0,0,1,5,.15c5.7,1.25,11.54,1.8,17.31,2.7,8,1.23,15.71,3,21.24,8.69,5,5.11,11.2,6.93,18.81,6a138.52,138.52,0,0,1,29.57-.15c21.64,1.93,42.3,7.35,62.79,13.35,4.71-.49,4.77-.63,2.11-4.12-4.11-5.37-9.88-9-16.52-11.7-13.85-5.63-28.59-8.86-43.35-12l-4.91-1.07h0l-35.48-4.44a.08.08,0,0,0,0,0c.07.21-.1,0-.08,0l-.29,0a101.32,101.32,0,0,1,42.36,2.25c8.86,2.47,18.25,2.42,27.22,4.26,12.6,2.6,23.82,7.55,32.46,16.17a16.11,16.11,0,0,0,10.65,5.1c1.92.13,1.64.8.85,1.78h0a8.5,8.5,0,0,0,2.9-1.12c3.68-1.81,4.85-1.64,7.39,1.27a17.15,17.15,0,0,0,8.57,5.28c3.22.88,6.37,1.92,9.57,2.85a14.86,14.86,0,0,0,9.1.18,5.61,5.61,0,0,0-2.64-2.07c-3-1.51-6-3-9.08-4.38-3.33-1.52-6.58-3.12-9-5.71-.62-.67-1.88-1.35-1.19-2.33s1.92-.86,3.14-.55a6.21,6.21,0,0,0,3.42.12c.87-.29,1.69-.65.88-1.68-1.86-2.37-2.8-5.13-4.23-7.69a10.68,10.68,0,0,0-9.73-5.84,4.12,4.12,0,0,1-2.52-.8,7.23,7.23,0,0,0,1-.39c4.42-2.57,8.3-2,11.36,1.6a19.49,19.49,0,0,0,5.82,4.7c4.44,2.37,9.42,3.13,14.49,3.63,5.56.54,11.23.59,16.58,2.19,10.88,3.24,22.29,3.27,34.28,4.63-1.27-1-1.95-1.6-2.68-2.13-3.48-2.5-7.71-3.4-12-4.21-3.87-.73-7.82-1.26-11.64-3.6l-.23-.14h.3c11.29-.37,21.95-1.57,32.71-1.45A71.6,71.6,0,0,1,387,101.34c1.44.46,3.12,1.82,4.44.8s-.38-2.52-.6-3.83h0c-4.1-2.16-5.32-6-7.38-9.38h0c-4.77-2.44-10.14-3.62-15.19-5.48A49.63,49.63,0,0,1,356,77.05c10.84,1.65,19.82,5.62,28.6,10A16.08,16.08,0,0,1,390,91.54c.65.79,1.24,1.6,1.82,2.43l1.29,1.87h0c6.54,3.15,13.71,4.66,20.93,6.06,8.62,1.68,17.29,3.37,24.45,8.17,6.85,4.59,14.61,7.22,22.89,9,13.08,2.86,26.44,4.15,39.79,5.5,3.78.39,7.55.9,11.33,1.35-4.4-2-8.08-4.64-11.91-7.13-3.15-2-6.42-4-10.31-4.72-2.14-.42-4.3-.48-3.55-3.22.17-.67-.51-1.29-1-1.83-3.56-3.84-6.87-7.86-11-11.3C465.87,90.3,455,86.36,443.05,84.42a14.46,14.46,0,0,1-8.85-4.78c-4-4.54-5.38-9.93-6.87-16,0-.12-.07-.25-.1-.38.1.1.2.19.29.29,6.28,6.23,13.94,9.3,22.09,11.67,5.39,1.57,10.87,3,16.1,4.92,4.28,1.61,7.5,4.08,9.19,7.92.45,1,1,2,1.54,2.94,3,6,8.24,8.85,15.81,8.59a52.94,52.94,0,0,1,13.82.82c13.23,3,25.53,8.11,38.19,12.4,9.1,3.08,17.67,7.29,27.2,9.46,1.14.26,2.66,1.15,3.46.25,1-1.12.53-2.66-.2-4a15.39,15.39,0,0,0-3.37-3.57c-1.11-1-2.29-2-2.67-3.38h0c-4-3.29-7.79-6.73-11.53-10.26S549.73,94.23,546,90.57c1.93-.59,3.4.06,4.84.42a33.66,33.66,0,0,1,11.74,5.78c.74.54,1.59,1,2.39,1.46h0c1.95.14,3.91.23,5.85.42,14.26,1.42,27.1,5.52,37.66,14.35,5.75,4.8,13.51,5.57,21.16,7.16-.27-.51-.3-.68-.42-.77-17.35-12.68-27.74-30-40.6-45.65-.7-.86-1.16-1.94,0-2.69s1.52.46,2.08.93c18.15,15.58,38.14,29.22,59,42a51.29,51.29,0,0,0,6.08,3.24h0q0-13.36.16-26.72l0,0A31.16,31.16,0,0,0,651.09,88c-8-3-14.85-7.75-22.33-11.54-10.79-5.48-21.61-11-31.53-17.71-6.65-4.52-13.58-8.75-20-13.5Q561.84,33.9,546.53,22.52c-1.93-1.43-4-2.38-6.55-1s-2.66,3.49-2.11,5.72A25.76,25.76,0,0,0,539,30.3c1.17,3.06,2.44,6.1,3.53,9.19,3.64,10.35,8.31,20.26,15.47,29.23,2.42,3,4,6.53,7,9.28-4.36-3-9.24-5.23-12.91-8.83a111.24,111.24,0,0,0-15.49-12.7c-7.51-5.07-13-11.36-15.46-19.43a9.92,9.92,0,0,0-2.8-4.67,5,5,0,0,0-8,1.51,10,10,0,0,0-.53,4.57c.36,6.79,1.83,13.44,3.31,20.1,1.37,6.18,2,12.49,5,18.32a7.65,7.65,0,0,1,.34,2c.3,1.57-.31,2.19-2.27,2.12-10-.33-19-3-26.22-9a34.19,34.19,0,0,0-13.85-6.59c-10.51-2.63-21.06-5.14-30.5-10.17C435.6,49.9,425,45.41,414.29,41a22.88,22.88,0,0,0-7.53-2.19c-2.06-.1-4.34-.12-5.37,1.8s.23,3.67,1.93,4.87a47.53,47.53,0,0,0,6,3.44,9.15,9.15,0,0,1,5.2,7.15c.22,1.45.35,2.91.46,4.37.36,4.57.4,4.42-4.76,3.14-9.1-2.25-17.53-6-26.31-8.89a14.82,14.82,0,0,1-7.21-4.87c-4.74-5.93-12-8.57-19.72-7.74A66.76,66.76,0,0,0,333.89,49c-1,.51-2.05.94-1.91,2.22s1.06,1.88,2.25,2.35a15.57,15.57,0,0,0,9.14.87c8.37-1.81,16.12-.56,23.8,2.64,4.32,1.8,8.57,3.74,13,5.38a163.65,163.65,0,0,1,26.2,12.85,33,33,0,0,0,6.3,3,136.32,136.32,0,0,1,13.8,6c-8.52-.31-16.76-2.35-25.28-2.25-.86,0-1.6-.48-1.41-1.35.33-1.45-.79-1.6-1.95-1.92a120.43,120.43,0,0,0-13.74-2.84c-6.55-1-12.38-3.83-18.68-5.36-9.67-2.35-19.45-4.3-28.87-7.44-7.59-2.53-15.94-3.18-23.19-6.69a5,5,0,0,0-2.62-.17,49.92,49.92,0,0,1-12.52-.47c-6.68-1.2-13.2-1.89-19,2.28-.82.59-1.73,1.08-2.61,1.6-4.45,2.68-9.38,3.7-14.44,2-5.85-2-11.86-3.75-17.07-7-5.69-3.51-11.71-6.56-18.55-7.95-6-1.22-12.21-2-18.35-2.79a10.14,10.14,0,0,0-5.68,1c-2.37,1.13-2.65,2.54-.8,4.19a25,25,0,0,0,5.77,3.72,60.49,60.49,0,0,0,10,3.75,55.12,55.12,0,0,1,13.41,6.09,20.31,20.31,0,0,1,8.64,9.68l-2.11-1.72a47.43,47.43,0,0,0-15.29-8.29,7.59,7.59,0,0,0-5.47,0c-1.58.72-2.17,2.27-2.11,4.28-4.71-2.92-9.89-3.56-15.1-4.17a16.86,16.86,0,0,1-6-1.79,31.46,31.46,0,0,0-7.12-2.55q-16.49-4.29-33-8.5a275.51,275.51,0,0,1-30.41-9.31c-2.79-1.06-5.49-2.25-5.91-5.43.73,0,1.35,0,2,0,6.1.23,11.94,1.61,17.81,2.89,4.89,1.07,8.22,0,10.67-3.11-7,.72-13.57-.4-20.11-2a15,15,0,0,0-9.9.73,1.64,1.64,0,0,1-1.7.07c-2.09-1.2-4.54-1.32-6.93-1.42a39.39,39.39,0,0,1-18.26-5.24c-1.56-.89-3.16-1.74-4.69-2.66C76.31,18.37,66.08,13.5,57.61,6.37,52,1.68,44.42.57,36.86,0A4.52,4.52,0,0,0,32,3.21c-.76,1.89.24,3.3,2,4.38a31.58,31.58,0,0,0,5.28,3.12c7.71,3,12.42,8.33,16,14.62C56.3,27.24,57.83,29,58,31.25a5.71,5.71,0,0,0,2.62,4.62c3.63,2.31,5.61,5.72,8.11,8.77C69.87,46,71.64,48,70.48,49.17c-1.34,1.41-3.82.16-5.68-.5s-3.35-1.45-5.08-2a4.41,4.41,0,0,0-5.21,1.21c-1.35,1.64-1,3.21.37,4.64,1,1,2.14,1.86,3.22,2.77s2.45,2,3.64,3.06c.7.61,1.34,1.31,1,2.25s-1.52,1-2.4,1c-1.86.11-3.74.09-5.61,0a14.55,14.55,0,0,0-7.45,1.42C49.33,65.65,52.7,66.21,55.69,66.14ZM471,104.63c-4.38,1.36-8.36,0-10-3.46a22.78,22.78,0,0,1-1.41-3.93c-.5-1.85-.84-3.73-1.25-5.59C463.29,95.62,464.6,101.86,471,104.63Z"/><path class="cls-9" d="M406.89,244.67c21.21-4.58,37.44-15.11,49.63-30.57.37-.47,1.16-.92.73-1.58s-1.27-.4-2-.46c-3.17-.25-5.84,1-8.63,2-2.21.81-4.37,2-7,1.27-5.47,4.62-12.37,6.39-19.67,7.32a70.91,70.91,0,0,1-8,.58,4.09,4.09,0,0,0-.47.23,1.49,1.49,0,0,1,.27-.23c-.36,0-.72,0-1.08,0l22.1-7.12c1.74-.57,3.47-1.19,5.23-1.69.93-.26,1.65-.57,1.72-1.5a14.39,14.39,0,0,1,.19-4.14c1.18-4.45,5.2-6.23,9.7-6.86,6.4-.91,10.52-7.58,9.95-12.33-.26-2.15-1.58-3.35-4-3.65a17,17,0,0,0-6.07.46,173.91,173.91,0,0,1-17.67,3.43c-10.28,1.37-20.68,2-30.91,3.69-3.57.58-7.1,1.34-11,2.1l-.27.05.15-.24c2.42-3.7,8-4.54,9.15-8.87-3.06,0-5.91,0-8.76,0a2.09,2.09,0,0,0-2.21,1.23c-1.61,3-3.2,6-4.54,9.08-2.85,6.6-8.75,8.88-16.4,6.47a15.37,15.37,0,0,0-7.85-.61c-2,.41-4,.72-6,1.07-14.17,18.65-36,22.65-56.7,16.37a43.66,43.66,0,0,1,13.31-.83A43.26,43.26,0,0,0,337.39,212c3.52-2.36,7-4.73,10.53-7.09.45-.3.84-.58.58-1.14h0a27.53,27.53,0,0,1-3.91-.7,11.09,11.09,0,0,0-8.36.63A49.48,49.48,0,0,1,312.52,208c-5.76-.4-11.56-.42-17.34-.38a184.85,184.85,0,0,0-38,4c-2.35,1.24-4.74,2.41-7,3.73a13.93,13.93,0,0,0-6.76,8c-1.25,4-3.28,5.36-8.18,5.42a20.77,20.77,0,0,1-4.56-.33c6.81-2.62,8.88-8,11.2-13.23a18.81,18.81,0,0,1,6.08-8,8.37,8.37,0,0,0-4.7-.75c-.35.24-.68.5-1.05.71-7.91,4.6-15.57,9.42-21.51,16a11.43,11.43,0,0,1-7.5,3.62,31,31,0,0,0-12.75,4.36,57.82,57.82,0,0,0-12,10.12c-2,2.12-3.92,4.34-7.24,5.06h0c-1.73,1.87-4.3,3-5.9,5-2.59,3.22-1.46,5.78,2.93,6.64a10.52,10.52,0,0,0,4.22,0,62.06,62.06,0,0,1,6.82-1.08c8.78-.86,17.71-1.07,25.84-4.65a9.44,9.44,0,0,1,1.52-.41c10.6-2.55,21.4-2.94,32.3-2.29,3.35.2,6.62-.09,9.25-2.2a19.82,19.82,0,0,1,9.2-4c6.19-1.08,12.42-1.92,18.57-3.21,15.49-3.22,31.25-5.23,47-7.24a39.59,39.59,0,0,1,13.3,0c-3.81,2.24-7.84,2.83-11.87,3.1a35.56,35.56,0,0,0-19.07,7c-2,1.47-3.44,1.81-5.55.81a43.83,43.83,0,0,0-7.77,0,34.22,34.22,0,0,0-12.42,3,8.14,8.14,0,0,0-3.78,3.13,1.59,1.59,0,0,0,0,1.95c.45.54,1.14.16,1.72.07a53.19,53.19,0,0,1,10.76-1.21c3.27-.46,6.59.11,9.86-.3,5.72-.65,10.29,1.79,14.11,4.82a37.16,37.16,0,0,0,7.7,4.53,14.67,14.67,0,0,0,12.24.41c3.14-1.25,6.25-2.6,9.48-3.64,7.47-2.41,15.17-4.32,21.74-8.47a8.42,8.42,0,0,1,3.16-1.17c7.45-1,14.81-2.65,22.43-2.53h0C401.62,244.15,404.12,245.27,406.89,244.67Z"/><path class="cls-9" d="M192.82,231.22l7.28-5.78A19.14,19.14,0,0,1,211.79,221a3.36,3.36,0,0,0,3.36-2.22c2-5.35,5-10.19,10.44-13.8-7.35-2.74-14.17-5.71-21-8.73a5.63,5.63,0,0,0-2.81-.48c-14.39,1-28.7,2.6-42.94,4.58-15.11,2.1-30.18,4.43-45.27,6.68-20.34,3-40.69,6.1-60.12,12.44a1.93,1.93,0,0,1-2.58-.72c-.87-1.16.2-1.5.89-2,2.59-1.87,5.15-3.81,7.86-5.55,1.85-1.19,1.36-2.15-.13-3-1.69-.95-3.28-2.17-5.5-2.17-.54,0-1.16-.14-1.34-.62s.4-.81.8-1.09.88-.53,1.32-.79q12.54-7.27,25.06-14.56c.75-.44,1.68-.76,2.12-1.76-3-.2-5.88-.37-8.7-.57-11.32-.82-22.62-.12-33.93.06L.78,193.34V193C.52,213.7.23,233,0,248.11L.79,248A55.05,55.05,0,0,0,15,243.35c2.69-1.25,5.4-2.48,8.32-3.82-.63,3.42.36,4.59,3.9,5a18.7,18.7,0,0,0,2.12.13,35.64,35.64,0,0,0,10.51-1.47c6.69-1.93,14-2,20.48-4.05,22.12-6.93,45.17-10.49,67.94-15,14.13-2.83,28.44-4.93,42.46-8.16a13.2,13.2,0,0,1,8,.23,23.53,23.53,0,0,1-12.75,6.05c-4.72.78-9.46,1.46-14.21,2.09-12.45,1.68-24.33,5.3-36.46,8-14.72,3.29-29,8-43.49,11.89-8.64,2.31-16.93,5.11-24.28,9.8-1.55,1-2.86,2-2.52,3.7s1.8,2.95,4,3.13a11.92,11.92,0,0,0,2.38.1A50.15,50.15,0,0,0,61,259c14-4.68,28.36-8.55,42.81-12.06,9-2.2,18-4.8,27.47-5.56,4.86-.4,9.51-2,14.48-1.91,5.86,0,11.76.27,17.48-1.39a7,7,0,0,1,3.43.09A12.43,12.43,0,0,0,178,236a13,13,0,0,1,9.5-3A7.31,7.31,0,0,0,192.82,231.22Z"/><path class="cls-10" d="M31.07,115.77h.12l6.42-1.37c10.38-2.18,20.69-3.28,30.64,1.41.53.25.89.32,1.26-.26,1.12-1.78.19-5.68-1.85-6.68-5.72-2.84-11-6.28-16.37-9.54C43,94.28,34,90.84,23.61,90.78a11.16,11.16,0,0,1-6.8-2.35h0c-2.94-.76-4.63-2.69-6.11-4.82-.95-1.38-1.92-2.74-3.08-4.39,5.67.38,8,4.21,11.28,6.91h0a114.82,114.82,0,0,0,14.6,1.35,50,50,0,0,1,18.78,4.73c11.53,5.51,24.54,7.19,37.07,10.06a12.36,12.36,0,0,0,7.56-.88c1.5-.64,3.68-1.35,3.71-2.67,0-1.59-2.23-2.31-3.92-2.65-6-1.21-9.66-5-13.11-8.94-.75-.85-1.65-1.84-.92-2.94s2-.8,3.16-.75C75.42,78.27,65.32,72.5,52.77,71.81a23.34,23.34,0,0,1-9.62-3.13c-1.89-1-3.72-2.1-5.5-3.24s-4.37-2-3.22-4.71a27.44,27.44,0,0,0-6.37-1.53c-8.86-.65-17.66-1.67-26.43-3L1,56.14c.5,12.67.61,34.09.52,58.81h0a82.5,82.5,0,0,0,10.19.82C18.15,115.88,24.61,115.78,31.07,115.77Z"/><path class="cls-11" d="M37.65,65.44c1.78,1.14,3.61,2.23,5.5,3.24a23.34,23.34,0,0,0,9.62,3.13c12.55.69,22.65,6.46,33.06,11.63h0l2.18.77a28.8,28.8,0,0,1,6.21,2.88h0c1.7-1,3.87-.49,5.7-1.14-1.69-1.51-3.23-3-4.89-4.35-11-9-23.21-15.89-39.34-15.46-3,.07-6.36-.49-8.39-3.07a6.9,6.9,0,0,1-3.08-.61,20.88,20.88,0,0,0-9.79-1.73h0C33.28,63.42,35.83,64.28,37.65,65.44Z"/><path class="cls-12" d="M324.17,10.66a118.16,118.16,0,0,0,12.09,5.84c5.85,2.64,11.61,5.38,15.94,9.87a3.18,3.18,0,0,1,1.2,2.23c-.07,4.15,1,5.38,6,7.15a24.45,24.45,0,0,0-.33-6.61c-1.55-6.29-6.38-10.31-12.45-13.43-6.28-3.23-13.12-5.43-19.77-8a3.8,3.8,0,0,0-1.54-.23c-1.14.07-2.63,0-3.06,1C321.8,9.66,323.28,10.13,324.17,10.66Z"/><path class="cls-13" d="M280.34,253.54c-2.47-1.43-4.53-.4-6.28.9-2.44,1.81-4.64,1.5-7,0a28.74,28.74,0,0,0-3.52-2.07c-.89-.38-2.16-1.38-2.94,0a2,2,0,0,0,1,3c2.34,1.25,4.57,2.64,6.82,4a4.45,4.45,0,0,0,2.74.89,37.83,37.83,0,0,0,9.51-3.8C281.92,255.76,282,254.49,280.34,253.54Z"/><path class="cls-14" d="M158.12,280.09c-1.78,0-3.56,0-5.34-.08-4.7-.13-9.4-.35-14.07.5-1.56.28-2.49.75-2.1,2.26h0l.06.38c7.91.71,15.78-.34,23.68-.36,1.39,0,1.06-.84.71-1.43C160.48,280.35,159.34,280.11,158.12,280.09Z"/><path class="cls-15" d="M41.46,125a62.91,62.91,0,0,0,11.9-1.91A71,71,0,0,0,38,120.45c-9-.55-18.1-1-27.15-1.45a86.3,86.3,0,0,1-9.38-.71v.34c0,1.56,0,3.14,0,4.73v.57C14.77,125,28.08,126.2,41.46,125Z"/><path class="cls-16" d="M39.36,186.67c-3.2,0-6.4,0-9.59-.09-1.61-.06-3.5,0-4-1.91h0c-5.06.79-9.58,3.06-14.57,4-2.87.52-5.81.34-7.83-2h0l-2.52.52v.48c0,1.81,0,3.61-.07,5.4v.33Z"/><path class="cls-17" d="M268.12,114a16.11,16.11,0,0,1-10.65-5.1c-8.64-8.62-19.86-13.57-32.46-16.17-9-1.84-18.36-1.79-27.22-4.26a18.37,18.37,0,0,0-5.18.53c-.9.26-2,.51-1.34,1.71l4.91,1.07c14.76,3.18,29.5,6.41,43.35,12,6.64,2.71,12.41,6.33,16.52,11.7,2.66,3.49,2.6,3.63-2.11,4.12a14.5,14.5,0,0,1,8.25,6.24c1.58-4.1,3.16-7.65,6.78-10.1h0C269.76,114.79,270,114.12,268.12,114Z"/><path class="cls-18" d="M439.47,148.18q50.56,0,101.13,0h2.56c-.29-.24-.4-.39-.53-.41a262.43,262.43,0,0,0-38.6-3.23c-18.19-.24-36.38-.07-54.58-.08-1.24,0-2.47-.16-3.7-.25-2.51-.19-5.17-.84-7.46.77-1,.72-1.85,1.74-1.47,2.76S438.56,148.17,439.47,148.18Z"/><path class="cls-19" d="M304.79,148.6c3.37-1,6.7.67,9.83,0a24.14,24.14,0,0,0,9.91-1.09c1.17-.41,1.87-.77.61-1.9a11.49,11.49,0,0,1-3.67-8.4c-.08-2.16-.93-2.52-3.13-2.47-5.52.12-11,0-16.58,0-4.8,0-4.53,0-4.56,4.12,0,4.36,3.19,6.79,6.38,9.36A1.71,1.71,0,0,0,304.79,148.6Z"/><path class="cls-20" d="M631.81,177.44h-93C569.87,180.18,600.85,183.67,631.81,177.44Z"/><path class="cls-21" d="M347.92,204.93c-3.51,2.36-7,4.73-10.53,7.09a43.26,43.26,0,0,1-27.63,7.34,43.66,43.66,0,0,0-13.31.83c20.72,6.28,42.53,2.28,56.7-16.37-1.55-.19-3.11.8-4.65,0h0C348.76,204.35,348.37,204.63,347.92,204.93Z"/><path class="cls-22" d="M247.91,207.23a18.81,18.81,0,0,0-6.08,8c-2.32,5.23-4.39,10.61-11.2,13.23a20.77,20.77,0,0,0,4.56.33c4.9-.06,6.93-1.37,8.18-5.42a13.93,13.93,0,0,1,6.76-8c2.28-1.32,4.67-2.49,7-3.73-4.94-.83-7.43-3.87-9.1-7.6-.7-1.58-1.1-3.25-1.89-4.79-1.17-2.28-2.74-.23-4,0-1.66.32-.31,1.05.07,1.63,1.15,1.76,2.19,3.55,1,5.62A8.37,8.37,0,0,1,247.91,207.23Z"/><path class="cls-23" d="M136.92,126.56c9.09.53,18.13,1.82,27.22,2.09,10.2.31,20.46.67,30.61-.84,3.69-.55,7.5-.72,11.57-2.21H123.41C127.93,125.66,132.42,126.3,136.92,126.56Z"/><path class="cls-24" d="M550.83,91c-1.44-.36-2.91-1-4.84-.42,3.74,3.66,7.42,7.28,11.16,10.81s7.54,7,11.53,10.26h0c2-1.67,4.44-2,7.06-1.89-2.37-1.19-4.77-2.35-7.12-3.58a17.14,17.14,0,0,1-2.28-1.58c-.6-.47-1.22-1-.94-1.77s1.15-.88,2-.9l1.87,0A19.77,19.77,0,0,1,565,98.23h0c-.8-.48-1.65-.92-2.39-1.46A33.66,33.66,0,0,0,550.83,91Z"/><path class="cls-25" d="M251.1,144.47c-2.57.07-5.13.25-7.69.41-10,.62-20,1-30,1.47-1,.05-2.34-.31-2.27,1.2s1.44,1.09,2.39,1.09c6.32,0,12.65,0,19,0,6.59,0,13.19,0,19.78,0,.74,0,1.75.3,2.06-.62a2.13,2.13,0,0,0-.47-2.39A3.55,3.55,0,0,0,251.1,144.47Z"/><path class="cls-26" d="M473.9,235.15c-1.69,1.36-3.94,1.75-5.95,2.53a194.73,194.73,0,0,0-32.15,16.39,44.16,44.16,0,0,1,6-2.81c10.1-4.4,20.23-8.74,30.34-13.13a8.65,8.65,0,0,1,3.51-1C474.86,236.61,474,236.14,473.9,235.15Z"/><path class="cls-27" d="M565.4,102.82c-.28.74.34,1.3.94,1.77a17.14,17.14,0,0,0,2.28,1.58c2.35,1.23,4.75,2.39,7.12,3.58,3.74-.35,7.12,1.06,10.67,1.63,3,.47,4.69.38,6.54-.54-4-2.83-8.74-4-13.48-5.22-3.56-.93-7.16-1.78-10.22-3.72l-1.87,0C566.55,101.94,565.68,102.05,565.4,102.82Z"/><path class="cls-28" d="M341.39,184.8c-6.23-.05-12.46,0-18.69,0h0c-6.32,0-12.64,0-18.95,0-.92,0-2.09-.28-2.17,1.06s1,1.24,2,1.24q18.94,0,37.91,0c1.25,0,2.27-.33,2.22-1.45C343.63,184.29,342.23,184.8,341.39,184.8Z"/><path class="cls-29" d="M397.55,150.56c3.41,0,6.95-.69,10.39,1.26a45.72,45.72,0,0,1,.44-5.39c.35-1.71-.53-2.31-2.23-2.36-1.95-.07-3.91,0-5.87,0-3.36,0-4.87,1.37-5.06,4.34C395.12,149.93,395.6,150.56,397.55,150.56Z"/><path class="cls-30" d="M192.76,158c9.21,2.53,18.42,2,27.62-.14C211.15,156.09,201.93,154.85,192.76,158Z"/><path class="cls-31" d="M438,214.47c-1.76.5-3.49,1.12-5.23,1.69l-22.1,7.12c.36,0,.72,0,1.08,0h.2a70.91,70.91,0,0,0,8-.58c7.3-.93,14.2-2.7,19.67-7.32.33-.8.88-1.59.06-2.4C439.66,213.9,438.94,214.21,438,214.47Z"/><path class="cls-32" d="M11.21,188.63c5-.9,9.51-3.17,14.57-4h0c.22-1.74-1.5-1.52-2.54-1.67A23.74,23.74,0,0,0,13,184c-3.19.95-6.27,2.17-9.64,2.61h0C5.4,189,8.34,189.15,11.21,188.63Z"/><path class="cls-33" d="M337.77,156.65c-1.83,1-5.09,2.45-4.58,3.56.79,1.71,4,1.8,6.38,1.89a10.25,10.25,0,0,0,4.89-1c1.64-.7,1.82-1.71.81-3A6,6,0,0,0,337.77,156.65Z"/><path class="cls-34" d="M84,197.74c-6,.52-11,2.94-16.27,4.78-.49.16-.95.56-.78,1.08s.9.65,1.54.58c1.58-.17,3.17-.3,4.75-.52,4.13-.58,8.25-1.24,11.48-3.83.48-.39,1.3-.73.89-1.49A1.47,1.47,0,0,0,84,197.74Z"/><path class="cls-35" d="M391.83,94c-.58-.83-1.17-1.64-1.82-2.43a16.08,16.08,0,0,0-5.45-4.45c-1.38.17-1,1.1-1.07,1.84h0c2.06,3.36,3.28,7.22,7.38,9.38h0l2.25-2.47h0Z"/><path class="cls-36" d="M10.7,83.61c1.48,2.13,3.17,4.06,6.11,4.82h0l2.09-2.3h0c-3.27-2.7-5.61-6.53-11.28-6.91C8.78,80.87,9.75,82.23,10.7,83.61Z"/><path class="cls-37" d="M192.61,89a18.37,18.37,0,0,1,5.18-.53,101.32,101.32,0,0,0-42.36-2.25l.29,0h.07l35.48,4.44h0C190.64,89.5,191.71,89.25,192.61,89Z"/><path class="cls-38" d="M384.56,87.09c-8.78-4.42-17.76-8.39-28.6-10a49.63,49.63,0,0,0,12.34,6.4c5.05,1.86,10.42,3,15.19,5.48h0C383.55,88.19,383.18,87.26,384.56,87.09Z"/><path class="cls-39" d="M461,101.17c1.66,3.44,5.64,4.82,10,3.46-6.43-2.77-7.74-9-12.68-13,.41,1.86.75,3.74,1.25,5.59A22.78,22.78,0,0,0,461,101.17Z"/><path class="cls-9" d="M656.1,232.71q-.15-11.72-.23-23.42h0a56.85,56.85,0,0,1-13.42,4.36,16.78,16.78,0,0,1-13.15-3.11c-3.21-2.22-5.61-4.6-4.61-8.81.77-3.25-1.38-4.47-5.25-3.52-9.82,2.43-19.64,4.86-29,8.51-13.85,5.41-27.36,11.47-41.52,16.32-23.56,8.08-47.73,13.78-73.29,14.11h0a8.65,8.65,0,0,0-3.51,1c-10.11,4.39-20.24,8.73-30.34,13.13a44.16,44.16,0,0,0-6,2.81A194.73,194.73,0,0,1,468,237.68c2-.78,4.26-1.17,5.95-2.53,6.91-2.22,13.88-4.34,20.72-6.7,16.94-5.85,33.42-12.66,50.78-17.58,5.39-1.54,10.89-2.79,16.35-4.17a203.49,203.49,0,0,0-31.81,3.3c-19,3.32-37.31,8.54-55.88,13.1-8.95,2.2-17,5.76-23.76,11.49a44.36,44.36,0,0,1-8.85,5.55c-12.64,6.39-26.61,7.91-40.87,8.41-2.63.56-4.49,2.13-6.37,3.67-5.46,4.46-9.4,10-14.65,14.67a16.34,16.34,0,0,0-2.13,2.36c-1,1.25-1.25,2.58-.07,3.85a4.37,4.37,0,0,0,4.77,1.17c1.16-.33,2.14-1.27,3.68-1-.89,1.73-2.34,2.89-3.49,4.25a27,27,0,0,0-2.88,3.59c-2.05,3.53.78,7.58,5.35,7.87a14.47,14.47,0,0,0,6.71-1.22c7.44-3.15,15.26-5.51,22.83-8.37,23.4-8.84,47.71-15.61,71.67-23.15,11.74-3.7,24.06-6,36.12-9,4.35-1.07,8.69-2.2,13.61-3.45-3.76,3.47-3.18,5.7,1.19,6.7,1.33.31,2.71.46,4.36.73-2,.33-3.75.57-5.48.89-9.83,1.78-16,8.54-23.94,13a1.45,1.45,0,0,0-.17.18,3.24,3.24,0,0,0-.51,3.91,3.92,3.92,0,0,0,3.5,2.16,9,9,0,0,0,5.56-1.25c6.24-3.69,13.25-5.2,20.68-5.34s15,.18,22.44-.24c8.39-.47,16.71-1.79,23.45-6.59,4.13-2.94,8.42-5.67,12.66-8.47,4.84-3.19,10.53-5,15.7-8,.1,4.27,4.34,7.08,8.73,5.92,5.78-1.53,11.56-3.08,17.26-4.82a48.42,48.42,0,0,0,14.93-7.19C656.1,234.12,656.11,233.18,656.1,232.71Zm-85,12a26,26,0,0,1-21.41,5.93c8.12-1.28,13.56-6,19-10.78,3.66-3.18,8.21-5,13.23-6C577.8,237.16,575.08,241.43,571.12,244.74Z"/></g></g></svg>