<?xml version="1.0" encoding="utf-8"?>
<!-- Generator: Adobe Illustrator 21.0.0, SVG Export Plug-In . SVG Version: 6.00 Build 0)  -->
<svg version="1.1" id="Layer_1" xmlns="http://www.w3.org/2000/svg" xmlns:xlink="http://www.w3.org/1999/xlink" x="0px" y="0px"
	 viewBox="0 0 400 400" style="enable-background:new 0 0 400 400;" xml:space="preserve">
<style type="text/css">
	.st0{fill:#7B0838;}
	.st1{fill:#4A646E;}
	.st2{fill:#97C6DB;}
	.st3{fill:#C71111;}
	.st4{fill:#F8FCFB;}
	.st5{fill:#09158E;}
	.st6{fill:#132DD1;}
	.st7{fill:#0A4D30;}
	.st8{fill:#127E31;}
	.st9{fill:#C58524;}
	.st10{fill:#F8F456;}
	.st11{fill:#AC2BAF;}
	.st12{fill:#EC55BA;}
	.st13{fill:#B53E19;}
	.st14{fill:#F07B0C;}
	.st15{fill:#3F157C;}
	.st16{fill:#6F30BC;}
	.st17{fill:#090308;}
	.st18{fill:#7BBECB;}
	.st19{fill:#385E6A;}
	.st20{fill:#CBF6F2;}
	.st21{fill:#1E1F28;}
	.st22{fill:#42444F;}
	.st23{fill:#5E2516;}
	.st24{fill:#71481B;}
	.st25{fill:#35A6BF;}
	.st26{fill:#54F8D5;}
	.st27{fill:#13A843;}
	.st28{fill:#52EF3A;}
	.st29{fill:#8895C3;}
	.st30{fill:#D6DFF1;}
	.st31{fill:#020101;}
	.st32{fill:#49636D;}
	.st33{fill:#94C9DB;}
	.st34{fill:#FCEE21;}
	.st35{fill:#FBB03B;}
	.st36{fill:#F9F9F9;}
	.st37{fill:#F8F9F9;}
	.st38{fill:#020102;}
	.st39{fill:#4A626C;}
	.st40{fill:#94C8DA;}
	.st41{fill:#EB9BCF;}
	.st42{fill:#62BD50;}
	.st43{fill:#09580A;}
	.st44{fill:#F7F8F8;}
	.st45{fill:#F89B1F;}
	.st46{fill:#010102;}
	.st47{fill:#8494BF;}
	.st48{fill:#4A636C;}
	.st49{fill:#93C7D9;}
	.st50{fill:#D3DCED;}
	.st51{fill:#F6F8F7;}
	.st52{fill:#020201;}
	.st53{fill:#F0D504;}
	.st54{fill:#030203;}
	.st55{fill:#060404;}
	.st56{fill:#0F0605;}
	.st57{fill:#B6B8BC;}
	.st58{fill:#424345;}
	.st59{fill:#414245;}
	.st60{fill:#83D3F4;}
	.st61{fill:#A5292B;}
	.st62{fill:#F2F9F9;}
	.st63{fill:#167B9E;}
	.st64{fill:#EA352A;}
	.st65{fill:#0F0503;}
	.st66{fill:#080404;}
	.st67{fill:#6FC9F2;}
	.st68{fill:#A2282C;}
	.st69{fill:#0D7498;}
	.st70{fill:#E8F3FA;}
	.st71{fill:#D12D2B;}
	.st72{fill:#838488;}
	.st73{fill:#E7362E;}
	.st74{fill:#040404;}
	.st75{fill:#FAFBFB;}
	.st76{fill:#FDFDFD;}
	.st77{fill:#323232;}
	.st78{fill:#FCFCFC;}
	.st79{fill:#ADADAD;}
	.st80{fill:#010101;}
	.st81{fill:#573092;}
	.st82{fill:#6D3EB5;}
	.st83{fill:#55318C;}
	.st84{fill:#683FA9;}
	.st85{fill:#0E0202;}
	.st86{fill:#7ED1F6;}
	.st87{fill:#F7FCFC;}
	.st88{fill:#117CA0;}
	.st89{fill:#E32F2C;}
	.st90{fill:#AA272C;}
</style>
<g>
	<path class="st17" d="M199.9,332.3c-29.5,0.1-54.2-1.6-79-6.1C38.5,311,33.2,303.7,46.3,221.3c2.4-15.1,9.6-27.5,22.7-28.5
		c29.5-2,29.9-22.7,34.2-43.2c11.7-55.5,28.7-77.5,71.6-81c62.4-5.1,117.9,1.3,136,52.2c3.7,10.3,13.6,19.1,22.2,26.8
		c27.1,24.2,33.1,52.2,18.3,85.1c-3.8,8.3-9.1,16.3-6.6,26.1c11.3,44.4-15.2,57.5-51.6,63.2C260.7,327.1,228.6,335,199.9,332.3z"/>
	<path class="st18" d="M199.1,181.1c-2-24.5,14.8-22.5,30.6-21.8c26.5,26.7,57.6,21.6,89.2,12.9c12.1,7.9,16.5,18.7,12.5,32.7
		C278.8,239.7,224.9,230,199.1,181.1z"/>
	<path class="st19" d="M199.1,181.1c36.5,50.2,85.6,30.6,132.3,23.8c-12.2,25.4-58.1,41.1-100.2,33
		C199.2,231.7,198,206.7,199.1,181.1z"/>
	<path class="st20" d="M318.9,172.2c-34.2,30.4-70.4,25.2-89.2-12.9c6.8,0,16.2-0.2,27.4-1c23.7-1.8,32.7-4.8,44.1-0.2
		C309.6,161.5,315.3,167.4,318.9,172.2z"/>
	<g>
		<path class="st6" d="M318.5,268.1c-2.6-18-15-8.7-24.1-8c-24.7,1.8-48.9,10.4-74.1,3.5c-30.7-8.4-48.9-42.6-47.6-85.2
			c1.1-35.2,22.1-43.6,51.6-45.3c19.1-1.1,38.1-4.1,63.1-6.9C252.7,84.2,210.7,91.8,171.6,95c-30.8,2.5-36.9,30.2-42.7,54.6
			c-10.1,42.4-10.1,85.8-11,129.1c-0.3,14.8,6,20,19.9,23c56.8,12.5,112.1,4.1,167.3-9.4C318.8,289,320.1,279.2,318.5,268.1z"/>
		<path class="st6" d="M85.3,214.3c-4.4-0.6-7.6,0.2-9.8,1.8c-4.9,3.6-5.3,10.8-5.5,15.8c-1.5,34.6-4.9,48.2,2,53.2
			c3.8,2.8,7.9,2.9,7.9,2.9c0,0,3.6,0.1,7.1-1.8c9-5,3-25.1,7.3-53.3c0.5-3.6,1.6-11.1-2.4-15.5C90.5,215.8,88.4,214.7,85.3,214.3z"
			/>
	</g>
</g>
</svg>
