<svg xmlns="http://www.w3.org/2000/svg" viewBox="0 0 164.54 129.5"><defs><style>.cls-1{fill:none;}.cls-2{fill:#fff;}.cls-3{fill:#ee7212;}.cls-4{fill:#b23918;}.cls-5{fill:#e32d22;}.cls-6{fill:#b5c6d1;}.cls-7{fill:#e5ebf1;}.cls-8{fill:#b5c6d2;}</style></defs><title>Recurso 30</title><g id="Capa_2" data-name="Capa 2"><g id="Capa_1-2" data-name="Capa 1"><path class="cls-1" d="M86.91,69.64c.26-.12.5-.26.75-.39h0C87.41,69.38,87.17,69.52,86.91,69.64Z"/><path class="cls-2" d="M68.49,31.63h0v0h0Z"/><path class="cls-2" d="M156.92,117.76a5.23,5.23,0,0,1-1.61-.21c3.95-.63,8.52-.73,8.76-4.83.19-3.22-2.64-5.65-7.27-6.24-1-.14-2.33-.09-2.24-1.28s1.36-.65,2.09-.77c3.1-.5,5.4-1.71,6.67-4s.62-4-1.76-5.46c-5.45-3.35-14.81-2.18-18.73,2.34-.22.25-.25.6-.88.31-1.67-.77-1.78-1.5-.65-2.74,1.78-2,4.57-3,6.72-4.6,8.77-6.65,12.26-15,13.49-24.18A60.14,60.14,0,0,0,160.44,46a57.47,57.47,0,0,0-3.17-10.44,40.65,40.65,0,0,0-5.72,4.26A73.8,73.8,0,0,1,155,16.43c1.05-3.51-.49-5.53-5.15-6.32,3.11-2.67,6.68-4.87,10-7.36a25.91,25.91,0,0,0-4.74-.52,89.14,89.14,0,0,0-20.26.33,87.87,87.87,0,0,0-15.88,3.62c-.47.16-1,.45-1.25-.2-.88-2.31-3.25-3.73-5.23-5.41-1-.86-1.58-.68-2.44.1a21.79,21.79,0,0,1-10.49,5c-8.91,1.79-18,3-27,4-7,.77-13.76,2-20,4.71l-2.29,1c.4-1.91.75-3.6,1.14-5.44-.66.32-1.16.54-1.64.79-3.88,2-7.52,4.36-11.69,5.89-11.1,4.07-17.21,10.9-19.78,19.9a39.73,39.73,0,0,0-.69,17.65c.2,1.21.25,2.25-1.07,3.21a13.59,13.59,0,0,0-3.53,4.22,29.56,29.56,0,0,0-4,14A56.46,56.46,0,0,0,10.81,93c.21.84.16,1.36-1,1.81C4.2,96.91,1,101.5,1.53,106.27a11.5,11.5,0,0,0,4,7.87c-3.36.24-4.76,1.23-5.34,3.55C-.51,120.52.74,122.8,3,125c4.2,4,14.77,5.89,19.77,1.65.76-.64,1-.1,1.45.25,2.81,2.26,5.94,2.45,8.36.54a6.61,6.61,0,0,0,2.06-3,4.52,4.52,0,0,1,.83-2,15.6,15.6,0,0,0,1.61,2.79,7.87,7.87,0,0,0,9.68,2,1.48,1.48,0,0,1,1.54.2c6.28,3.06,11.7,2.65,17-1.29.4-.3.73-.6,1.34-.43A19.45,19.45,0,0,1,71.07,127a12.59,12.59,0,0,0,9.42,1.07,4.42,4.42,0,0,1,1.73-.16c3.17.36,6.38.1,9.54.3a22.58,22.58,0,0,0,5.88-.34c2-.39,4-.8,6,.49a4,4,0,0,0,2.71.2,5.43,5.43,0,0,0,4.27-2.74,2.73,2.73,0,0,1,2.1-1.29c1-.18.85.6,1.2.93,3.41,3.25,8.43,4,11.37.1a14.23,14.23,0,0,0,17.2.26c.53-.4.7-.16,1.06.13,3.83,3.07,11.93,4.2,16.88,2.32,2.74-1,4.23-2.78,4.16-5.13C164.44,119.81,161,117.85,156.92,117.76ZM23.3,123.48c-1.72,2.39-4.38,3.67-8,3.59-4.93-.11-8.83-1.71-11.48-5a4.8,4.8,0,0,1-.63-4.88c.4-1.19,2.3-1.67,4.15-1.17a6.63,6.63,0,0,1,3,1.88,22.84,22.84,0,0,0,1.85,1.83,3.4,3.4,0,0,0,5.32-.92,4.32,4.32,0,0,0,.05-3.62,2.16,2.16,0,0,0-2.09-1.27c-.82,0-1.65,0-2.47,0-3.22.23-5.41-.89-6.9-3C2.2,105.33,5,98.18,12,96a18.56,18.56,0,0,1,4-.69,12.53,12.53,0,0,1,5.57,1.38,4.06,4.06,0,0,1,2.21,2.8c-.28,2.62-2.06,3.61-5.36,3a15.71,15.71,0,0,0-3.29-.45c-1.86.05-3.27,1-3.46,2.24-.39,2.77,3.47,2.88,5.93,3.42a10.69,10.69,0,0,1,6.3,3.73C26.61,115.12,25.86,119.93,23.3,123.48Zm20.94,2.3A4.4,4.4,0,0,1,39.19,123c-.93-2.24-1.6-4.55-2.42-6.82-.16-.45-.1-1.11-1-1.11s-.89.68-1.05,1.12c-.79,2.33-1.5,4.67-2.27,7s-2.09,3.3-4.07,3.11c-3.78-.38-3.07-5.41-2.51-8.23.11-.51.2-1,.27-1.28a149.74,149.74,0,0,1,4.72-17,4.67,4.67,0,0,1,1.63-2.39c2.76-2.08,6.79-1.51,8.49,1.22,1.17,1.87,1.32,4,1.78,6,1.3,5.63,2.5,11.27,3.78,16.9C47.06,123.73,46.25,125.33,44.24,125.78Zm15.41.8a9.62,9.62,0,0,1-3.44.51,12,12,0,0,1-6.43-1.6c-1.82-1-2.8-2.23-2.76-4.11.13-7.06,0-14.12,0-21.17,0-2.52,2.83-4.73,6.52-5.12,8-.83,14.06,4.89,11.77,11.17a9.62,9.62,0,0,1-2.26,3.53c-.25.25-.84.51-.22.89,3.26,2,3.05,4.91,3.24,7.63C66.39,122.3,64,125.19,59.65,126.58Zm5.93-29-.26.49s0,.1-.1.09-.08-.06-.11-.09-.2-.3-.31-.44A10.72,10.72,0,0,0,61.92,95a13.81,13.81,0,0,0-3.37-1.54A16.4,16.4,0,0,0,56,92.87c-.34-.05-.68-.08-1-.11a14.18,14.18,0,0,0-1.6-.05,14.42,14.42,0,0,0-3.6.51,1.71,1.71,0,0,1-.46.1h0a.91.91,0,0,1-.3.13,12.16,12.16,0,0,0-4.19,2.35c-.19.15-.36.32-.53.48a1.12,1.12,0,0,1-.24.19.73.73,0,0,0-.23.19l-.4.48-1.18,1.31h-.1a.21.21,0,0,1,0-.06c-.08-.18-.16-.36-.25-.53a6.61,6.61,0,0,0-1.18-1.69,7.41,7.41,0,0,0-3.8-2.09,9.42,9.42,0,0,0-3-.2,11.52,11.52,0,0,0-1.56.25l-.17,0-.24.08a8.67,8.67,0,0,0-2.23,1,6.09,6.09,0,0,0-1.27,1.08A7.3,7.3,0,0,0,27.3,98a8.56,8.56,0,0,0-.47,1.14,1.07,1.07,0,0,1-.1.22.11.11,0,0,1-.07,0l-.17,0L25,99.06a.11.11,0,0,1-.08,0s-.06,0-.06-.08a1.69,1.69,0,0,1,0-.23,3.73,3.73,0,0,0-.22-1.18,5,5,0,0,0-1.28-1.93,9.13,9.13,0,0,0-3.05-1.88,14.74,14.74,0,0,0-3.84-.9A21,21,0,0,0,14,92.77h-.39a.17.17,0,0,1-.14,0,1.37,1.37,0,0,1-.26-.49c-.22-1-.46-1.94-.68-2.91-.16-.7-.3-1.41-.43-2.12-.08-.42-.14-.84-.21-1.25s-.15-.88-.22-1.32c0-.24-.07-.48-.09-.72s-.08-.71-.12-1.06-.09-.9-.14-1.36c0,0,0-.06,0-.1,0-.65-.08-1.3-.11-2,0-.46,0-.93-.05-1.39,0-.72,0-1.44,0-2.16s.07-1.26.12-1.88.15-1.44.26-2.15c.16-1,.36-2,.61-2.91a25.94,25.94,0,0,1,1-3.12,20.05,20.05,0,0,1,1.05-2.2A19.49,19.49,0,0,1,15.8,61.2,16.16,16.16,0,0,1,17.88,59a11,11,0,0,1,1.36-1l.13-.08a.2.2,0,0,1,.17,0,6.07,6.07,0,0,1,.94.41l.22.1h0a0,0,0,0,0,0,0,.16.16,0,0,0,0-.07c-.16-.49-.26-1-.39-1.49-.07-.3-.14-.61-.2-.91S20,55,19.91,54.55c-.11-.62-.21-1.25-.31-1.87,0-.24-.07-.48-.09-.73s-.09-.75-.12-1.12c-.05-.61-.09-1.21-.13-1.82,0-.2,0-.4,0-.6,0-1,0-1.94,0-2.92,0-.71.06-1.43.14-2.15,0-.38.07-.77.12-1.15s.13-.86.2-1.29.14-.78.22-1.18.18-.85.3-1.27.25-.91.39-1.36a24.09,24.09,0,0,1,1.23-3.21c.26-.56.54-1.12.84-1.67a24.62,24.62,0,0,1,1.84-2.81c.37-.49.76-1,1.17-1.43a24.3,24.3,0,0,1,2-2A25.19,25.19,0,0,1,30.12,24,28.76,28.76,0,0,1,33,22.29a35.42,35.42,0,0,1,6.35-2.62,1.67,1.67,0,0,0,.5-.25l2-1.44,1.85-1.3,1.8-1.24c.74-.5,1.48-1,2.25-1.45.14-.09.28-.16.43-.24s0,0,0,0a.2.2,0,0,1,0,.08l-.7.8c-.45.52-.9,1-1.34,1.55-.68.78-1.34,1.57-2,2.36-.41.5-.82,1-1.22,1.49l-2,2.47c-.4.51-.79,1-1.17,1.55-.51.69-1,1.39-1.49,2.09s-1,1.48-1.42,2.24c-.26.44-.49.89-.71,1.35a5.72,5.72,0,0,0-.53,1.64s0,0,0,0l.08,0s0,0,0-.06a23.2,23.2,0,0,1,2-2.65,34.81,34.81,0,0,1,3.17-3.27,39.06,39.06,0,0,1,3.42-2.78,44.11,44.11,0,0,1,5.6-3.44,49.23,49.23,0,0,1,7.14-3,56.56,56.56,0,0,1,7.3-1.87c1.19-.23,2.39-.42,3.61-.57l2.31-.26,2-.24,1.89-.21,2-.25,2.4-.29,2.31-.29,2.3-.31c.89-.12,1.77-.23,2.65-.36l2.55-.36,2.85-.43,3.14-.5c2.84-.47,5.66-1,8.46-1.59,1.2-.26,2.4-.55,3.57-.91l.2,0s0,0,.07,0l0,0a1.39,1.39,0,0,1-.21.11c-1.59.77-3.19,1.51-4.82,2.22s-3.28,1.41-5,2.07-3.59,1.37-5.44,2a41.3,41.3,0,0,1-4.34,1.16c-.55.11-1.12.21-1.67.33-1.34.28-2.65.63-4,1a87.5,87.5,0,0,0-8.44,2.93c-1.59.65-3.15,1.34-4.66,2.1-.94.48-1.86,1-2.73,1.53a12.49,12.49,0,0,0-1.58,1.18,3.54,3.54,0,0,0-.66.74l1.43,0,.64,0c1.73,0,3.46,0,5.18,0h.48a2,2,0,0,1,.38-.31,19.91,19.91,0,0,1,2.17-1.37,41.29,41.29,0,0,1,5.35-2.45,66.91,66.91,0,0,1,8-2.43l2.66-.61q3.64-.85,7.13-2c1.72-.59,3.4-1.23,5-1.94a45.64,45.64,0,0,0,5.4-2.76,24.77,24.77,0,0,0,3.09-2.18,11,11,0,0,0,1.66-1.69,5.05,5.05,0,0,0,.74-1.34s.07,0,.1,0,0,0,.06,0,.23.2.33.31a6.81,6.81,0,0,1,1.17,1.65,6.73,6.73,0,0,1,.64,1.86,7.15,7.15,0,0,1,.12,1.38c0,.06,0,.11,0,.17s.07.05.1,0l.12,0c1.51-.63,3.06-1.19,4.65-1.7a81.69,81.69,0,0,1,8.34-2.21c1.67-.35,3.36-.65,5.06-.9,1-.15,2.05-.28,3.08-.4s1.8-.19,2.71-.26l2.37-.17h.09c1.6-.08,3.2-.12,4.81-.11l1.6,0c.82,0,1.65.06,2.47.09.63,0,1.26.08,1.9.13l.07,0s0,.06,0,.09l0,0-1.06.74-1.8,1.3q-2.1,1.53-4.13,3.12c-1,.79-2,1.57-3,2.37L139.4,15.9c-.63.54-1.25,1.08-1.85,1.63-.81.72-1.61,1.45-2.4,2.18-.43.39-.84.79-1.25,1.19L132,22.78c-.43.44-.85.87-1.26,1.31-.66.71-1.32,1.43-2,2.15-.45.5-.88,1-1.3,1.53s-.93,1.14-1.37,1.72-.84,1.14-1.25,1.71-1,1.43-1.41,2.17c-.29.48-.57,1-.82,1.45s-.46.87-.65,1.31a.37.37,0,0,1-.07.12l.15.15,1.83,1.68.1.07a1.15,1.15,0,0,0,.19-.26c.78-1.17,1.61-2.32,2.46-3.47.5-.68,1-1.36,1.54-2,.76-1,1.52-1.93,2.32-2.88.62-.72,1.23-1.44,1.86-2.16.78-.89,1.58-1.77,2.41-2.63.63-.66,1.27-1.31,1.93-2s1.55-1.48,2.36-2.2c1.08-1,2.19-1.89,3.35-2.78a44.09,44.09,0,0,1,3.84-2.64c.6-.36,1.21-.71,1.84-1a2.7,2.7,0,0,1,.58-.23,3.14,3.14,0,0,1,2.16.17,2.15,2.15,0,0,1,.94.81,1.25,1.25,0,0,1,.19.93,3.07,3.07,0,0,1-.14.52c-.2.57-.36,1.14-.54,1.71s-.37,1.32-.56,2-.36,1.39-.54,2.08-.36,1.57-.53,2.35-.33,1.62-.48,2.43c-.1.48-.18,1-.26,1.44l-.12.83c0,.3-.09.61-.13.92s-.09.68-.13,1c-.08.68-.16,1.37-.23,2.05,0,.44-.07.88-.1,1.32-.08.94-.11,1.88-.14,2.82s0,1.79,0,2.68,0,2,.1,3c0,.74.11,1.47.17,2.21.05.5.11,1,.17,1.49,0,.21.06.42.09.63.08.53.16,1.07.25,1.61s.17,1,.3,1.57c.07.31.13.61.19.92.11.55.26,1.11.4,1.66s.24.91.38,1.36c.22.77.45,1.53.73,2.28a.31.31,0,0,0,.06.13l.06,0a0,0,0,0,1,0,0c0-.1,0-.2,0-.3a26.82,26.82,0,0,1,0-2.69c0-.14,0-.29,0-.43,0-.73.07-1.46.13-2.18s.11-1.17.21-1.75c.07-.42.12-.84.19-1.25s.16-.9.27-1.35.26-1,.42-1.55a13.8,13.8,0,0,1,1-2.4,8,8,0,0,1,1-1.53,5.42,5.42,0,0,1,1-.93l.09-.07a.09.09,0,0,1,.14,0l.12.31c.13.43.26.86.4,1.29.25.8.45,1.6.66,2.4.15.53.26,1.07.38,1.6.07.31.15.63.21,1,.11.54.22,1.09.32,1.64.07.37.14.74.2,1.11s.1.57.14.86.1.63.14,1,.07.48.1.73.09.7.12,1.05c.08.77.15,1.54.22,2.32a.62.62,0,0,0,0,.13c.1,1.54.13,3.09.11,4.64,0,.26,0,.53,0,.79,0,.7-.06,1.4-.11,2.09s-.1,1.21-.17,1.82-.14,1-.21,1.48-.13.86-.21,1.28-.17.86-.26,1.28-.25,1.09-.4,1.63c-.26,1-.58,2-.94,3s-.75,1.88-1.19,2.81a28.43,28.43,0,0,1-3.73,5.85,27.93,27.93,0,0,1-2.09,2.28,30.5,30.5,0,0,1-3.45,2.89,34.6,34.6,0,0,1-5.06,3,.6.6,0,0,1-.3.11h0l-.09.06c-.13.12-.25.24-.37.37-.37.4-.77.79-1.18,1.17a13.16,13.16,0,0,1-1.22,1l-.1.06h0a.38.38,0,0,0-.09.18c-.05.21-.11.41-.16.62a.1.1,0,0,1-.1,0l-.08,0-.21-.11a9.85,9.85,0,0,0-1.82-.77,10.27,10.27,0,0,0-2.08-.45,11.54,11.54,0,0,0-2.12,0,12.45,12.45,0,0,0-2.52.46,11.41,11.41,0,0,0-2.35,1,10,10,0,0,0-3.82,3.54,11.88,11.88,0,0,0-1.15,2.42,17.55,17.55,0,0,0-.58,2.21,2.43,2.43,0,0,1-.13.42c0-.15-.08-.25-.11-.36-.09-.43-.17-.85-.28-1.27-.17-.67-.29-1.33-.51-2a8.74,8.74,0,0,0-.86-1.87,7.55,7.55,0,0,0-1.11-1.38,7.75,7.75,0,0,0-4-1.93,8.87,8.87,0,0,0-2.36-.13,9.72,9.72,0,0,0-3.29.77A7.44,7.44,0,0,0,106,95.72a5.62,5.62,0,0,0-.8.82,2.09,2.09,0,0,0-.14.17.08.08,0,0,1-.11,0l-.15-.2a7.17,7.17,0,0,0-4.76-2.8,11.59,11.59,0,0,0-1.32-.15c-.52,0-1,0-1.56,0H84.79a1.47,1.47,0,0,1-.21,0,1,1,0,0,0-.53.12l-.74.35a7.15,7.15,0,0,0-1.48,1l-.15.12a.09.09,0,0,1-.11,0l-.29-.25a8.45,8.45,0,0,0-2.36-1.54,10.18,10.18,0,0,0-2.37-.71,10.69,10.69,0,0,0-2.59-.1,11.14,11.14,0,0,0-2.71.54,11.5,11.5,0,0,0-2.71,1.3A9.45,9.45,0,0,0,66.7,96,8.67,8.67,0,0,0,65.58,97.59Zm19.77,21.75A8.37,8.37,0,0,1,84,122.7c-3.08,4.58-9.41,4.41-13.18,1.22-2.66-2.26-3.29-5.08-3.45-8-.08-1.59,0-3.18,0-4.77.33-3.33.31-6.66,1-10a7.63,7.63,0,0,1,2.88-4.73c3.43-2.61,8-2.25,10.48.92a19.77,19.77,0,0,1,4,9.81A39.18,39.18,0,0,1,85.35,119.34Zm15.21-17.22c-3.21-.33-3.61-.07-3.62,2.42v9.15H97c0,3.18,0,6.37,0,9.56a2.52,2.52,0,0,1-2.71,2.8c-1.86,0-3.37-1.18-3.37-2.73,0-6.37,0-12.74,0-19.12,0-1.61-.06-1.7-2.15-1.67-2.91,0-5-1.53-4.9-3.69.1-1.87,1.61-3,4-3,3.9,0,7.79,0,11.68,0,2.83,0,4.83,1.56,4.91,3.51S102.93,102.37,100.56,102.12ZM121,125.72a4.18,4.18,0,0,1-4-.94,5,5,0,0,1-1.62-2.54c-.72-2.11-1.42-4.22-2.16-6.33-.13-.37-.17-.9-.85-.9s-.82.46-1,.86c-.8,2.38-1.58,4.76-2.39,7.13a7.92,7.92,0,0,1-.88,1.92,3.24,3.24,0,0,1-3.18,1.37,2.68,2.68,0,0,1-2.45-1.89,4.68,4.68,0,0,1-.16-1.89c.32-7.79,2.43-15.33,5.09-22.8a4.84,4.84,0,0,1,2.63-3c3-1.38,6.4-.4,7.71,2.3,1.07,2.23,1.31,4.61,1.84,6.93,1.16,5,2.22,10,3.37,15a8.3,8.3,0,0,1,.19,2A2.66,2.66,0,0,1,121,125.72Zm19.26-1.33a10.85,10.85,0,0,1-13.55-1,8.58,8.58,0,0,1-2.4-3.76,32.26,32.26,0,0,1,.44-19.18A7.63,7.63,0,0,1,129,95.89a7.88,7.88,0,0,1,7.47,0c2.28,1.26,4.65,2.55,5.55,4.79a3.09,3.09,0,0,1-1.91,4.13c-1.86.76-3.32.4-5-1.25a2.46,2.46,0,0,0-2.18-.93,2.26,2.26,0,0,0-2,1.52c-.7,2-.21,4.17-.58,6,.13,2.33-.33,4.42.26,6.5a3.67,3.67,0,0,0,1.88,2.38,3,3,0,0,0,3.48-.3c.77-.84.49-2-.9-2.55-2.1-.87-3-2.11-2.58-3.91.38-1.56,2.48-3,4.81-3.19a6.73,6.73,0,0,1,6.49,3.23C146,116.14,144.35,121.69,140.3,124.39Zm19.41,2.48c-2.88.81-5.8.5-8.72.09a8,8,0,0,1-4.31-1.68,3.77,3.77,0,0,1-1.46-3c0-3.69,0-7.38,0-11.07,0-3.41.17-6.84,0-10.25-.2-3.17,2.49-5.28,6-5.78a19,19,0,0,1,8.19.53c3.2,1,3.9,3.21,1.66,5.24a7.81,7.81,0,0,1-5.87,1.77c-1.75-.1-2.37.41-2.2,1.73a13.47,13.47,0,0,1,0,2.46c0,1.11.53,1.58,2,1.4a8.13,8.13,0,0,1,5.9,1.3c1.65,1.2,2.11,2.94,1.2,4.36s-2.64,2-5.08,1.61l-.18,0c-3.68-.56-4.7.24-3.73,3a1.94,1.94,0,0,0,2.07,1.17c.88,0,1.76-.12,2.64-.14,2.5-.07,4.55,1.07,5,2.75C163.48,124.39,162.24,126.16,159.71,126.87Z"/><polygon class="cls-2" points="68.3 31.29 68.3 31.29 68.3 31.29 68.3 31.29"/><path class="cls-2" d="M68.31,31.29h0l0,0v0a0,0,0,0,1,0,0h0Z"/><path d="M62.88,110.68c-.62-.38,0-.64.22-.89a9.62,9.62,0,0,0,2.26-3.53c2.29-6.28-3.75-12-11.77-11.17-3.69.39-6.52,2.6-6.52,5.12,0,7.05.08,14.11,0,21.17,0,1.88.94,3.11,2.76,4.11a12,12,0,0,0,6.43,1.6,9.62,9.62,0,0,0,3.44-.51c4.33-1.39,6.74-4.28,6.47-8.27C65.93,115.59,66.14,112.67,62.88,110.68Zm-8.26-4.87c0-.31-.07-.63-.1-1,.21-.61-.58-1.63.85-1.9a3.09,3.09,0,0,1,3.23,1c.6.88.33,1.78-.66,2.48a4.68,4.68,0,0,1-1,.53C55.32,107.47,54.75,107.21,54.62,105.81Zm1,14.44c-.47-.11-.47-.35-.47-.61,0-1.13,0-2.27,0-3.4a1.14,1.14,0,0,1,.93-1.2,2.18,2.18,0,0,1,2.06.48,3.61,3.61,0,0,1,1.28,2.29C59.47,119.43,57.37,120.65,55.65,120.25Z"/><path d="M23.87,111.49a10.69,10.69,0,0,0-6.3-3.73c-2.46-.54-6.32-.65-5.93-3.42.19-1.27,1.6-2.19,3.46-2.24a15.71,15.71,0,0,1,3.29.45c3.3.59,5.08-.4,5.36-3a4.06,4.06,0,0,0-2.21-2.8A12.53,12.53,0,0,0,16,95.35,18.56,18.56,0,0,0,12,96c-7,2.14-9.82,9.29-5.91,14.86,1.49,2.13,3.68,3.25,6.9,3,.82,0,1.65,0,2.47,0a2.16,2.16,0,0,1,2.09,1.27,4.32,4.32,0,0,1-.05,3.62,3.4,3.4,0,0,1-5.32.92,22.84,22.84,0,0,1-1.85-1.83,6.63,6.63,0,0,0-3-1.88c-1.85-.5-3.75,0-4.15,1.17a4.8,4.8,0,0,0,.63,4.88c2.65,3.29,6.55,4.89,11.48,5,3.57.08,6.23-1.2,8-3.59C25.86,119.93,26.61,115.12,23.87,111.49Z"/><path d="M137.35,109.13c-2.33.2-4.43,1.63-4.81,3.19-.45,1.8.48,3,2.58,3.91,1.39.57,1.67,1.71.9,2.55a3,3,0,0,1-3.48.3,3.67,3.67,0,0,1-1.88-2.38c-.59-2.08-.13-4.17-.26-6.5.37-1.84-.12-4,.58-6a2.26,2.26,0,0,1,2-1.52,2.46,2.46,0,0,1,2.18.93c1.64,1.65,3.1,2,5,1.25a3.09,3.09,0,0,0,1.91-4.13c-.9-2.24-3.27-3.53-5.55-4.79a7.88,7.88,0,0,0-7.47,0,7.63,7.63,0,0,0-4.25,4.53,32.26,32.26,0,0,0-.44,19.18,8.58,8.58,0,0,0,2.4,3.76,10.85,10.85,0,0,0,13.55,1c4-2.7,5.68-8.25,3.54-12A6.73,6.73,0,0,0,137.35,109.13Z"/><path d="M157.88,119.66c-.88,0-1.76.11-2.64.14a1.94,1.94,0,0,1-2.07-1.17c-1-2.81.05-3.61,3.73-3l.18,0c2.44.34,4.19-.21,5.08-1.61s.45-3.16-1.2-4.36a8.13,8.13,0,0,0-5.9-1.3c-1.51.18-2.08-.29-2-1.4a13.47,13.47,0,0,0,0-2.46c-.17-1.32.45-1.83,2.2-1.73a7.81,7.81,0,0,0,5.87-1.77c2.24-2,1.54-4.27-1.66-5.24a19,19,0,0,0-8.19-.53c-3.56.5-6.25,2.61-6,5.78.22,3.41,0,6.84,0,10.25,0,3.69,0,7.38,0,11.07a3.77,3.77,0,0,0,1.46,3A8,8,0,0,0,151,127c2.92.41,5.84.72,8.72-.09,2.53-.71,3.77-2.48,3.2-4.46C162.43,120.73,160.38,119.59,157.88,119.66Z"/><path d="M81.7,97.4c-2.51-3.17-7-3.53-10.48-.92a7.63,7.63,0,0,0-2.88,4.73c-.69,3.29-.67,6.62-1,10,0,1.59-.07,3.18,0,4.77.16,2.91.79,5.73,3.45,8,3.77,3.19,10.1,3.36,13.18-1.22a8.37,8.37,0,0,0,1.37-3.36,39.18,39.18,0,0,0,.31-12.13A19.77,19.77,0,0,0,81.7,97.4Zm-2.55,19.83a2.13,2.13,0,0,1-2.36,1.87,2.09,2.09,0,0,1-2.05-2.24c0-.77-.37-3.38-.44-6.15-.11-3.77.26-7.82,2.52-7.95a1.6,1.6,0,0,1,1.69,1.15A24.55,24.55,0,0,1,79.15,117.23Z"/><path d="M42.77,104.55c-.46-2-.61-4.08-1.78-6-1.7-2.73-5.73-3.3-8.49-1.22a4.67,4.67,0,0,0-1.63,2.39,149.74,149.74,0,0,0-4.72,17c-.07.33-.16.77-.27,1.28-.56,2.82-1.27,7.85,2.51,8.23,2,.19,3.3-.8,4.07-3.11s1.48-4.67,2.27-7c.16-.44.2-1.11,1.05-1.12s.83.66,1,1.11c.82,2.27,1.49,4.58,2.42,6.82a4.4,4.4,0,0,0,5.05,2.79c2-.45,2.82-2,2.31-4.33C45.27,115.82,44.07,110.18,42.77,104.55Zm-6.24,4.92a1.16,1.16,0,0,1-1.15-1.56c.15-.72.41-1.69,1.51-1.56s1.07,1.17,1.24,1.86C37.89,108.91,37.58,109.58,36.53,109.47Z"/><path d="M119.7,106c-.53-2.32-.77-4.7-1.84-6.93-1.31-2.7-4.71-3.68-7.71-2.3a4.84,4.84,0,0,0-2.63,3c-2.66,7.47-4.77,15-5.09,22.8a4.68,4.68,0,0,0,.16,1.89,2.68,2.68,0,0,0,2.45,1.89,3.24,3.24,0,0,0,3.18-1.37,7.92,7.92,0,0,0,.88-1.92c.81-2.37,1.59-4.75,2.39-7.13.14-.4.32-.87,1-.86s.72.53.85.9c.74,2.11,1.44,4.22,2.16,6.33a5,5,0,0,0,1.62,2.54,4.18,4.18,0,0,0,4,.94,2.66,2.66,0,0,0,2.22-2.66,8.3,8.3,0,0,0-.19-2C121.92,116,120.86,111,119.7,106Zm-6.91,3.5a1.14,1.14,0,0,1-1.26-1.37c.07-.78.28-1.75,1.43-1.76s1,1,1.33,1.61C114.2,108.79,113.89,109.48,112.79,109.47Z"/><path d="M104.54,99.38c-.08-1.95-2.08-3.46-4.91-3.51-3.89-.07-7.78,0-11.68,0-2.42,0-3.93,1.13-4,3-.12,2.16,2,3.74,4.9,3.69,2.09,0,2.16.06,2.15,1.67,0,6.38,0,12.75,0,19.12,0,1.55,1.51,2.74,3.37,2.73a2.52,2.52,0,0,0,2.71-2.8c0-3.19,0-6.38,0-9.56h-.1v-9.15c0-2.49.41-2.75,3.62-2.42C102.93,102.37,104.61,101.21,104.54,99.38Z"/><path class="cls-2" d="M58.19,115.52a2.18,2.18,0,0,0-2.06-.48,1.14,1.14,0,0,0-.93,1.2c0,1.13,0,2.27,0,3.4,0,.26,0,.5.47.61,1.72.4,3.82-.82,3.82-2.44A3.61,3.61,0,0,0,58.19,115.52Z"/><path class="cls-2" d="M56.92,106.84a4.68,4.68,0,0,0,1-.53c1-.7,1.26-1.6.66-2.48a3.09,3.09,0,0,0-3.23-1c-1.43.27-.64,1.29-.85,1.9,0,.4.07.72.1,1C54.75,107.21,55.32,107.47,56.92,106.84Z"/><path class="cls-2" d="M76.82,102.76c-2.26.13-2.63,4.18-2.52,7.95.07,2.77.41,5.38.44,6.15a2.09,2.09,0,0,0,2.05,2.24,2.13,2.13,0,0,0,2.36-1.87,24.55,24.55,0,0,0-.64-13.32A1.6,1.6,0,0,0,76.82,102.76Z"/><path class="cls-2" d="M36.89,106.35c-1.1-.13-1.36.84-1.51,1.56a1.16,1.16,0,0,0,1.15,1.56c1,.11,1.36-.56,1.6-1.26C38,107.52,38,106.48,36.89,106.35Z"/><path class="cls-2" d="M113,106.34c-1.15,0-1.36,1-1.43,1.76a1.14,1.14,0,0,0,1.26,1.37c1.1,0,1.41-.68,1.5-1.52C114,107.39,114.09,106.34,113,106.34Z"/><path class="cls-3" d="M71.25,93.07A11.14,11.14,0,0,1,74,92.53a10.69,10.69,0,0,1,2.59.1,10.18,10.18,0,0,1,2.37.71,8.45,8.45,0,0,1,2.36,1.54l.29.25a.09.09,0,0,0,.11,0l.15-.12a7.15,7.15,0,0,1,1.48-1l.74-.35a1,1,0,0,1,.53-.12,1.47,1.47,0,0,0,.21,0H97.11c.52,0,1,0,1.56,0a11.59,11.59,0,0,1,1.32.15,7.17,7.17,0,0,1,4.76,2.8l.15.2a.08.08,0,0,0,.11,0,2.09,2.09,0,0,1,.14-.17,5.62,5.62,0,0,1,.8-.82,7.44,7.44,0,0,1,1.79-1.09,9.72,9.72,0,0,1,3.29-.77,8.87,8.87,0,0,1,2.36.13,7.75,7.75,0,0,1,4,1.93,7.55,7.55,0,0,1,1.11,1.38,8.74,8.74,0,0,1,.86,1.87c.22.66.34,1.32.51,2,.11.42.19.84.28,1.27,0,.11.07.21.11.36a2.43,2.43,0,0,0,.13-.42,17.55,17.55,0,0,1,.58-2.21,11.88,11.88,0,0,1,1.15-2.42,10,10,0,0,1,3.82-3.54,11.41,11.41,0,0,1,2.35-1,12.45,12.45,0,0,1,2.52-.46,11.54,11.54,0,0,1,2.12,0,10.27,10.27,0,0,1,2.08.45,9.85,9.85,0,0,1,1.82.77l.21.11.08,0a.1.1,0,0,0,.1,0c.05-.21.11-.41.16-.62a.38.38,0,0,1,.09-.18h0a.19.19,0,0,1-.16-.09l-.27-.53c-.14-.24-.27-.48-.4-.73l-.66-1.26c-.09-.17-.2-.34-.29-.52-.29-.58-.64-1.15-.92-1.74a11.24,11.24,0,0,1-.6-1.07c-.26-.47-.55-.94-.78-1.43-.1-.19-.21-.39-.33-.58s-.25-.44-.36-.67l-.09-.15c-.2-.31-.36-.62-.53-.94s-.27-.44-.38-.67c-.21-.38-.47-.76-.65-1.15a.41.41,0,0,0-.05-.09c-.18-.31-.38-.62-.55-.94s-.33-.54-.47-.82-.34-.58-.51-.87l-.26-.46a2.52,2.52,0,0,1-.24-.42l0-.06c-.21-.35-.44-.7-.63-1.05s-.54-.83-.75-1.27c0,0,0,0,0,0-.24-.35-.44-.72-.66-1.08s-.64-1-.93-1.49-.58-.92-.85-1.38-.57-.92-.86-1.37l-.74-1.13a2.91,2.91,0,0,1-.26-.45.94.94,0,0,0-.12-.18,4.66,4.66,0,0,1-.4-.62,3.28,3.28,0,0,0-.27-.38c-.09-.11-.15-.23-.23-.35a1.48,1.48,0,0,0-.16-.27c-.27-.33-.47-.69-.7-1s-.49-.75-.75-1.12-.59-.89-.91-1.32l-.59-.85c-.26-.38-.51-.76-.79-1.14l-.86-1.18c-.15-.21-.32-.42-.48-.63a.83.83,0,0,1-.08-.12c-.23-.33-.47-.65-.73-1s-.32-.44-.48-.66-.25-.32-.37-.49-.37-.44-.53-.68a3.65,3.65,0,0,0-.24-.31c-.24-.28-.41-.58-.67-.85,0,0-.07-.1-.11-.14l-.33-.43L112.47,54l-.85-1-.81-1,0-.06c-.36-.36-.64-.76-1-1.12-.17-.18-.32-.37-.48-.55-.36-.39-.69-.79-1-1.17s-.83-.93-1.3-1.37a.1.1,0,0,1,0,0c-.34-.39-.71-.75-1.07-1.13s-.86-.82-1.25-1.26c-.23-.19-.42-.42-.64-.62s-.45-.43-.67-.65-.45-.37-.65-.58-.44-.37-.62-.58a.84.84,0,0,0-.18-.15,2.88,2.88,0,0,1-.36-.33.58.58,0,0,0-.14-.13,2.78,2.78,0,0,1-.48-.42,3.2,3.2,0,0,0-.27-.22,2.23,2.23,0,0,1-.4-.35.79.79,0,0,0-.17-.14l-.55-.43a2.06,2.06,0,0,1-.31-.28,1.77,1.77,0,0,0-.2-.17l-2.79-2.13A.88.88,0,0,0,96,38a5.76,5.76,0,0,1-.81-.55,2,2,0,0,0-.42-.28.91.91,0,0,1-.16-.11,3.62,3.62,0,0,0-.56-.37c-.11,0-.18-.14-.29-.2a3.89,3.89,0,0,1-.52-.34c-.17-.13-.38-.2-.53-.34-.32-.16-.58-.37-.88-.54L91,34.78l-.83-.48-.1-.07c-.5-.26-1-.52-1.5-.77s-1.16-.58-1.76-.85c-.43-.18-.84-.38-1.26-.57l-.08,0c-.66-.25-1.29-.55-2-.78l-.83-.29a6.51,6.51,0,0,0-.78-.27c-.45-.18-.94-.29-1.4-.46-.24-.09-.51-.14-.76-.22-.43-.13-.87-.24-1.31-.36l-1.07-.25-1-.23c-.57-.12-1.15-.23-1.72-.33L74,28.71l-1.18-.18a4.3,4.3,0,0,0-.72-.09c-.16,0-.3-.08-.47-.07a1.47,1.47,0,0,1-.42-.05.81.81,0,0,0-.22,0l-.3,0-.08,0c-.32,0-.63-.06-.94-.07a3,3,0,0,1-.52-.05,1.59,1.59,0,0,0-.38,0,2.59,2.59,0,0,1-.56-.05,1.46,1.46,0,0,0-.3,0h-.61a2.49,2.49,0,0,1-.47,0,2.07,2.07,0,0,0-.43,0H61.71a1.83,1.83,0,0,0-.47,0A1.1,1.1,0,0,1,61,28h-.56a2.43,2.43,0,0,0-.6.05,2.48,2.48,0,0,1-.39,0,2.64,2.64,0,0,0-.56,0,1.27,1.27,0,0,1-.34,0,2.15,2.15,0,0,0-.51,0h0a5.55,5.55,0,0,0-.82.07,2.63,2.63,0,0,0-.47.06.72.72,0,0,1-.21,0,1.27,1.27,0,0,0-.34,0,.2.2,0,0,1-.13,0c-.25,0-.47.09-.72.09a3,3,0,0,1-.42.06,2.8,2.8,0,0,0-.5.12l-2,.67c-.67.23-1.32.49-2,.74l-.68.29a5.17,5.17,0,0,0-.64.28c-.45.16-.87.38-1.31.58s-1,.49-1.52.75-1.2.65-1.8,1c-.19.16-.45.26-.66.42a3.34,3.34,0,0,1-.4.25,3.22,3.22,0,0,1-.36.24.91.91,0,0,0-.23.15l-.5.37a1.33,1.33,0,0,1-.19.14,4.84,4.84,0,0,0-.82.58c-.25.27-.6.48-.87.74a8.06,8.06,0,0,0-1,.89,14.83,14.83,0,0,0-1.33,1.43,2.09,2.09,0,0,0-.14.17c-.16.23-.34.46-.52.68l-.15.21-.43.65a12,12,0,0,0-.68,1.21,5.73,5.73,0,0,0-.34.71c-.18.46-.37.91-.51,1.37-.08.27-.13.54-.21.81s-.06.39-.14.58a.44.44,0,0,0,0,.16c0,.06,0,.12,0,.17a1.34,1.34,0,0,0-.08.56.44.44,0,0,1,0,.16.89.89,0,0,0-.06.39v2.09a1.14,1.14,0,0,0,.06.4,1.36,1.36,0,0,1,0,.29.75.75,0,0,0,0,.36.19.19,0,0,1,0,.1c0,.22.09.43.09.65s.14.59.22.88.24.77.37,1.15A10.86,10.86,0,0,0,36.11,53c.15.32.32.64.47,1a.26.26,0,0,0,.24.12h2.39a2,2,0,0,0,.42,0,2,2,0,0,1,.35,0H41.1a2,2,0,0,0,.43,0,1,1,0,0,1,.3,0h.57a1.51,1.51,0,0,0,.3,0,1.58,1.58,0,0,1,.38,0,3.24,3.24,0,0,0,.82-.06,1.9,1.9,0,0,1,.34,0,1.53,1.53,0,0,0,.43,0,1.46,1.46,0,0,1,.3,0,2.21,2.21,0,0,0,.51-.05.78.78,0,0,1,.22,0,1.19,1.19,0,0,0,.46-.05h.05a7.4,7.4,0,0,0,.81-.08,3.75,3.75,0,0,0,.47,0,.71.71,0,0,1,.21,0,1.27,1.27,0,0,0,.34,0l.22,0a1.93,1.93,0,0,0,.42-.05c.25,0,.48-.07.72-.09s.48-.06.73-.09a2,2,0,0,0,.34,0c.38-.07.79-.08,1.18-.18s.7-.11,1.06-.15l.33-.06,1.56-.26,2.26-.44c.61-.12,1.21-.26,1.82-.39,1.59-.34,3.14-.76,4.69-1.16.44-.11.87-.24,1.3-.37l1.4-.42c.28-.09.57-.17.84-.27l.44-.14,1.59-.53c.37-.12.72-.27,1.09-.39.78-.25,1.51-.55,2.26-.84.58-.22,1.16-.45,1.73-.69.26-.12.52-.23.79-.33a.85.85,0,0,0,0-.23c-.14-.44-.29-.88-.44-1.31-.25-.76-.53-1.52-.82-2.27s-.69-1.77-1.06-2.65-.68-1.6-1-2.39-.82-1.79-1.26-2.68c-.28-.55-.54-1.11-.82-1.67s-.49-.94-.74-1.41c0-.1-.13-.2-.11-.31h0s0,0,0,0a.47.47,0,0,1-.14-.3h0s0,0,0,0,0,0,0,0,0,0,0,0,0,0,0,0a0,0,0,0,0,0,0v0l0,0h0a.42.42,0,0,1,.17.29v0s.05,0,.05,0l.3.44,1.47,2.4,1.4,2.32c.41.66.82,1.31,1.22,2,.25.4.49.8.73,1.2.58,1,1.17,1.9,1.81,2.83.34.5.69,1,1,1.49.23.32.47.63.71.95l.1.1h0a.61.61,0,0,0,.13,0c.44-.22.92-.41,1.35-.65a5.33,5.33,0,0,1,.9-.32l.53-.14a6.1,6.1,0,0,1,.84-.13h.13a2.27,2.27,0,0,1,.69,0h.91a2.21,2.21,0,0,1,.68,0c.2,0,.4.05.6.07s.47.08.71.14a12,12,0,0,1,1.34.36c.46.16.91.34,1.35.53s.6.3.9.46l.16.11a3.32,3.32,0,0,0,.37.23,1.7,1.7,0,0,1,.22.15l1.63,1.25a.93.93,0,0,1,.27.25s0,0,.06,0c.24.17.42.39.64.58a9.69,9.69,0,0,1,.73.7c.52.54,1,1.09,1.5,1.66.29.35.57.71.86,1.07s.58.78.86,1.18a10.45,10.45,0,0,1,.62.91c.27.46.58.91.81,1.39.09.2.21.38.32.58a2,2,0,0,1,.1.21c.17.34.29.7.48,1,0,.18.13.34.19.51.14.39.29.78.41,1.18,0,.16.08.32.13.48s.07.44.15.65,0,.16,0,.23a2.5,2.5,0,0,1,.09.66,1.92,1.92,0,0,1,.07.79c0,.29,0,.59,0,.89,0,.07,0,.13,0,.2S99,62.84,99,63a.86.86,0,0,1-.06.39.18.18,0,0,0,0,.1,5.81,5.81,0,0,1-.56,1.66l-.29.55c-.16.29-.4.53-.58.81s-.39.47-.62.68a5.41,5.41,0,0,1-.61.55.64.64,0,0,0-.15.13,2.78,2.78,0,0,1-.48.42l-.74.56a3.5,3.5,0,0,1-.58.4.8.8,0,0,0-.19.13,2.52,2.52,0,0,1-.5.32l0,0c-.51.36-1.07.67-1.62,1,0,0-.06,0-.09.07a1.7,1.7,0,0,0,.14.35c.27.52.55,1,.86,1.55s.5.8.76,1.19.73,1.06,1.12,1.58a.22.22,0,0,1,.07.17h0c.08,0,.1.06.13.1s0,0,0,0l0,0a.14.14,0,0,1-.08-.13h0a.23.23,0,0,1-.15-.1l-.57-.58c-.6-.62-1.21-1.22-1.85-1.82s-1.08-1-1.62-1.46a1.66,1.66,0,0,0-.21-.16s-.08.1-.14.12c-.34.17-.66.36-1,.5-.14.06-.26.14-.4.2-.35.18-.7.35-1.07.5l-.22.1-1.47.64c-.74.31-1.5.61-2.26.9-.39.14-.77.3-1.17.44s-.93.34-1.42.49l-.19.07c-.39.14-.79.27-1.19.39l-.52.17-1.85.56-.12,0c-.92.24-1.84.5-2.77.73-.61.15-1.21.3-1.82.43-.81.18-1.63.36-2.45.5-.28,0-.56.12-.84.16s-.7.13-1,.18-.65.11-1,.14a1.89,1.89,0,0,1-.47.06,2,2,0,0,1-.42.06c-.13,0-.26.05-.38.06a2.58,2.58,0,0,0-.39,0,.72.72,0,0,1-.25,0,1.27,1.27,0,0,0-.34,0,2.06,2.06,0,0,1-.26,0,1.83,1.83,0,0,0-.47,0,.47.47,0,0,1-.17,0,3.31,3.31,0,0,0-.55,0,1.67,1.67,0,0,1-.39,0,2.28,2.28,0,0,0-.64,0,2.28,2.28,0,0,1-.26,0h-.74a2.64,2.64,0,0,0-.56,0,1,1,0,0,1-.3,0h-1a2.24,2.24,0,0,1-.52,0,1.46,1.46,0,0,0-.3,0h-.69a2.42,2.42,0,0,1-.47,0,2,2,0,0,0-.35,0,1.46,1.46,0,0,1-.42,0l-.13,0a3.31,3.31,0,0,1-.55-.06L55.94,79c-.46-.07-.91-.13-1.35-.24L54,78.61l-.21,0-.3,0a.27.27,0,0,0-.12,0c-.26.07-.55,0-.81.12a3,3,0,0,0-.69.26c-.08,0-.16.09-.24.15l-.37.28a1.83,1.83,0,0,0-.35.33,5,5,0,0,0-.55.86,7.72,7.72,0,0,0-.38,1c0,.08,0,.16,0,.23a1.4,1.4,0,0,0-.08.49,1.2,1.2,0,0,0-.09.59.17.17,0,0,1,0,.1,1,1,0,0,0-.07.52.91.91,0,0,1-.06.4.58.58,0,0,0,0,.23c0,.15,0,.31,0,.46a.9.9,0,0,1,0,.36.58.58,0,0,0,0,.23v.53a1.46,1.46,0,0,1-.06.46.74.74,0,0,0,0,.26v1.36a1.07,1.07,0,0,1-.06.43.58.58,0,0,0,0,.23v.63c0,1.3,0,2.6,0,3.91,0,.12,0,.24,0,.36a1.71,1.71,0,0,0,.46-.1,14.42,14.42,0,0,1,3.6-.51,14.18,14.18,0,0,1,1.6.05c.35,0,.69.06,1,.11a16.4,16.4,0,0,1,2.54.56A13.81,13.81,0,0,1,61.92,95a10.72,10.72,0,0,1,2.88,2.67c.11.14.21.29.31.44s.07.08.11.09.08,0,.1-.09l.26-.49A8.67,8.67,0,0,1,66.7,96a9.45,9.45,0,0,1,1.84-1.58A11.5,11.5,0,0,1,71.25,93.07Z"/><path class="cls-3" d="M68.48,31.61s0,0,0,0h0Z"/><path class="cls-4" d="M49.32,89.05v-.63a.58.58,0,0,1,0-.23,1.07,1.07,0,0,0,.06-.43V86.4a.74.74,0,0,1,0-.26,1.46,1.46,0,0,0,.06-.46v-.53a.58.58,0,0,1,0-.23.9.9,0,0,0,0-.36c0-.15,0-.31,0-.46a.58.58,0,0,1,0-.23.91.91,0,0,0,.06-.4,1,1,0,0,1,.07-.52.17.17,0,0,0,0-.1,1.2,1.2,0,0,1,.09-.59,1.4,1.4,0,0,1,.08-.49c0-.07,0-.15,0-.23a7.72,7.72,0,0,1,.38-1,5,5,0,0,1,.55-.86,1.83,1.83,0,0,1,.35-.33l.37-.28c.08-.06.16-.1.24-.15a3,3,0,0,1,.69-.26c.26-.08.55-.05.81-.12a.27.27,0,0,1,.12,0l.3,0,.21,0,.62.14c.44.11.89.17,1.35.24l.55.07a3.31,3.31,0,0,0,.55.06l.13,0a1.46,1.46,0,0,0,.42,0,2,2,0,0,1,.35,0,2.42,2.42,0,0,0,.47,0h.69a1.46,1.46,0,0,1,.3,0,2.24,2.24,0,0,0,.52,0h1a1,1,0,0,0,.3,0,2.64,2.64,0,0,1,.56,0h.74a2.28,2.28,0,0,0,.26,0,2.28,2.28,0,0,1,.64,0,1.67,1.67,0,0,0,.39,0,3.31,3.31,0,0,1,.55,0,.47.47,0,0,0,.17,0,1.83,1.83,0,0,1,.47,0,2.06,2.06,0,0,0,.26,0,1.27,1.27,0,0,1,.34,0,.72.72,0,0,0,.25,0,2.58,2.58,0,0,1,.39,0c.12,0,.25,0,.38-.06a2,2,0,0,0,.42-.06,1.89,1.89,0,0,0,.47-.06c.32,0,.64-.1,1-.14s.7-.13,1-.18.56-.11.84-.16c.82-.14,1.64-.32,2.45-.5.61-.13,1.21-.28,1.82-.43.93-.23,1.85-.49,2.77-.73l.12,0L79.37,76l.52-.17c.4-.12.8-.25,1.19-.39l.19-.07c.49-.15,1-.33,1.42-.49s.78-.3,1.17-.44c.76-.29,1.52-.59,2.26-.9l1.47-.64.22-.1c.37-.15.72-.32,1.07-.5.14-.06.26-.14.4-.2.36-.14.68-.33,1-.5.06,0,.09-.08.14-.12h0c-.11-.1-.21-.21-.33-.31-.7-.59-1.41-1.16-2.15-1.72a1,1,0,0,0-.3-.19h0c-.25.13-.49.27-.75.39-1.47.73-3,1.4-4.53,2-1.9.75-3.86,1.41-5.86,2-2.24.64-4.52,1.16-6.83,1.59-.88.16-1.75.3-2.63.43s-1.53.21-2.3.3l-1.89.19c-.66.07-1.32.1-2,.17h0c-.59,0-1.18.08-1.78.09-.3,0-.6,0-.9,0l-1,0-1,0H54.27c-.87,0-1.74,0-2.6-.06-.55-.07-1.1,0-1.64-.11s-.84,0-1.25-.08l-1.08-.11-.55-.05a.92.92,0,0,1-.42-.16c-.44-.31-.85-.63-1.25-1a16.12,16.12,0,0,1-2.28-2.41,19.31,19.31,0,0,1-1.14-1.64c-.32-.54-.63-1.09-.9-1.65s-.55-1.21-.79-1.82c-.15-.38-.27-.75-.4-1.12-.22-.66-.39-1.31-.56-2-.12-.43-.2-.87-.3-1.3a5.54,5.54,0,0,1-.12-.69l-.21-1.28,0-.13c0-.38-.07-.75-.11-1.13-.09-.76-.08-1.52-.12-2.28a8.23,8.23,0,0,1,0-.86.14.14,0,0,1,.15-.1h1a14.42,14.42,0,0,0,1.47,0h.39c.55,0,1.1,0,1.65,0l1.12,0c.61,0,1.21-.07,1.81-.12.4,0,.81-.05,1.21-.09l1.12-.11.73-.07c.83-.08,1.65-.18,2.48-.3,1.18-.15,2.35-.34,3.52-.54,3.45-.59,6.84-1.35,10.18-2.25,1.39-.38,2.77-.77,4.13-1.2l3-1,2.64-.93.59-.21c0-.19-.08-.39-.14-.58-.14-.53-.28-1.06-.43-1.58-.09-.33-.2-.65-.3-1l0-.05c-.27.1-.53.21-.79.33-.57.24-1.15.47-1.73.69-.75.29-1.48.59-2.26.84-.37.12-.72.27-1.09.39l-1.59.53-.44.14c-.27.1-.56.18-.84.27l-1.4.42c-.43.13-.86.26-1.3.37-1.55.4-3.1.82-4.69,1.16-.61.13-1.21.27-1.82.39l-2.26.44L53,52.78l-.33.06c-.36,0-.7.13-1.06.15s-.8.11-1.18.18a2,2,0,0,1-.34,0c-.25,0-.48.07-.73.09s-.47.08-.72.09a1.93,1.93,0,0,1-.42.05l-.22,0a1.27,1.27,0,0,1-.34,0,.71.71,0,0,0-.21,0,3.75,3.75,0,0,1-.47,0,7.4,7.4,0,0,1-.81.08h-.05a1.19,1.19,0,0,1-.46.05.78.78,0,0,0-.22,0,2.21,2.21,0,0,1-.51.05,1.46,1.46,0,0,0-.3,0,1.53,1.53,0,0,1-.43,0,1.9,1.9,0,0,0-.34,0,3.24,3.24,0,0,1-.82.06,1.58,1.58,0,0,0-.38,0,1.51,1.51,0,0,1-.3,0h-.57a1,1,0,0,0-.3,0,2,2,0,0,1-.43,0H40a2,2,0,0,0-.35,0,2,2,0,0,1-.42,0H36.82a.26.26,0,0,1-.24-.12c-.15-.32-.32-.64-.47-1A10.86,10.86,0,0,1,35.68,52c-.13-.38-.27-.76-.37-1.15s-.13-.59-.22-.88-.12-.43-.09-.65a.19.19,0,0,0,0-.1.75.75,0,0,1,0-.36,1.36,1.36,0,0,0,0-.29,1.14,1.14,0,0,1-.06-.4V46a.89.89,0,0,1,.06-.39.44.44,0,0,0,0-.16,1.34,1.34,0,0,1,.08-.56c0-.05,0-.11,0-.17a.44.44,0,0,1,0-.16c.08-.19.08-.39.14-.58s.13-.54.21-.81c.14-.46.33-.91.51-1.37a5.73,5.73,0,0,1,.34-.71,12,12,0,0,1,.68-1.21l.43-.65.15-.21c.18-.22.36-.45.52-.68a2.09,2.09,0,0,1,.14-.17,14.83,14.83,0,0,1,1.33-1.43,8.06,8.06,0,0,1,1-.89c.27-.26.62-.47.87-.74a4.84,4.84,0,0,1,.82-.58,1.33,1.33,0,0,0,.19-.14l.5-.37A.91.91,0,0,1,43,33.9a3.22,3.22,0,0,0,.36-.24,3.34,3.34,0,0,0,.4-.25c.21-.16.47-.26.66-.42.6-.33,1.18-.67,1.8-1s1-.52,1.52-.75.86-.42,1.31-.58a5.17,5.17,0,0,1,.64-.28l.68-.29c.67-.25,1.32-.51,2-.74l2-.67a2.8,2.8,0,0,1,.5-.12,3,3,0,0,0,.42-.06c.25,0,.47-.1.72-.09a.2.2,0,0,0,.13,0,1.27,1.27,0,0,1,.34,0,.72.72,0,0,0,.21,0,2.63,2.63,0,0,1,.47-.06,5.55,5.55,0,0,1,.82-.07h0a2.15,2.15,0,0,1,.51,0,1.27,1.27,0,0,0,.34,0,2.64,2.64,0,0,1,.56,0,2.48,2.48,0,0,0,.39,0,2.43,2.43,0,0,1,.6-.05H61a1.1,1.1,0,0,0,.26,0,1.83,1.83,0,0,1,.47,0h4.64a2.07,2.07,0,0,1,.43,0,2.49,2.49,0,0,0,.47,0h.61a1.46,1.46,0,0,1,.3,0,2.59,2.59,0,0,0,.56.05,1.59,1.59,0,0,1,.38,0,3,3,0,0,0,.52.05c.31,0,.62.08.94.07l.08,0,.3,0a.81.81,0,0,1,.22,0,1.47,1.47,0,0,0,.42.05c.17,0,.31.07.47.07a4.3,4.3,0,0,1,.72.09l1.18.18.63.11c.57.1,1.15.21,1.72.33l1,.23,1.07.25c.44.12.88.23,1.31.36.25.08.52.13.76.22.46.17,1,.28,1.4.46a6.51,6.51,0,0,1,.78.27l.83.29c.67.23,1.3.53,2,.78l.08,0c.42.19.83.39,1.26.57.6.27,1.18.56,1.76.85s1,.51,1.5.77l.1.07.83.48.87.48c.3.17.56.38.88.54.15.14.36.21.53.34a3.89,3.89,0,0,0,.52.34c.11.06.18.15.29.2a3.62,3.62,0,0,1,.56.37.91.91,0,0,0,.16.11,2,2,0,0,1,.42.28A5.76,5.76,0,0,0,96,38a.88.88,0,0,1,.15.12L99,40.24a1.77,1.77,0,0,1,.2.17,2.06,2.06,0,0,0,.31.28l.55.43a.79.79,0,0,1,.17.14,2.23,2.23,0,0,0,.4.35,3.2,3.2,0,0,1,.27.22,2.78,2.78,0,0,0,.48.42.58.58,0,0,1,.14.13,2.88,2.88,0,0,0,.36.33.84.84,0,0,1,.18.15c.18.21.43.38.62.58s.44.38.65.58.43.44.67.65.41.43.64.62c.39.44.84.84,1.25,1.26s.73.74,1.07,1.13a.1.1,0,0,0,0,0c.47.44.87.91,1.3,1.37s.69.78,1,1.17c.16.18.31.37.48.55.35.36.63.76,1,1.12l0,.06.81,1,.85,1,.91,1.13.33.43s.07.1.11.14c.26.27.43.57.67.85a3.65,3.65,0,0,1,.24.31c.16.24.35.46.53.68s.25.33.37.49.31.45.48.66.5.65.73,1a.83.83,0,0,0,.08.12c.16.21.33.42.48.63l.86,1.18c.28.38.53.76.79,1.14l.59.85c.32.43.6.88.91,1.32s.49.75.75,1.12.43.7.7,1a1.48,1.48,0,0,1,.16.27c.08.12.14.24.23.35a3.28,3.28,0,0,1,.27.38,4.66,4.66,0,0,0,.4.62.94.94,0,0,1,.12.18,2.91,2.91,0,0,0,.26.45l.74,1.13c.29.45.58.91.86,1.37s.59.91.85,1.38.62,1,.93,1.49.42.73.66,1.08c0,0,0,0,0,0,.21.44.51.84.75,1.27s.42.7.63,1.05l0,.06a2.52,2.52,0,0,0,.24.42l.26.46c.17.29.36.58.51.87s.33.54.47.82.37.63.55.94a.41.41,0,0,1,.05.09c.18.39.44.77.65,1.15.11.23.26.45.38.67s.33.63.53.94l.09.15c.11.23.23.45.36.67s.23.39.33.58c.23.49.52,1,.78,1.43a11.24,11.24,0,0,0,.6,1.07c.28.59.63,1.16.92,1.74.09.18.2.35.29.52l.66,1.26c.13.25.26.49.4.73l.27.53a.19.19,0,0,0,.16.09l.1-.06a13.16,13.16,0,0,0,1.22-1c.41-.38.81-.77,1.18-1.17.12-.13.24-.25.37-.37l.09-.06c0-.08,0-.13.08-.18l.77-1c.49-.65.93-1.32,1.35-2s.84-1.5,1.22-2.27c.08-.15.15-.31.22-.47a30.48,30.48,0,0,0,1.28-3.36c.2-.64.37-1.28.53-1.91s.24-1,.34-1.47.13-.77.2-1.15.09-.48.13-.72a.59.59,0,0,0,0-.13l.12-1c0-.39.09-.77.13-1.16a.86.86,0,0,0,0-.16c0-.31,0-.62.07-.93s0-.62,0-.93,0-.66.05-1c0-.51,0-1,0-1.52a.48.48,0,0,0-.07-.23l-.38-.67-1-1.72c-.24-.41-.5-.82-.75-1.23l-.84-1.38c-.17-.28-.34-.56-.52-.84l-2.21-3.45c-.51-.78-1-1.56-1.55-2.34s-1.09-1.6-1.65-2.4-1-1.5-1.59-2.24-1.07-1.47-1.62-2.2-1.2-1.58-1.82-2.37-1.23-1.57-1.87-2.35-1.51-1.83-2.31-2.72c-.45-.5-.89-1-1.35-1.51s-1.2-1.29-1.82-1.93-1-1-1.57-1.55c0,0,0-.06,0-.08h0l-.1-.07-1.83-1.68-.15-.15a1,1,0,0,1-.13-.09c-.74-.65-1.52-1.27-2.33-1.87a31.64,31.64,0,0,0-2.65-1.81A22.88,22.88,0,0,0,114,31a14.73,14.73,0,0,0-3-.95,9,9,0,0,0-1.37-.17,3.07,3.07,0,0,1-.42-.07,4.45,4.45,0,0,0-1-.11,4.81,4.81,0,0,0-2.42.61,4.87,4.87,0,0,0-1.08.86,6.45,6.45,0,0,0-.89,1.24c-.07.12-.12.23-.19.34a2.45,2.45,0,0,1-1.77,1.11,5.9,5.9,0,0,1-1.73,0,13.49,13.49,0,0,1-2.37-.5,25.55,25.55,0,0,1-2.74-1,35.26,35.26,0,0,1-4.46-2.28,25.55,25.55,0,0,1-2.57-1.72,4.78,4.78,0,0,1-.42-.34,3.68,3.68,0,0,0-1-.61A11.52,11.52,0,0,0,85.23,27,31.32,31.32,0,0,0,82,26.25c-1-.2-2-.36-3-.51l-1.8-.22c-.51-.07-1-.13-1.54-.18-.35,0-.71-.06-1.07-.09l-1.29-.1h-.18c-.66,0-1.32-.09-2-.1a.57.57,0,0,1-.29,0h-.48c-1.72,0-3.45,0-5.18,0l-.64,0-1.43,0a1.22,1.22,0,0,1-.34,0q-.75,0-1.5.12l-1,.09-.81.08-1.28.16c-.91.12-1.82.26-2.72.42q-2,.36-3.87.84a41.78,41.78,0,0,0-5.41,1.78,31.7,31.7,0,0,0-4.62,2.33c-.72.45-1.42.92-2.07,1.41a23.59,23.59,0,0,0-2.19,1.89,20.53,20.53,0,0,0-2.19,2.5,19.82,19.82,0,0,0-1.49,2.32,21.45,21.45,0,0,0-1.39,3.1,2,2,0,0,1-.12.31c-.28.62-.53,1.24-.76,1.87S31,45.41,30.85,46s-.33,1.18-.45,1.78c-.07.31-.15.61-.2.92s-.1.5-.14.75-.09.55-.14.82l-.09.66q-.07.49-.12,1c-.05.45-.1.9-.14,1.35,0,.21,0,.42,0,.63-.09,1.12-.09,2.23-.11,3.35,0,.31,0,.62,0,.93,0,.79,0,1.59,0,2.38,0,.42,0,.84.07,1.26s.06,1.13.11,1.69c0,.31,0,.62.08.93.07.53.12,1.07.18,1.61,0,.34.09.68.13,1s.06.67.12,1,.07.62.14.92.06.38.09.56.07.55.12.83.09.5.13.75.07.39.1.59c.07.44.17.87.25,1.31.05.28.08.55.12.83s.09.7.14,1v0l.12,1.23c0,.46.07.92.11,1.38s.05.73.07,1.1.05.64.07,1c0,.75.08,1.5.12,2.25s0,1.28.08,1.92.05,1.35.09,2,.05,1.44.07,2.15c0,.45.05.89.06,1.33,0,.6,0,1.19,0,1.79,0,1,.06,2.1.08,3.15h0l.17,0a11.52,11.52,0,0,1,1.56-.25,9.42,9.42,0,0,1,3,.2,7.41,7.41,0,0,1,3.8,2.09,6.61,6.61,0,0,1,1.18,1.69c.09.17.17.35.25.53a.21.21,0,0,0,0,.06h.1l1.18-1.31.4-.48a.73.73,0,0,1,.23-.19,1.12,1.12,0,0,0,.24-.19c.17-.16.34-.33.53-.48A12.16,12.16,0,0,1,49,93.45a.91.91,0,0,0,.3-.13h0c0-.12,0-.24,0-.36C49.31,91.65,49.31,90.35,49.32,89.05ZM104,37.47c2-6.45,11.2-1.29,14.71,1.34,7.49,5.64,12.07,13,17.43,19.77,2.91,3.7,6.09,7.72,6.33,12.16a7.43,7.43,0,0,1-.11,1.75c-.16.93-1.29,7.16-3.57,5.44-1.78-1.34-2.54-4.71-3.32-6.48a73,73,0,0,0-11.26-17.71c-2.29-2.7-4.92-5.18-7.38-7.79-1.74-1.84-3.26-4.8-6.27-5.62-1.37-.38-2,.2-3.21.28C105.05,40.75,103.41,39.22,104,37.47Z"/><path class="cls-5" d="M32.07,91c0-.6,0-1.19,0-1.79,0-.44,0-.88-.06-1.33,0-.71,0-1.43-.07-2.15s0-1.35-.09-2-.05-1.28-.08-1.92-.09-1.5-.12-2.25c0-.32-.05-.64-.07-1s0-.73-.07-1.1-.07-.92-.11-1.38l-.12-1.23v0c-.05-.35-.09-.7-.14-1S31,73.25,31,73c-.08-.44-.18-.87-.25-1.31,0-.2-.07-.39-.1-.59s-.09-.5-.13-.75-.08-.55-.12-.83,0-.37-.09-.56-.09-.61-.14-.92-.08-.66-.12-1-.1-.68-.13-1c-.06-.54-.11-1.08-.18-1.61,0-.31-.05-.62-.08-.93,0-.56-.08-1.13-.11-1.69s-.06-.84-.07-1.26c0-.79,0-1.59,0-2.38,0-.31,0-.62,0-.93,0-1.12,0-2.23.11-3.35,0-.21,0-.42,0-.63,0-.45.09-.9.14-1.35s.07-.66.12-1l.09-.66c0-.27.09-.55.14-.82s.09-.5.14-.75.13-.61.2-.92c.12-.6.27-1.19.45-1.78s.32-1.08.52-1.61.48-1.25.76-1.87a2,2,0,0,0,.12-.31,21.45,21.45,0,0,1,1.39-3.1,19.82,19.82,0,0,1,1.49-2.32,20.53,20.53,0,0,1,2.19-2.5,23.59,23.59,0,0,1,2.19-1.89c.65-.49,1.35-1,2.07-1.41a31.7,31.7,0,0,1,4.62-2.33,41.78,41.78,0,0,1,5.41-1.78q1.91-.48,3.87-.84c.9-.16,1.81-.3,2.72-.42l1.28-.16.81-.08,1-.09q.75-.07,1.5-.12a1.22,1.22,0,0,0,.34,0,3.54,3.54,0,0,1,.66-.74,12.49,12.49,0,0,1,1.58-1.18c.87-.55,1.79-1.05,2.73-1.53,1.51-.76,3.07-1.45,4.66-2.1a87.5,87.5,0,0,1,8.44-2.93c1.3-.37,2.61-.72,4-1,.55-.12,1.12-.22,1.67-.33a41.3,41.3,0,0,0,4.34-1.16c1.85-.59,3.66-1.25,5.44-2s3.32-1.35,5-2.07,3.23-1.45,4.82-2.22a1.39,1.39,0,0,0,.21-.11l0,0s0,0-.07,0l-.2,0c-1.17.36-2.37.65-3.57.91-2.8.62-5.62,1.12-8.46,1.59l-3.14.5-2.85.43-2.55.36c-.88.13-1.76.24-2.65.36l-2.3.31-2.31.29-2.4.29-2,.25-1.89.21-2,.24-2.31.26c-1.22.15-2.42.34-3.61.57A56.56,56.56,0,0,0,57,16.21a49.23,49.23,0,0,0-7.14,3,44.11,44.11,0,0,0-5.6,3.44,39.06,39.06,0,0,0-3.42,2.78,34.81,34.81,0,0,0-3.17,3.27,23.2,23.2,0,0,0-2,2.65s0,.05,0,.06l-.08,0s0,0,0,0a5.72,5.72,0,0,1,.53-1.64c.22-.46.45-.91.71-1.35.44-.76.91-1.5,1.42-2.24s1-1.4,1.49-2.09c.38-.52.77-1,1.17-1.55l2-2.47c.4-.5.81-1,1.22-1.49.67-.79,1.33-1.58,2-2.36.44-.52.89-1,1.34-1.55l.7-.8a.2.2,0,0,0,0-.08s0,0,0,0-.29.15-.43.24c-.77.46-1.51.95-2.25,1.45l-1.8,1.24L41.8,18l-2,1.44a1.67,1.67,0,0,1-.5.25A35.42,35.42,0,0,0,33,22.29,28.76,28.76,0,0,0,30.12,24a25.19,25.19,0,0,0-2.41,1.9,24.3,24.3,0,0,0-2,2c-.41.46-.8.94-1.17,1.43a24.62,24.62,0,0,0-1.84,2.81c-.3.55-.58,1.11-.84,1.67a24.09,24.09,0,0,0-1.23,3.21c-.14.45-.26.91-.39,1.36s-.21.85-.3,1.27-.15.79-.22,1.18-.14.86-.2,1.29-.08.77-.12,1.15c-.08.72-.12,1.44-.14,2.15,0,1,0,1.95,0,2.92,0,.2,0,.4,0,.6,0,.61.08,1.21.13,1.82,0,.37.07.75.12,1.12s0,.49.09.73c.1.62.2,1.25.31,1.87.07.44.16.88.25,1.32s.13.61.2.91c.13.5.23,1,.39,1.49a.16.16,0,0,1,0,.07,0,0,0,0,1,0,0h0l-.22-.1a6.07,6.07,0,0,0-.94-.41.2.2,0,0,0-.17,0l-.13.08a11,11,0,0,0-1.36,1A16.16,16.16,0,0,0,15.8,61.2a19.49,19.49,0,0,0-1.58,2.44,20.05,20.05,0,0,0-1.05,2.2,25.94,25.94,0,0,0-1,3.12c-.25,1-.45,1.93-.61,2.91-.11.71-.2,1.43-.26,2.15s-.1,1.25-.12,1.88-.07,1.44,0,2.16c0,.46,0,.93.05,1.39,0,.65.08,1.3.11,2,0,0,0,.07,0,.1.05.46.09.91.14,1.36s.07.7.12,1.06.06.48.09.72c.07.44.15.88.22,1.32s.13.83.21,1.25c.13.71.27,1.42.43,2.12.22,1,.46,1.94.68,2.91a1.37,1.37,0,0,0,.26.49.17.17,0,0,0,.14,0H14a21,21,0,0,1,2.51.06,14.74,14.74,0,0,1,3.84.9,9.13,9.13,0,0,1,3.05,1.88,5,5,0,0,1,1.28,1.93,3.73,3.73,0,0,1,.22,1.18,1.69,1.69,0,0,0,0,.23s0,.06.06.08a.11.11,0,0,0,.08,0l1.49.35.17,0a.11.11,0,0,0,.07,0,1.07,1.07,0,0,0,.1-.22A8.56,8.56,0,0,1,27.3,98a7.3,7.3,0,0,1,1.11-1.72,6.09,6.09,0,0,1,1.27-1.08,8.67,8.67,0,0,1,2.23-1l.24-.08h0C32.13,93.11,32.11,92.06,32.07,91Z"/><path class="cls-5" d="M73.18,25.14h.18l1.29.1c.36,0,.72.05,1.07.09.52.05,1,.11,1.54.18l1.8.22c1,.15,2,.31,3,.51a31.32,31.32,0,0,1,3.21.79,11.52,11.52,0,0,1,1.21.43,3.68,3.68,0,0,1,1,.61,4.78,4.78,0,0,0,.42.34,25.55,25.55,0,0,0,2.57,1.72,35.26,35.26,0,0,0,4.46,2.28,25.55,25.55,0,0,0,2.74,1,13.49,13.49,0,0,0,2.37.5,5.9,5.9,0,0,0,1.73,0,2.45,2.45,0,0,0,1.77-1.11c.07-.11.12-.22.19-.34a6.45,6.45,0,0,1,.89-1.24,4.87,4.87,0,0,1,1.08-.86,4.81,4.81,0,0,1,2.42-.61,4.45,4.45,0,0,1,1,.11,3.07,3.07,0,0,0,.42.07,9,9,0,0,1,1.37.17,14.73,14.73,0,0,1,3,.95,22.88,22.88,0,0,1,2.83,1.46,31.64,31.64,0,0,1,2.65,1.81c.81.6,1.59,1.22,2.33,1.87a1,1,0,0,0,.13.09.37.37,0,0,0,.07-.12c.19-.44.42-.87.65-1.31s.53-1,.82-1.45c.44-.74.91-1.46,1.41-2.17s.82-1.14,1.25-1.71.9-1.15,1.37-1.72.85-1,1.3-1.53c.64-.72,1.3-1.44,2-2.15.41-.44.83-.87,1.26-1.31l1.91-1.88c.41-.4.82-.8,1.25-1.19.79-.73,1.59-1.46,2.4-2.18.6-.55,1.22-1.09,1.85-1.63l2.95-2.47c1-.8,2-1.58,3-2.37q2-1.59,4.13-3.12l1.8-1.3,1.06-.74,0,0s0-.08,0-.09l-.07,0c-.64,0-1.27-.1-1.9-.13-.82,0-1.65-.08-2.47-.09l-1.6,0c-1.61,0-3.21,0-4.81.11h-.09l-2.37.17c-.91.07-1.81.16-2.71.26s-2.05.25-3.08.4c-1.7.25-3.39.55-5.06.9a81.69,81.69,0,0,0-8.34,2.21c-1.59.51-3.14,1.07-4.65,1.7l-.12,0s-.1,0-.1,0,0-.11,0-.17a7.15,7.15,0,0,0-.12-1.38,6.73,6.73,0,0,0-.64-1.86,6.81,6.81,0,0,0-1.17-1.65c-.1-.11-.22-.21-.33-.31s0,0-.06,0-.09,0-.1,0a5.05,5.05,0,0,1-.74,1.34,11,11,0,0,1-1.66,1.69,24.77,24.77,0,0,1-3.09,2.18,45.64,45.64,0,0,1-5.4,2.76c-1.63.71-3.31,1.35-5,1.94q-3.48,1.18-7.13,2l-2.66.61a66.91,66.91,0,0,0-8,2.43,41.29,41.29,0,0,0-5.35,2.45,19.91,19.91,0,0,0-2.17,1.37,2,2,0,0,0-.38.31h0a.57.57,0,0,0,.29,0C71.86,25.05,72.52,25.12,73.18,25.14Z"/><path class="cls-5" d="M124,38.23c.54.51,1,1,1.57,1.55s1.23,1.28,1.82,1.93.9,1,1.35,1.51c.8.89,1.56,1.81,2.31,2.72s1.26,1.56,1.87,2.35,1.23,1.58,1.82,2.37,1.09,1.46,1.62,2.2,1.07,1.49,1.59,2.24,1.11,1.6,1.65,2.4,1,1.56,1.55,2.34l2.21,3.45c.18.28.35.56.52.84l.84,1.38c.25.41.51.82.75,1.23l1,1.72.38.67a.48.48,0,0,1,.07.23c0,.5,0,1,0,1.52,0,.33,0,.66-.05,1s0,.62,0,.93,0,.62-.07.93a.86.86,0,0,1,0,.16c0,.39-.09.77-.13,1.16l-.12,1a.59.59,0,0,1,0,.13c0,.24-.09.48-.13.72s-.12.77-.2,1.15-.22,1-.34,1.47-.33,1.27-.53,1.91A30.48,30.48,0,0,1,144,84.78c-.07.16-.14.32-.22.47-.38.77-.77,1.52-1.22,2.27s-.86,1.35-1.35,2l-.77,1c-.05,0-.11.1-.08.18h0a.6.6,0,0,0,.3-.11,34.6,34.6,0,0,0,5.06-3,30.5,30.5,0,0,0,3.45-2.89,27.93,27.93,0,0,0,2.09-2.28A28.43,28.43,0,0,0,155,76.53c.44-.93.84-1.86,1.19-2.81s.68-2,.94-3c.15-.54.27-1.09.4-1.63s.18-.85.26-1.28.14-.85.21-1.28.15-1,.21-1.48.13-1.21.17-1.82.08-1.39.11-2.09c0-.26,0-.53,0-.79,0-1.55,0-3.1-.11-4.64a.62.62,0,0,1,0-.13c-.07-.78-.14-1.55-.22-2.32,0-.35-.08-.7-.12-1.05s-.06-.49-.1-.73-.09-.64-.14-1-.09-.57-.14-.86-.13-.74-.2-1.11c-.1-.55-.21-1.1-.32-1.64-.06-.32-.14-.64-.21-1-.12-.53-.23-1.07-.38-1.6-.21-.8-.41-1.6-.66-2.4-.14-.43-.27-.86-.4-1.29l-.12-.31a.09.09,0,0,0-.14,0l-.09.07a5.42,5.42,0,0,0-1,.93,8,8,0,0,0-1,1.53,13.8,13.8,0,0,0-1,2.4c-.16.51-.29,1-.42,1.55s-.2.9-.27,1.35-.12.83-.19,1.25c-.1.58-.16,1.16-.21,1.75s-.12,1.45-.13,2.18c0,.14,0,.29,0,.43a26.82,26.82,0,0,0,0,2.69c0,.1,0,.2,0,.3a0,0,0,0,0,0,0l-.06,0a.31.31,0,0,1-.06-.13c-.28-.75-.51-1.51-.73-2.28-.14-.45-.26-.91-.38-1.36s-.29-1.11-.4-1.66c-.06-.31-.12-.61-.19-.92-.13-.52-.21-1.05-.3-1.57s-.17-1.08-.25-1.61c0-.21-.07-.42-.09-.63-.06-.5-.12-1-.17-1.49-.06-.74-.13-1.47-.17-2.21-.05-1-.11-2-.1-3s0-1.79,0-2.68.06-1.88.14-2.82c0-.44.06-.88.1-1.32.07-.68.15-1.37.23-2.05,0-.34.08-.68.13-1s.09-.62.13-.92l.12-.83c.08-.48.16-1,.26-1.44.15-.81.29-1.62.48-2.43s.33-1.57.53-2.35.34-1.39.54-2.08.36-1.31.56-2,.34-1.14.54-1.71a3.07,3.07,0,0,0,.14-.52,1.25,1.25,0,0,0-.19-.93,2.15,2.15,0,0,0-.94-.81,3.14,3.14,0,0,0-2.16-.17,2.7,2.7,0,0,0-.58.23c-.63.33-1.24.68-1.84,1a44.09,44.09,0,0,0-3.84,2.64c-1.16.89-2.27,1.82-3.35,2.78-.81.72-1.59,1.45-2.36,2.2s-1.3,1.3-1.93,2c-.83.86-1.63,1.74-2.41,2.63-.63.72-1.24,1.44-1.86,2.16-.8.95-1.56,1.91-2.32,2.88-.52.67-1,1.35-1.54,2-.85,1.15-1.68,2.3-2.46,3.47a1.15,1.15,0,0,1-.19.26h0S124,38.21,124,38.23Z"/><polygon class="cls-5" points="68.48 31.63 68.48 31.63 68.48 31.62 68.48 31.63"/><polygon class="cls-5" points="94.85 75.59 94.84 75.59 94.84 75.6 94.85 75.59"/><path class="cls-5" d="M75.16,47.57c.15.52.29,1,.43,1.58.06.19.09.39.14.58.09.42.19.83.28,1.24s.17.83.25,1.24v.1h0c0,.23.08.46.11.69s.1.74.14,1.11a.38.38,0,0,1,0,.1,21.06,21.06,0,0,1,.09,2.51c0,.37-.06.74-.09,1.11s0,.47-.09.69a8.68,8.68,0,0,1-.23,1,7.22,7.22,0,0,1-.79,1.89,6.26,6.26,0,0,1-1,1.3,6.61,6.61,0,0,1-1.57,1.08l-.26.12,0,.06h0l.68-.09c.2,0,.4,0,.6,0a13.73,13.73,0,0,1,3.63.35,20.44,20.44,0,0,1,3.62,1.18,28.07,28.07,0,0,1,3.89,2c.83.51,1.63,1,2.41,1.61l.26.22h0a1,1,0,0,1,.3.19c.74.56,1.45,1.13,2.15,1.72.12.1.22.21.33.31h0a1.66,1.66,0,0,1,.21.16c.54.49,1.09,1,1.62,1.46s1.25,1.2,1.85,1.82l.57.58a.23.23,0,0,0,.15.1.22.22,0,0,0-.07-.17c-.39-.52-.77-1-1.12-1.58s-.51-.79-.76-1.19-.59-1-.86-1.55a1.7,1.7,0,0,1-.14-.35.24.24,0,0,1-.09-.14A16.36,16.36,0,0,1,91,68.69a7.12,7.12,0,0,1-.31-1.16h0a10.06,10.06,0,0,1-.22-1.22,10.36,10.36,0,0,1-.07-1.25,6.66,6.66,0,0,1,.11-1,6.11,6.11,0,0,1,.31-1.26,7.25,7.25,0,0,1,2.08-3l.15-.12a2.2,2.2,0,0,1,.46-.39,12.52,12.52,0,0,1,2.36-1.39c.45-.21.91-.39,1.37-.57l.09-.06a0,0,0,0,0,0,0,.3.3,0,0,0-.13,0,12.54,12.54,0,0,1-1.94.07,9.93,9.93,0,0,1-1.55-.15,12.62,12.62,0,0,1-1.62-.35,2.18,2.18,0,0,1-.23-.09h0a1.59,1.59,0,0,1-.44-.12,19.31,19.31,0,0,1-2.88-1.18,1.5,1.5,0,0,1-.41-.23h0a3.77,3.77,0,0,1-.6-.31,26.8,26.8,0,0,1-3.06-2.06c-1-.74-1.84-1.53-2.69-2.34a.88.88,0,0,1-.24-.27,1.12,1.12,0,0,1-.26-.22L80,48.62a2.3,2.3,0,0,1-.35-.42,1.22,1.22,0,0,1-.17-.15c-.59-.67-1.17-1.36-1.71-2.06l-.4-.51-.06-.12-.1-.1c-.24-.32-.48-.63-.71-.95-.36-.49-.71-1-1-1.49-.64-.93-1.23-1.87-1.81-2.83-.24-.4-.48-.8-.73-1.2-.4-.66-.81-1.31-1.22-2l-1.4-2.32-1.47-2.4-.3-.44s0,0-.05,0h0c0,.11.06.21.11.31.25.47.5.94.74,1.41s.54,1.12.82,1.67c.44.89.85,1.79,1.26,2.68s.71,1.59,1,2.39.72,1.76,1.06,2.65.57,1.51.82,2.27c.15.43.3.87.44,1.31a.85.85,0,0,1,0,.23l0,.05C75,46.92,75.07,47.24,75.16,47.57Z"/><path class="cls-3" d="M77.79,46c.54.7,1.12,1.39,1.71,2.06a1.22,1.22,0,0,0,.17.15l2.26-1c.39-.16.77-.34,1.16-.52a1.57,1.57,0,0,1,.23-.09.25.25,0,0,1,.12,0l.2.12c.63.44,1.24.9,1.81,1.38a26.78,26.78,0,0,1,2.23,2.15c.59.66,1.14,1.33,1.65,2s.83,1.19,1.2,1.8.62,1,.88,1.58c.15.29.29.58.43.87a.49.49,0,0,1,0,.16h0a2.18,2.18,0,0,0,.23.09,12.62,12.62,0,0,0,1.62.35,9.93,9.93,0,0,0,1.55.15,12.54,12.54,0,0,0,1.94-.07.3.3,0,0,1,.13,0,0,0,0,0,1,0,0l-.09.06c-.46.18-.92.36-1.37.57a12.52,12.52,0,0,0-2.36,1.39,2.2,2.2,0,0,0-.46.39,10.93,10.93,0,0,1,.38,1.19c.1.39.21.78.31,1.17s.15.69.22,1l.12.69a.9.9,0,0,1,0,.16,3.85,3.85,0,0,0,.08.49c0,.16,0,.33,0,.5s0,.25-.2.42c-.42.31-.85.61-1.28.9s-1,.67-1.55,1a3.35,3.35,0,0,1-.52.3h0A7.12,7.12,0,0,0,91,68.69a16.36,16.36,0,0,0,.77,1.92.24.24,0,0,0,.09.14s0-.06.09-.07c.55-.32,1.11-.63,1.62-1l0,0a2.52,2.52,0,0,0,.5-.32.8.8,0,0,1,.19-.13,3.5,3.5,0,0,0,.58-.4l.74-.56a2.78,2.78,0,0,0,.48-.42.64.64,0,0,1,.15-.13,5.41,5.41,0,0,0,.61-.55c.23-.21.39-.46.62-.68s.42-.52.58-.81l.29-.55a5.81,5.81,0,0,0,.56-1.66.18.18,0,0,1,0-.1A.86.86,0,0,0,99,63c0-.13.06-.26.08-.39s0-.13,0-.2c0-.3,0-.6,0-.89A1.92,1.92,0,0,0,99,60.7a2.5,2.5,0,0,0-.09-.66c0-.07,0-.16,0-.23s-.09-.43-.15-.65-.09-.32-.13-.48c-.12-.4-.27-.79-.41-1.18-.06-.17-.14-.33-.19-.51-.19-.33-.31-.69-.48-1a2,2,0,0,0-.1-.21c-.11-.2-.23-.38-.32-.58-.23-.48-.54-.93-.81-1.39a10.45,10.45,0,0,0-.62-.91c-.28-.4-.56-.8-.86-1.18S94.26,51,94,50.62c-.47-.57-1-1.12-1.5-1.66a9.69,9.69,0,0,0-.73-.7c-.22-.19-.4-.41-.64-.58,0,0,0,0-.06,0a.93.93,0,0,0-.27-.25l-1.63-1.25a1.7,1.7,0,0,0-.22-.15,3.32,3.32,0,0,1-.37-.23l-.16-.11c-.3-.16-.59-.32-.9-.46s-.89-.37-1.35-.53a12,12,0,0,0-1.34-.36c-.24-.06-.47-.1-.71-.14s-.4-.07-.6-.07a2.21,2.21,0,0,0-.68,0H81.9a2.27,2.27,0,0,0-.69,0h-.13a6.1,6.1,0,0,0-.84.13l-.53.14a5.33,5.33,0,0,0-.9.32c-.43.24-.91.43-1.35.65a.61.61,0,0,1-.13,0h0l.06.12Z"/><polygon class="cls-5" points="68.31 31.29 68.31 31.29 68.3 31.3 68.31 31.3 68.31 31.3 68.31 31.29"/><polygon class="cls-5" points="68.48 31.62 68.48 31.63 68.48 31.62 68.48 31.62"/><path class="cls-5" d="M68.48,31.6a.42.42,0,0,0-.17-.29.47.47,0,0,0,.14.3s0,0,0,0,0,0,0,0Z"/><path class="cls-5" d="M94.85,75.6Z"/><path class="cls-5" d="M95,75.75s0,0,0,0,0-.09-.13-.1a.14.14,0,0,0,.08.13Z"/><polygon class="cls-5" points="68.3 31.29 68.3 31.29 68.3 31.3 68.31 31.29 68.31 31.29 68.3 31.29"/><path class="cls-5" d="M68.3,31.28s0,0,0,0,0,0,0,0,0,0,0,0,0,0,0,0h0Z"/><path class="cls-6" d="M85,67.42a28.07,28.07,0,0,0-3.89-2,20.44,20.44,0,0,0-3.62-1.18,13.73,13.73,0,0,0-3.63-.35c-.2,0-.4,0-.6,0l-.68.09h0l0-.06.26-.12a6.61,6.61,0,0,0,1.57-1.08,6.26,6.26,0,0,0,1-1.3,7.22,7.22,0,0,0,.79-1.89,8.68,8.68,0,0,0,.23-1c0-.22.06-.46.09-.69A2.46,2.46,0,0,1,76,58c-.46.08-.92.19-1.38.28l-2.26.43-.71.13c-.46.09-.92.16-1.38.26s-1.18.19-1.76.32c-.27,0-.53.09-.8.13s-.54.08-.8.14a5.58,5.58,0,0,0-.59.09c-.19.07-.4,0-.59.1-.5,0-1,.16-1.48.23s-1,.15-1.51.24-.85.12-1.27.2l-.55.07c-.42.07-.85.11-1.27.19-.23,0-.45.07-.68.09a.47.47,0,0,0-.17,0,1.71,1.71,0,0,1-.55,0,.17.17,0,0,1-.16-.1c-.19-.33-.32-.68-.48-1A13.84,13.84,0,0,1,57,58.2a1.94,1.94,0,0,1-.12-.75c0-.12,0-.24,0-.36a.59.59,0,0,1,.14-.38,1,1,0,0,1,.37-.28,2.72,2.72,0,0,1,.77-.2c.13,0,.25,0,.38-.06a4.9,4.9,0,0,1,.77-.08c.23-.06.48-.05.72-.09.39-.07.78-.16,1.17-.21s.9-.17,1.35-.24.9-.16,1.34-.26L65.2,55c.35-.09.72-.15,1.08-.23s.61-.13.91-.2.88-.22,1.32-.31,1-.25,1.57-.36,1.12-.29,1.68-.43l1-.26,2-.55,1.1-.3a1.59,1.59,0,0,1,.38-.06h0v-.1c-.08-.41-.16-.83-.25-1.24s-.19-.82-.28-1.24l-.59.21-2.64.93-3,1c-1.36.43-2.74.82-4.13,1.2-3.34.9-6.73,1.66-10.18,2.25-1.17.2-2.34.39-3.52.54-.83.12-1.65.22-2.48.3l-.73.07-1.12.11c-.4,0-.81.06-1.21.09-.6,0-1.2.09-1.81.12l-1.12,0c-.55,0-1.1,0-1.65,0H41.2a14.42,14.42,0,0,1-1.47,0h-1a.14.14,0,0,0-.15.1,8.23,8.23,0,0,0,0,.86c0,.76,0,1.52.12,2.28,0,.38.08.75.11,1.13l0,.13L39,62.36a5.54,5.54,0,0,0,.12.69c.1.43.18.87.3,1.3.17.67.34,1.32.56,2,.13.37.25.74.4,1.12.24.61.49,1.22.79,1.82s.58,1.11.9,1.65a19.31,19.31,0,0,0,1.14,1.64A16.12,16.12,0,0,0,45.48,75c.4.34.81.66,1.25,1a.92.92,0,0,0,.42.16l.55.05,1.08.11c.41,0,.83.08,1.25.08s1.09,0,1.64.11c.86,0,1.73,0,2.6.06h1.86l1,0,1,0c.3,0,.6,0,.9,0,.6,0,1.19-.08,1.78-.09h0c.66-.07,1.32-.1,2-.17L64.76,76c.77-.09,1.54-.19,2.3-.3s1.75-.27,2.63-.43c2.31-.43,4.59-1,6.83-1.59,2-.57,4-1.23,5.86-2,1.56-.61,3.06-1.28,4.53-2,.26-.12.5-.26.75-.39h0L87.4,69C86.62,68.47,85.82,67.93,85,67.42ZM50,61A1.83,1.83,0,0,1,49,62a3,3,0,0,1-1.05.3,2.71,2.71,0,0,1-.83.06h-.46a1.31,1.31,0,0,1-.34,0,.47.47,0,0,0-.17,0,7.22,7.22,0,0,1-1.61-.35A5.09,5.09,0,0,1,44,61.7a2.12,2.12,0,0,1-.83-.55A2.77,2.77,0,0,1,42.49,60a.61.61,0,0,1,0-.13,2.43,2.43,0,0,0,0-.27,1,1,0,0,1,.32-.74.66.66,0,0,1,.18-.14,2,2,0,0,1,.91-.26,2.42,2.42,0,0,0,.47-.05,1,1,0,0,1,.43,0,.78.78,0,0,0,.21,0h.48c.14,0,.28.06.42.06s.42.08.64.08c.38.06.76.12,1.13.2a5.78,5.78,0,0,1,1.45.5,2,2,0,0,1,.91.9A1,1,0,0,1,50,61Z"/><path class="cls-3" d="M107.3,40.61c1.23-.08,1.84-.66,3.21-.28,3,.82,4.53,3.78,6.27,5.62,2.46,2.61,5.09,5.09,7.38,7.79a73,73,0,0,1,11.26,17.71c.78,1.77,1.54,5.14,3.32,6.48,2.28,1.72,3.41-4.51,3.57-5.44a7.43,7.43,0,0,0,.11-1.75c-.24-4.44-3.42-8.46-6.33-12.16-5.36-6.8-9.94-14.13-17.43-19.77C115.15,36.18,106,31,104,37.47,103.41,39.22,105.05,40.75,107.3,40.61Z"/><path class="cls-7" d="M74.78,52.67l-2,.55-1,.26c-.56.14-1.11.3-1.68.43s-1,.25-1.57.36-.88.21-1.32.31-.61.12-.91.2-.73.14-1.08.23l-1.33.28c-.44.1-.89.18-1.34.26s-.89.17-1.35.24-.78.14-1.17.21c-.24,0-.49,0-.72.09a4.9,4.9,0,0,0-.77.08c-.13,0-.25,0-.38.06a2.72,2.72,0,0,0-.77.2,1,1,0,0,0-.37.28.59.59,0,0,0-.14.38c0,.12,0,.24,0,.36a1.94,1.94,0,0,0,.12.75,13.84,13.84,0,0,0,.62,1.62c.16.34.29.69.48,1a.17.17,0,0,0,.16.1,1.71,1.71,0,0,0,.55,0,.47.47,0,0,1,.17,0c.23,0,.45-.09.68-.09.42-.08.85-.12,1.27-.19l.55-.07c.42-.08.85-.13,1.27-.2s1-.16,1.51-.24,1-.18,1.48-.23c.19-.07.4,0,.59-.1a5.58,5.58,0,0,1,.59-.09c.26-.06.53-.1.8-.14s.53-.11.8-.13c.58-.13,1.18-.2,1.76-.32s.92-.17,1.38-.26l.71-.13,2.26-.43c.46-.09.92-.2,1.38-.28a2.46,2.46,0,0,0,.53-.15c0-.37.07-.74.09-1.11a21.06,21.06,0,0,0-.09-2.51.38.38,0,0,0,0-.1c0-.37-.09-.74-.14-1.11s-.07-.46-.11-.69h0a1.59,1.59,0,0,0-.38.06Z"/><path class="cls-8" d="M91.41,55.68c-.26-.53-.56-1.06-.88-1.58s-.76-1.21-1.2-1.8-1.06-1.36-1.65-2a26.78,26.78,0,0,0-2.23-2.15c-.57-.48-1.18-.94-1.81-1.38l-.2-.12a.25.25,0,0,0-.12,0,1.57,1.57,0,0,0-.23.09c-.39.18-.77.36-1.16.52l-2.26,1a2.3,2.3,0,0,0,.35.42L81.31,50a1.12,1.12,0,0,0,.26.22l.2-.12.31-.24a3.72,3.72,0,0,0,.74-.68l.09-.08a.1.1,0,0,1,.14,0l.18.19.65.74a6.19,6.19,0,0,1,.47.55,3.19,3.19,0,0,0,.26.26l.3.36.11.15c.31.28.54.6.81.89l.77.88c.35.41.69.82,1.06,1.21.22.24.4.49.62.72s0,.12-.08.14h0a1.5,1.5,0,0,0,.41.23,19.31,19.31,0,0,0,2.88,1.18,1.59,1.59,0,0,0,.44.12.49.49,0,0,0,0-.16C91.7,56.26,91.56,56,91.41,55.68Z"/><path class="cls-8" d="M92.79,66.23c.43-.29.86-.59,1.28-.9.24-.17.25-.16.2-.42s0-.34,0-.5a3.85,3.85,0,0,1-.08-.49.9.9,0,0,0,0-.16L94,63.07c-.07-.35-.14-.7-.22-1s-.21-.78-.31-1.17a10.93,10.93,0,0,0-.38-1.19l-.15.12a7.25,7.25,0,0,0-2.08,3,6.11,6.11,0,0,0-.31,1.26,6.66,6.66,0,0,0-.11,1,10.36,10.36,0,0,0,.07,1.25,10.06,10.06,0,0,0,.22,1.22h0a3.35,3.35,0,0,0,.52-.3C91.76,66.9,92.28,66.57,92.79,66.23Z"/><path class="cls-7" d="M88.28,55c-.22-.23-.4-.48-.62-.72-.37-.39-.71-.8-1.06-1.21l-.77-.88c-.27-.29-.5-.61-.81-.89l-.11-.15-.3-.36a3.19,3.19,0,0,1-.26-.26,6.19,6.19,0,0,0-.47-.55l-.65-.74-.18-.19a.1.1,0,0,0-.14,0l-.09.08a3.72,3.72,0,0,1-.74.68l-.31.24-.2.12a.88.88,0,0,0,.24.27c.85.81,1.74,1.6,2.69,2.34a26.8,26.8,0,0,0,3.06,2.06,3.77,3.77,0,0,0,.6.31h0C88.32,55.15,88.36,55.12,88.28,55Z"/><path class="cls-7" d="M49.1,59.33a5.78,5.78,0,0,0-1.45-.5c-.37-.08-.75-.14-1.13-.2-.22,0-.42-.08-.64-.08s-.28,0-.42-.06H45a.78.78,0,0,1-.21,0,1,1,0,0,0-.43,0,2.42,2.42,0,0,1-.47.05,2,2,0,0,0-.91.26.66.66,0,0,0-.18.14,1,1,0,0,0-.32.74,2.43,2.43,0,0,1,0,.27.61.61,0,0,0,0,.13,2.77,2.77,0,0,0,.71,1.12,2.12,2.12,0,0,0,.83.55,5.09,5.09,0,0,0,.54.22,7.22,7.22,0,0,0,1.61.35.47.47,0,0,1,.17,0,1.31,1.31,0,0,0,.34,0h.46a2.71,2.71,0,0,0,.83-.06A3,3,0,0,0,49,62,1.83,1.83,0,0,0,50,61a1,1,0,0,0,0-.81A2,2,0,0,0,49.1,59.33Z"/></g></g></svg>