<svg xmlns="http://www.w3.org/2000/svg" viewBox="0 0 199.33 151.14"><defs><style>.cls-1,.cls-5{fill:#010202;}.cls-1{opacity:0.54;}.cls-1,.cls-19,.cls-2,.cls-20,.cls-21,.cls-3,.cls-4{isolation:isolate;}.cls-2{fill:#040506;opacity:0.33;}.cls-3{fill:#323437;}.cls-21,.cls-3{opacity:0.53;}.cls-4{fill:#050506;opacity:0.28;}.cls-6{fill:#5e6369;}.cls-7{fill:#f7fbfc;}.cls-8{fill:#adbbbe;}.cls-9{fill:#e31013;}.cls-10{fill:#43464c;}.cls-11{fill:#45464b;}.cls-12{fill:#42444a;}.cls-13{fill:none;stroke:#42444a;stroke-linecap:round;stroke-linejoin:round;stroke-width:0;}.cls-14{fill:#43454a;}.cls-15{fill:#31313c;}.cls-16{fill:#2d2e3a;}.cls-17{fill:#2d2d39;}.cls-18{fill:#262731;}.cls-19,.cls-20,.cls-21{fill:#010101;}.cls-19{opacity:0.5;}.cls-20{opacity:0.75;}</style></defs><title>Recurso 35</title><g id="Capa_2" data-name="Capa 2"><g id="Capa_1-2" data-name="Capa 1"><path class="cls-1" d="M60.36.23V0H9.08l.06.22C26.22.26,43.29.22,60.36.23Z"/><path class="cls-2" d="M68.12.23V0H60.36V.23C63,.25,65.53.23,68.12.23Z"/><path class="cls-3" d="M69.84.28c6.23-.07,12.47-.1,18.71,0a7.81,7.81,0,0,1,1-.1L89.42,0H68.12V.23Z"/><path class="cls-4" d="M98.79.23l0-.23H89.42l.09.21C92.6.25,95.7.24,98.79.23Z"/><path class="cls-1" d="M143.66.11,143.49,0H98.77l0,.23C113.75.16,128.71.4,143.66.11Z"/><path class="cls-5" d="M195,78c-14.59-24.41-29.42-48.62-44-73A10.57,10.57,0,0,0,143.66.11C128.71.4,113.75.16,98.79.23c-3.09,0-6.19,0-9.28,0a7.81,7.81,0,0,0-1,.1C82.33.58,76.06.6,69.84.28L68.12.23c-2.59,0-5.17,0-7.76,0-17.07,0-34.14,0-51.22,0C2.75.84-.54,10.5,3.14,16.64c13.3,22.85,26.72,45.61,40.05,68.45a1.55,1.55,0,0,1-.44,2C29.64,102,16.48,116.84,3.43,131.81A15.29,15.29,0,0,0,0,138.61v3.68c.71,5.3,4.84,9,9.21,8.84h3.66a14.23,14.23,0,0,1,3-.33,104.59,104.59,0,0,1,13.13,0c4.06.11,8.12,0,12.18.05,5.05,0,10.09,0,15.14,0H93.36c16.76,0,33.53-.09,50.29.07,3.44-.17,7.15-1.28,9.54-4.47,14-17.71,29.45-33.69,43.91-50.87a16.72,16.72,0,0,0,2.23-6.33V88C199.08,84.07,196.92,81,195,78Zm-.8,14.21c-14.16,16.35-28.66,32.29-42.5,49.06-1.9,2.46-4.35,5.08-7.34,4.76q-67.9-.06-135.81,0c-2.66.13-5-3-4.63-6.2a13.74,13.74,0,0,1,3.64-6c13.59-15.15,27-30.57,40.44-45.9a2,2,0,0,0,.29-2.66c-13.93-23.83-28-47.58-41.83-71.46C4.77,10.49,6.2,5.16,9.8,5.25c44.6-.2,89.21,0,133.81-.09,2.17-.3,3.6,2,4.79,3.85,15.24,25,30.06,50.27,45.31,75.22C195.21,86.42,196,89.83,194.23,92.16Z"/><path class="cls-5" d="M147.65,17.2c-1.6-2-2.28-4.93-4.3-6.38-44.08-.08-88.18,0-132.27,0,.2,2.65,2.17,4.47,3.17,6.72,13.32,22.63,26.55,45.35,39.86,68,.26.76,1.25,1.82.5,2.58-13.94,15.45-27.51,31.38-41.47,46.82-1.05,1.85-3.5,3-3.61,5.42q66.48,0,132.93.28c2.24.56,3.86-1.57,5.34-3.18,13.63-15.34,27-31,40.7-46.29.68-1.1,2.21-2.34,1.41-3.9C175.8,63.9,161.61,40.64,147.65,17.2Zm-.79,113.68c-1.48,1.43-2.9,3.73-5,3.57q-36.36.06-72.72,0c-.06-3,0-6-.09-9-.14-1.27-.07-3.16,1.51-2.52,15-1,30.06.11,45-1.67-.83-1.47-1-3.52-2.31-4.57-12.7,1.15-25.46,1-38.19,1.28a7.31,7.31,0,0,1-3.41-.31c.51-7.2-.94-15.3.61-22.07,0-1.15-.38-3.88,1.39-3.19,12.22.11,24.45-.16,36.66.13.64-1.36.18-3,.42-4.48C100.22,86.74,89.23,89.16,79,86.91c.59,2.09-2.48-.08-3.42.59-2.37.75-1.09-2.62-.44-3.65A29.33,29.33,0,0,1,81,74.63a26.1,26.1,0,0,1,9.84-7.44c10.93-4.55,23.76-4.82,34.21,1.63,2.66,1.18,4.84,3.63,6.89,5.81a48,48,0,0,1,5.52,6.82A81.44,81.44,0,0,1,146.94,99a124.66,124.66,0,0,1,7.94,21.82C152.61,124.46,149.5,127.51,146.86,130.88ZM66.62,73.24c-1.49.7-3.31-1.92-2.48-3.25,4.55.09,9.51-.46,13.84.24C76.14,75.13,70.25,72.63,66.62,73.24Zm68.7-3.3c8.7,0,17.41,0,26.11,0,1.52-.31,3.31,1.36,3.11,3.27q-13.23.06-26.47,0C137.05,72.48,135.23,71.67,135.32,69.94Zm48.29,17.55c-12.06-.45-24.14,0-36.2-.2A25.41,25.41,0,0,1,142,79c-1-1-2.62-2.55-2.3-4.3,9.2-.43,18.47.3,27.67-.37a49.85,49.85,0,0,0-3.74-5.62c-10-.51-20-.07-30-.25a13.31,13.31,0,0,1-4.95-4,41.46,41.46,0,0,0-13.39-5.39,79.79,79.79,0,0,0-18.47,0c-4.09,1.09-8.53,3.5-12.58,5.59-1.68,1.65-3.52,3.88-5.88,3.8-5.47.06-10.94,0-16.41,0-1.05,2.16,2,4.25,2.88,6.1,3-.13,6,.34,9,.24-.15,1.48-1,3.49-2.14,4.19-1.08,2.75-1.92,5.76-3.16,8.46-2.51-.47-5.55,1-7.84-.47Q42,55.16,23.29,23.23c-1.28-2.27-3-4.54-3.46-7.29q60.11.08,120.22,0c1.32.17,2.13,1.59,2.84,2.78,13,22.33,26.6,44.16,39.92,66.22A3.91,3.91,0,0,1,183.61,87.49Z"/><path class="cls-5" d="M138.91,33.73a4.32,4.32,0,0,1,3-.17,3.79,3.79,0,0,0,.82-.13c-1.1-2.21-2.44-4.69-4.5-5.68l-.34,0q-50.31,0-100.64,0l-.15.06c.62,2.2,1.77,4.92,3.59,5.94Q89.78,33.94,138.91,33.73Zm-96.51-.9c-1.72.43-3.84-2.6-2.49-4.18q48.63-.06,97.26,0c1.14.41,3.35,1.72,2.58,3.55-10.88,1.17-22.15.11-33.18.67C85.19,32.5,63.8,33.08,42.4,32.83Z"/><path class="cls-5" d="M152,54.63a4.16,4.16,0,0,1,2.18-.1l1.28-.07c-1.21-2.31-2.55-5-4.84-5.86-33.48-.47-67-.36-100.51-.05-.68,2.08,1.7,4.55,2.95,6.13C86,55,119,54.86,152,54.63ZM52.9,53.32c-.55-.65-1.73-2.48-.8-3.28,32.76-.13,65.52,0,98.28,0a2.94,2.94,0,0,1,2.14,3.27c-9.2-.37-18.41,1.26-27.59.06Q88.92,53.18,52.9,53.32Z"/><path class="cls-5" d="M126.56,90.14a8.35,8.35,0,0,0-.12-2.24c-3.25.23-6.51,0-9.76.15,0,1.82,1,3.33,1.91,4.72a38.23,38.23,0,0,1,3.86,0c0,.08,0,.17.08.25a2.58,2.58,0,0,1,.06.37c.34,1.9-.3,4.59-.3,6.62a18.42,18.42,0,0,0,4.07,4.43C126.43,99.65,126.18,94.88,126.56,90.14Z"/><path class="cls-5" d="M126.31,121.21c.06-5.21.14-10.43-.08-15.63a10.2,10.2,0,0,0-3.59,5.18c-.1,2.56,1,7.67-2.67,6.08a18.66,18.66,0,0,0-.88,4.16A13.83,13.83,0,0,0,126.31,121.21Z"/><path class="cls-6" d="M69.84.28c6.22.32,12.49.3,18.71,0C82.31.18,76.07.21,69.84.28Z"/><path class="cls-6" d="M142.89,18.74c-.71-1.19-1.52-2.61-2.84-2.78q-60.11,0-120.22,0c.43,2.75,2.18,5,3.46,7.29q18.66,32,37.45,63.82c2.29,1.44,5.33,0,7.84.47,1.24-2.7,2.08-5.71,3.16-8.46-3.31,1-6-.31-6.9-4.43-.88-1.85-3.93-3.94-2.88-6.1-1.41-1-3.28-4.47-.94-4l-.41-.12c7.15-.23,14.3,0,21.45-.13,0,.61-1.41.18-1.77.46a18.73,18.73,0,0,1,4,0c4-2.09,8.49-4.5,12.58-5.59-1.83,0-3.65,0-5.47.1,1,.23,2.45-.24,3.16.4-12.79-.25-25.82.47-38.46-.35-1.6-.78-2.13-3-3-4.58-1.25-1.58-3.63-4-2.95-6.13-1.26-.23-2.76-2.86-2.1-3.61-.24,0-.35-.17-.17-.54,33.55-.54,67.15-.12,100.7-.35.27.2.75.42.46.89a40.16,40.16,0,0,0-6.76.06c2.35.37,5.1-.58,7.25.47.29.85,2.94,3.08,1.13,3.13,2.29.86,3.63,3.55,4.84,5.86l-1.28.07a5.48,5.48,0,0,1,4,4.62c-2,0-4,0-6,0,.3.2.74.43.14.5-11.34-.11-22.69.13-34-.13l1.12-.34c-1.36,0-2.72,0-4.08,0a41.46,41.46,0,0,1,13.39,5.39,30.81,30.81,0,0,0,5.84.26c-.27-.18-1.11-.37-.35-.44,8.89-.16,17.81.17,26.71-.16-.07.15-.19.44-.25.59,1.44.66,2,2.66,3,4a49.85,49.85,0,0,1,3.74,5.62,14.21,14.21,0,0,1,3.06,4.77c-9.48-.15-19,0-28.43-.1a25.41,25.41,0,0,0,5.45,8.25c12.06.15,24.14-.25,36.2.2a3.91,3.91,0,0,0-.8-2.53C169.49,62.9,155.91,41.07,142.89,18.74ZM43,38c-.87-1.12-2.21-3.14-2.35-4.27-1.82-1-3-3.74-3.59-5.94-.77-.93-1.85-2.3-1.85-3.59q50.46,0,100.92,0c.6.68,3.39,3,2.06,3.57,2.06,1,3.4,3.47,4.5,5.68a3.79,3.79,0,0,1-.82.13c1.8.56,3.17,2.36,4,4.56C111.61,37.86,77.3,38.13,43,38Z"/><path class="cls-6" d="M135.93,27q-48.51,0-97,0a3.66,3.66,0,0,0-1.68.74q50.33,0,100.64,0A2,2,0,0,0,135.93,27Z"/><path class="cls-7" d="M148.4,9c-1.19-1.83-2.62-4.15-4.79-3.85C99,5.22,54.4,5.05,9.8,5.25c-3.6-.09-5,5.24-3.31,8.51,13.86,23.88,27.9,47.63,41.83,71.46A2,2,0,0,1,48,87.88c-13.45,15.33-26.85,30.75-40.44,45.9a13.74,13.74,0,0,0-3.64,6c-.37,3.19,2,6.33,4.63,6.2q67.91.08,135.81,0c3,.32,5.44-2.3,7.34-4.76,13.84-16.77,28.34-32.71,42.5-49.06,1.72-2.33,1-5.74-.52-7.93C178.46,59.28,163.64,34,148.4,9Zm40.22,84.34c-14,15.49-27.53,31.64-41.54,47.16a3.87,3.87,0,0,1-2.88,1.71c-8.75.36-18.82.41-27.55,0-35.81,0-71.63.1-107.43-.07-2.34-.24-1.69-3.78-.14-4.92C22.77,121.3,36.84,105.87,50.54,90c.94-1,3.41-2.58,1.88-4.31C38.63,62.33,25.11,38.77,11.26,15.49c-.78-1.77-3.53-5.18-1-6.5,25.69-.39,51.4.12,77.1-.07,17.39-1.32,35.53.31,53.2-.48,2.86-.51,5.67,1.65,6.56,5,14.74,24.1,29.18,48.54,44,72.57C193.08,88.86,190.05,91.39,188.62,93.35Z"/><path class="cls-7" d="M106.79,95.12c-6.84.37-13.69.06-20.54.15a2.86,2.86,0,0,0,0,2.36c7.2,0,14.39,0,21.59,0C108.52,96.66,107.94,94.75,106.79,95.12Z"/><path class="cls-7" d="M77,95.34c-1,.12-.86,1.89-.26,2.53,2.48-.56,5.15.18,7.53-.51C84.69,92.83,79.05,96.3,77,95.34Z"/><path class="cls-8" d="M141.28,8.91c2.75-.76,4.41,2.23,5.82,4.48-.89-3.3-3.7-5.46-6.56-5-17.67.79-35.81-.84-53.2.48C105.33,8.73,123.3,9.41,141.28,8.91Z"/><path class="cls-8" d="M38.89,27q48.52.06,97,0a2,2,0,0,1,1.92.72l.34,0c1.33-.61-1.46-2.89-2.06-3.57q-50.46,0-100.92,0c0,1.29,1.08,2.66,1.85,3.59l.15-.06A3.66,3.66,0,0,1,38.89,27Z"/><path class="cls-8" d="M141.87,33.56a4.32,4.32,0,0,0-3,.17q-49.12.14-98.26,0c.14,1.13,1.48,3.15,2.35,4.27,34.3.15,68.61-.12,102.92.14C145,35.92,143.67,34.12,141.87,33.56Z"/><path class="cls-8" d="M150.6,48.6c1.81-.05-.84-2.28-1.13-3.13-2.15-1-4.9-.1-7.25-.47q-46.35.14-92.69,0a.48.48,0,0,0-.22-.08c-.37-.07-1,.08-1.32,0-.66.75.84,3.38,2.1,3.61C83.59,48.24,117.12,48.13,150.6,48.6Z"/><path class="cls-8" d="M152.15,59.13c2,0,4,.06,6,0a5.48,5.48,0,0,0-4-4.62,4.16,4.16,0,0,0-2.18.1c-33,.23-66,.41-98.94,0,.89,1.6,1.42,3.8,3,4.58,11.77-.23,23.54-.14,35.3,0,1.82-.05,3.64-.08,5.47-.1a79.79,79.79,0,0,1,18.47,0c1.36,0,2.72,0,4.08,0C130.3,59.11,141.23,59.16,152.15,59.13Z"/><path class="cls-8" d="M93,69.46c5.51,3.6,12,2.54,18,2.24a35.09,35.09,0,0,1,.12-3.7c.56,1.42.93,2.93,1.41,4.39,4-1.4,9.1-.14,12.48-3.57-10.45-6.45-23.28-6.18-34.21-1.63C91,68.49,92.18,68.87,93,69.46Z"/><path class="cls-8" d="M80.29,64.73c-6.19.06-12.39.09-18.58,0L61,64.52c-2.34-.46-.47,3.06.94,4,5.47,0,10.94,0,16.41,0,2.36.08,4.2-2.15,5.88-3.8A18.73,18.73,0,0,0,80.29,64.73Z"/><path class="cls-8" d="M160.64,64.76q-13,0-26.11,0a30.81,30.81,0,0,1-5.84-.26,13.31,13.31,0,0,0,4.95,4c10,.18,20-.26,30,.25C162.65,67.42,162.08,65.42,160.64,64.76Z"/><path class="cls-8" d="M170.39,79.14a14.21,14.21,0,0,0-3.06-4.77c-9.2.67-18.47-.06-27.67.37-.32,1.75,1.35,3.34,2.3,4.3C151.43,79.17,160.91,79,170.39,79.14Z"/><path class="cls-8" d="M71.74,79.06c1.17-.7,2-2.71,2.14-4.19-3,.1-6-.37-9-.24C65.76,78.75,68.43,80,71.74,79.06Z"/><path class="cls-8" d="M88.08,78.12A20.72,20.72,0,0,1,81,74.63a29.33,29.33,0,0,0-5.86,9.22c.34,1.91,2.7,2,3.86,3.06,10.25,2.25,21.24-.17,31.71,1.19.58-2.76.18-5.65.52-8.45C103.5,79.39,95.69,80,88.08,78.12Z"/><path class="cls-8" d="M126.79,79.06c-4.16,1.55-8.62,0-12.84,1.21.85,2.41,1.31,5,2.34,7.33,3.36.53,6.78-.18,10.15.3a8.35,8.35,0,0,1,.12,2.24c4.34-1.1,8.21-4.49,10.88-8.69a48,48,0,0,0-5.52-6.82C130.43,76.42,128.93,78.5,126.79,79.06Z"/><path class="cls-8" d="M109.09,100.48a22.51,22.51,0,0,0,1.18-7.9c-12.21-.29-24.44,0-36.66-.13-1.77-.69-1.39,2-1.39,3.19C83.46,102.93,96.81,104.15,109.09,100.48ZM84.25,97.36c-2.38.69-5,0-7.53.51-.6-.64-.7-2.41.26-2.53C79.05,96.3,84.69,92.83,84.25,97.36Zm2-2.09c6.85-.09,13.7.22,20.54-.15,1.15-.37,1.73,1.54,1,2.49-7.2,0-14.39,0-21.59,0A2.86,2.86,0,0,1,86.25,95.27Z"/><path class="cls-8" d="M122.59,93.35c0-.13,0-.25-.06-.37s0-.17-.08-.25a38.23,38.23,0,0,0-3.86,0,13.1,13.1,0,0,0,1.32,3.28C120.88,95.21,122.76,95,122.59,93.35Z"/><path class="cls-8" d="M110.45,113.54C98.62,113.36,86.08,111.72,75,118c12.73-.3,25.49-.13,38.19-1.28C112.88,115.11,111.52,114.36,110.45,113.54Z"/><path class="cls-9" d="M147.1,13.39c-1.41-2.25-3.07-5.24-5.82-4.48-18,.5-35.95-.18-53.94,0-25.7.19-51.41-.32-77.1.07-2.51,1.32.24,4.73,1,6.5C25.11,38.77,38.63,62.33,52.42,85.66c1.53,1.73-.94,3.28-1.88,4.31-13.7,15.9-27.77,31.33-41.46,47.25-1.55,1.14-2.2,4.68.14,4.92,35.8.17,71.62,0,107.43.07,9.18,0,18.37,0,27.55,0a3.87,3.87,0,0,0,2.88-1.71c14-15.52,27.51-31.67,41.54-47.16,1.43-2,4.46-4.49,2.52-7.39C176.28,61.93,161.84,37.49,147.1,13.39Zm41.4,77.72c-13.71,15.25-27.07,31-40.7,46.29-1.48,1.61-3.1,3.74-5.34,3.18Q76,140.36,9.53,140.3c.11-2.42,2.56-3.57,3.61-5.42,14-15.44,27.53-31.37,41.47-46.82.75-.76-.24-1.82-.5-2.58C40.8,62.85,27.57,40.13,14.25,17.5c-1-2.25-3-4.07-3.17-6.72,44.09.06,88.19,0,132.27,0,2,1.45,2.7,4.41,4.3,6.38,14,23.44,28.15,46.7,42.26,70C190.71,88.77,189.18,90,188.5,91.11Z"/><path class="cls-9" d="M106.57,32.86c11-.56,22.3.5,33.18-.67.77-1.83-1.44-3.14-2.58-3.55q-48.63,0-97.26,0c-1.35,1.58.77,4.61,2.49,4.18C63.8,33.08,85.19,32.5,106.57,32.86Z"/><path class="cls-9" d="M152.52,53.26A2.94,2.94,0,0,0,150.38,50c-32.76,0-65.52-.08-98.28,0-.93.8.25,2.63.8,3.28q36-.12,72,0C134.11,54.52,143.32,52.89,152.52,53.26Z"/><path class="cls-9" d="M118.33,130.23c1.07-2.11-.2-4.79.37-7.07.09-.73.24-1.44.39-2.16a18.66,18.66,0,0,1,.88-4.16,24.21,24.21,0,0,1,2.67-6.08,10.2,10.2,0,0,1,3.59-5.18c0-.39.11-.78.13-1.18a18.42,18.42,0,0,1-4.07-4.43,12.22,12.22,0,0,1-2.38-3.92,13.1,13.1,0,0,1-1.32-3.28c-.86-1.39-1.94-2.9-1.91-4.72,3.25-.18,6.51.08,9.76-.15-3.37-.48-6.79.23-10.15-.3-1-2.32-1.49-4.92-2.34-7.33l-.24-.69a18.73,18.73,0,0,1-1.16-7.19c-.48-1.46-.85-3-1.41-4.39a35.09,35.09,0,0,0-.12,3.7,42,42,0,0,1,.45,7.18c-.08.26-.17.51-.26.77-.34,2.8.06,5.69-.52,8.45-.24,1.47.22,3.12-.42,4.48a22.51,22.51,0,0,1-1.18,7.9C108.36,103,107,105,106,107.36c0,3.1,3.31,3.78,4.45,6.18,1.07.82,2.43,1.57,2.76,3.2,1.29,1.05,1.48,3.1,2.31,4.57a12,12,0,0,1,1.69,5.6C117.64,127.73,117.36,130.11,118.33,130.23Z"/><path class="cls-9" d="M78,70.23c-4.33-.7-9.29-.15-13.84-.24-.83,1.33,1,4,2.48,3.25C70.25,72.63,76.14,75.13,78,70.23Z"/><path class="cls-9" d="M164.54,73.19c.2-1.91-1.59-3.58-3.11-3.27-8.7,0-17.41,0-26.11,0-.09,1.73,1.73,2.54,2.75,3.25Q151.3,73.26,164.54,73.19Z"/><path class="cls-10" d="M49.31,44.91a.48.48,0,0,1,.22.08q46.34.18,92.69,0a40.16,40.16,0,0,1,6.76-.06c.29-.47-.19-.69-.46-.89-33.55.23-67.15-.19-100.7.35-.18.37-.07.5.17.54S48.94,44.84,49.31,44.91Z"/><path class="cls-11" d="M56.06,59.26c12.64.82,25.67.1,38.46.35-.71-.64-2.17-.17-3.16-.4C79.6,59.12,67.83,59,56.06,59.26Z"/><path class="cls-11" d="M80.29,64.73c.36-.28,1.76.15,1.77-.46-7.15.12-14.3-.1-21.45.13l.41.12.69.21C67.9,64.82,74.1,64.79,80.29,64.73Z"/><path class="cls-12" d="M118.26,59.5c11.34.26,22.69,0,34,.13.6-.07.16-.3-.14-.5-10.92,0-21.85,0-32.77,0Z"/><path class="cls-12" d="M88.69,77.76a95.06,95.06,0,0,0,22.78,1.12A42,42,0,0,0,111,71.7c-6,.3-12.53,1.36-18-2.24-.8-.59-2-1-2.16-2.27A26.1,26.1,0,0,0,81,74.63a20.72,20.72,0,0,0,7.1,3.49C88.12,77.71,88.42,77.72,88.69,77.76Z"/><path class="cls-12" d="M113.71,79.58a45.66,45.66,0,0,1,13.08-.52c2.14-.56,3.64-2.64,5.13-4.43-2-2.18-4.23-4.63-6.89-5.81-3.38,3.43-8.46,2.17-12.48,3.57A18.73,18.73,0,0,0,113.71,79.58Z"/><path class="cls-12" d="M126.56,90.14c-.38,4.74-.13,9.51-.2,14.26,0,.4-.08.79-.13,1.18.22,5.2.14,10.42.08,15.63a13.83,13.83,0,0,1-7.22-.21c-.15.72-.3,1.43-.39,2.16,1.88-.72-.5,4.55,1.7,3.39,5.78-1.31,12-2.27,16.85-6.59,5-5.6,6.93-13.71,9.69-20.95a81.44,81.44,0,0,0-9.5-17.56C134.77,85.65,130.9,89,126.56,90.14Z"/><path class="cls-12" d="M75.12,83.85c-.65,1-1.93,4.4.44,3.65.94-.67,4,1.5,3.42-.59C77.82,85.81,75.46,85.76,75.12,83.85Z"/><path class="cls-12" d="M122.59,93.35c.17,1.67-1.71,1.86-2.68,2.7a12.22,12.22,0,0,0,2.38,3.92C122.29,97.94,122.93,95.25,122.59,93.35Z"/><path class="cls-12" d="M122.53,93c0,.12,0,.24.06.37A2.58,2.58,0,0,0,122.53,93Z"/><path class="cls-13" d="M122.45,92.73c0,.08,0,.17.08.25"/><path class="cls-12" d="M110.45,113.54c-1.14-2.4-4.48-3.08-4.45-6.18,1-2.32,2.36-4.39,3.09-6.88-12.28,3.67-25.63,2.45-36.87-4.84-1.55,6.77-.1,14.87-.61,22.07A7.31,7.31,0,0,0,75,118C86.08,111.72,98.62,113.36,110.45,113.54Z"/><path class="cls-12" d="M122.64,110.76a24.21,24.21,0,0,0-2.67,6.08C123.59,118.43,122.54,113.32,122.64,110.76Z"/><path class="cls-12" d="M117.21,126.91a12,12,0,0,0-1.69-5.6c-14.93,1.78-30,.63-45,1.67-1.58-.64-1.65,1.25-1.51,2.52a5.73,5.73,0,0,0,1.49.82A337,337,0,0,0,117.21,126.91Z"/><path class="cls-14" d="M160.89,64.17c-8.9.33-17.82,0-26.71.16-.76.07.08.26.35.44q13,0,26.11,0C160.7,64.61,160.82,64.32,160.89,64.17Z"/><path class="cls-15" d="M88.69,77.76c-.27,0-.57-.05-.61.36,7.61,1.84,15.42,1.27,23.13,1.53.09-.26.18-.51.26-.77A95.06,95.06,0,0,1,88.69,77.76Z"/><path class="cls-16" d="M126.79,79.06a45.66,45.66,0,0,0-13.08.52l.24.69C118.17,79.11,122.63,80.61,126.79,79.06Z"/><path class="cls-16" d="M144.2,142.22c-9.18,0-18.37,0-27.55,0C125.38,142.63,135.45,142.58,144.2,142.22Z"/><path class="cls-17" d="M137.25,120c-4.88,4.32-11.07,5.28-16.85,6.59-2.2,1.16.18-4.11-1.7-3.39-.57,2.28.7,5-.37,7.07-1-.12-.69-2.5-1.12-3.32a337,337,0,0,1-46.7-.59A5.73,5.73,0,0,1,69,125.5c.14,3,0,6,.09,9q36.36,0,72.72,0c2.13.16,3.55-2.14,5-3.57,2.64-3.37,5.75-6.42,8-10A124.66,124.66,0,0,0,146.94,99C144.18,106.25,142.23,114.36,137.25,120Z"/><path class="cls-18" d="M15.84,150.8c4.38.18,8.75.1,13.13,0A104.59,104.59,0,0,0,15.84,150.8Z"/><path class="cls-19" d="M41.15,150.9l0,.23H56.28v-.23C51.24,150.9,46.2,150.89,41.15,150.9Z"/><path class="cls-20" d="M56.29,150.9v.23H93.36v-.23Z"/><path class="cls-21" d="M93.36,150.9v.23h50.16l.13-.16C126.89,150.81,110.12,150.94,93.36,150.9Z"/></g></g></svg>